Urbanist-Medium.ufo
<glyph name="exclam" format="2">
  <advance width="394.0"/>
  <unicode hex="0021"/>
  <outline>
    <contour>
      <point x="100.0" y="420.0" type="line"/>
      <point x="254.8" y="420.0" type="line"/>
      <point x="254.8" y="1400.0" type="line"/>
      <point x="100.0" y="1400.0" type="line"/>
    </contour>
    <contour>
      <point x="178.0" y="-26.0" type="curve" smooth="yes"/>
      <point x="231.2" y="-26.0"/>
      <point x="274.0" y="16.8"/>
      <point x="274.0" y="73.2" type="curve" smooth="yes"/>
      <point x="274.0" y="126.4"/>
      <point x="231.2" y="169.2"/>
      <point x="178.0" y="169.2" type="curve" smooth="yes"/>
      <point x="122.8" y="169.2"/>
      <point x="80.0" y="126.4"/>
      <point x="80.0" y="73.2" type="curve" smooth="yes"/>
      <point x="80.0" y="16.8"/>
      <point x="122.8" y="-26.0"/>
    </contour>
  </outline>
</glyph>
<glyph name="numbersign" format="2">
  <advance width="1535.0"/>
  <unicode hex="0023"/>
  <outline>
    <contour>
      <point x="1408.0" y="909.2" type="line"/>
      <point x="1454.8" y="1083.2" type="line"/>
      <point x="1266.8" y="1083.2" type="line"/>
      <point x="1350.8" y="1400.0" type="line"/>
      <point x="1170.8" y="1400.0" type="line"/>
      <point x="1086.8" y="1083.2" type="line"/>
      <point x="654.4" y="1083.2" type="line"/>
      <point x="738.8" y="1400.0" type="line"/>
      <point x="558.8" y="1400.0" type="line"/>
      <point x="474.4" y="1083.2" type="line"/>
      <point x="284.8" y="1083.2" type="line"/>
      <point x="238.0" y="909.2" type="line"/>
      <point x="428.0" y="909.2" type="line"/>
      <point x="314.8" y="492.4" type="line"/>
      <point x="126.8" y="492.4" type="line"/>
      <point x="80.0" y="318.4" type="line"/>
      <point x="268.8" y="318.4" type="line"/>
      <point x="184.0" y="0.0" type="line"/>
      <point x="364.0" y="0.0" type="line"/>
      <point x="448.8" y="318.4" type="line"/>
      <point x="882.0" y="318.4" type="line"/>
      <point x="796.0" y="0.0" type="line"/>
      <point x="976.0" y="0.0" type="line"/>
      <point x="1062.0" y="318.4" type="line"/>
      <point x="1250.0" y="318.4" type="line"/>
      <point x="1296.8" y="492.4" type="line"/>
      <point x="1106.8" y="492.4" type="line"/>
      <point x="1220.0" y="909.2" type="line"/>
    </contour>
    <contour>
      <point x="926.8" y="492.4" type="line"/>
      <point x="494.8" y="492.4" type="line"/>
      <point x="608.0" y="909.2" type="line"/>
      <point x="1040.0" y="909.2" type="line"/>
    </contour>
  </outline>
</glyph>
<glyph name="dollar" format="2">
  <advance width="1191.0"/>
  <unicode hex="0024"/>
  <outline>
    <contour>
      <point x="595.2" y="1240.8" type="curve"/>
      <point x="750.8" y="1240.8"/>
      <point x="902.8" y="1170.8"/>
      <point x="941.2" y="1063.2" type="curve"/>
      <point x="1111.2" y="1124.4" type="line"/>
      <point x="1048.0" y="1295.2"/>
      <point x="858.4" y="1400.0"/>
      <point x="660.8" y="1418.4" type="curve"/>
      <point x="660.8" y="1624.0" type="line"/>
      <point x="531.2" y="1624.0" type="line"/>
      <point x="531.2" y="1418.4" type="line"/>
      <point x="288.0" y="1395.2"/>
      <point x="84.8" y="1240.8"/>
      <point x="84.8" y="1015.2" type="curve"/>
      <point x="84.8" y="752.4"/>
      <point x="304.0" y="656.4"/>
      <point x="595.2" y="608.4" type="curve"/>
      <point x="759.2" y="580.4"/>
      <point x="926.4" y="520.8"/>
      <point x="926.4" y="380.8" type="curve"/>
      <point x="926.4" y="244.4"/>
      <point x="768.0" y="154.0"/>
      <point x="595.2" y="154.0" type="curve"/>
      <point x="438.8" y="154.0"/>
      <point x="286.8" y="225.2"/>
      <point x="249.2" y="332.8" type="curve"/>
      <point x="80.0" y="270.4" type="line"/>
      <point x="140.4" y="103.2"/>
      <point x="326.8" y="-4.4"/>
      <point x="531.2" y="-22.0" type="curve"/>
      <point x="531.2" y="-224.0" type="line"/>
      <point x="660.8" y="-224.0" type="line"/>
      <point x="660.8" y="-22.0" type="line"/>
      <point x="904.0" y="2.0"/>
      <point x="1106.4" y="154.8"/>
      <point x="1106.4" y="380.8" type="curve"/>
      <point x="1106.4" y="622.8"/>
      <point x="868.0" y="744.8"/>
      <point x="595.2" y="790.0" type="curve"/>
      <point x="409.2" y="822.4"/>
      <point x="264.8" y="852.8"/>
      <point x="264.8" y="1015.2" type="curve"/>
      <point x="264.8" y="1149.2"/>
      <point x="423.2" y="1242.0"/>
    </contour>
  </outline>
</glyph>
<glyph name="percent" format="2">
  <advance width="1369.0"/>
  <unicode hex="0025"/>
  <outline>
    <contour>
      <point x="176.4" y="0.0" type="line"/>
      <point x="384.0" y="0.0" type="line"/>
      <point x="1192.0" y="1400.0" type="line"/>
      <point x="984.4" y="1400.0" type="line"/>
    </contour>
    <contour>
      <point x="342.8" y="830.4" type="curve" smooth="yes"/>
      <point x="484.4" y="830.4"/>
      <point x="605.2" y="944.4"/>
      <point x="605.2" y="1092.0" type="curve" smooth="yes"/>
      <point x="605.2" y="1238.0"/>
      <point x="487.2" y="1355.2"/>
      <point x="342.8" y="1355.2" type="curve" smooth="yes"/>
      <point x="200.8" y="1355.2"/>
      <point x="80.0" y="1240.8"/>
      <point x="80.0" y="1092.0" type="curve" smooth="yes"/>
      <point x="80.0" y="946.0"/>
      <point x="199.2" y="830.4"/>
    </contour>
    <contour>
      <point x="342.8" y="960.0" type="curve" smooth="yes"/>
      <point x="268.8" y="960.0"/>
      <point x="210.4" y="1018.8"/>
      <point x="210.4" y="1092.0" type="curve" smooth="yes"/>
      <point x="210.4" y="1166.0"/>
      <point x="268.8" y="1224.8"/>
      <point x="342.8" y="1224.8" type="curve" smooth="yes"/>
      <point x="416.4" y="1224.8"/>
      <point x="474.8" y="1166.0"/>
      <point x="474.8" y="1092.0" type="curve" smooth="yes"/>
      <point x="474.8" y="1018.8"/>
      <point x="416.4" y="960.0"/>
    </contour>
    <contour>
      <point x="1026.4" y="44.4" type="curve" smooth="yes"/>
      <point x="1171.2" y="44.4"/>
      <point x="1289.2" y="163.2"/>
      <point x="1289.2" y="306.8" type="curve" smooth="yes"/>
      <point x="1289.2" y="448.4"/>
      <point x="1175.2" y="570.4"/>
      <point x="1026.4" y="570.4" type="curve" smooth="yes"/>
      <point x="884.8" y="570.4"/>
      <point x="763.2" y="455.2"/>
      <point x="763.2" y="306.8" type="curve" smooth="yes"/>
      <point x="763.2" y="167.2"/>
      <point x="880.4" y="44.4"/>
    </contour>
    <contour>
      <point x="1026.4" y="174.0" type="curve" smooth="yes"/>
      <point x="952.8" y="174.0"/>
      <point x="892.8" y="234.0"/>
      <point x="892.8" y="306.8" type="curve" smooth="yes"/>
      <point x="892.8" y="380.0"/>
      <point x="952.8" y="440.0"/>
      <point x="1026.4" y="440.0" type="curve" smooth="yes"/>
      <point x="1098.8" y="440.0"/>
      <point x="1158.8" y="380.0"/>
      <point x="1158.8" y="306.8" type="curve" smooth="yes"/>
      <point x="1158.8" y="234.0"/>
      <point x="1098.8" y="174.0"/>
    </contour>
  </outline>
</glyph>
<glyph name="ampersand" format="2">
  <advance width="1422.0"/>
  <unicode hex="0026"/>
  <outline>
    <contour>
      <point x="495.2" y="-26.0" type="curve" smooth="yes"/>
      <point x="667.2" y="-26.0"/>
      <point x="720.4" y="26.4"/>
      <point x="954.4" y="260.4" type="curve"/>
      <point x="1214.8" y="0.0" type="line"/>
      <point x="1342.0" y="127.2" type="line"/>
      <point x="1080.0" y="388.4" type="line"/>
      <point x="1186.8" y="495.2" type="line"/>
      <point x="1186.8" y="748.8" type="line"/>
      <point x="954.4" y="517.2" type="line"/>
      <point x="623.2" y="848.4" type="line"/>
      <point x="752.4" y="976.8"/>
      <point x="792.4" y="1024.4"/>
      <point x="792.4" y="1139.2" type="curve" smooth="yes"/>
      <point x="792.4" y="1304.8"/>
      <point x="658.4" y="1436.4"/>
      <point x="495.2" y="1436.4" type="curve" smooth="yes"/>
      <point x="336.4" y="1436.4"/>
      <point x="200.0" y="1306.8"/>
      <point x="200.0" y="1139.2" type="curve" smooth="yes"/>
      <point x="200.0" y="1027.2"/>
      <point x="235.2" y="982.0"/>
      <point x="368.0" y="848.4" type="curve"/>
      <point x="138.0" y="618.4"/>
      <point x="80.0" y="562.0"/>
      <point x="80.0" y="390.0" type="curve" smooth="yes"/>
      <point x="80.0" y="172.0"/>
      <point x="254.0" y="-26.0"/>
    </contour>
    <contour>
      <point x="495.2" y="154.0" type="curve" smooth="yes"/>
      <point x="368.0" y="154.0"/>
      <point x="260.8" y="255.2"/>
      <point x="260.8" y="388.4" type="curve" smooth="yes"/>
      <point x="260.8" y="502.8"/>
      <point x="300.0" y="525.2"/>
      <point x="495.2" y="721.2" type="curve"/>
      <point x="827.2" y="389.2" type="line"/>
      <point x="638.8" y="199.2"/>
      <point x="612.0" y="154.0"/>
    </contour>
    <contour>
      <point x="495.2" y="952.0" type="curve"/>
      <point x="389.2" y="1058.4"/>
      <point x="360.0" y="1074.4"/>
      <point x="360.0" y="1142.0" type="curve" smooth="yes"/>
      <point x="360.0" y="1215.2"/>
      <point x="420.0" y="1278.0"/>
      <point x="495.2" y="1278.0" type="curve" smooth="yes"/>
      <point x="565.2" y="1278.0"/>
      <point x="631.2" y="1222.4"/>
      <point x="631.2" y="1142.0" type="curve" smooth="yes"/>
      <point x="631.2" y="1075.2"/>
      <point x="608.4" y="1063.2"/>
    </contour>
  </outline>
</glyph>
<glyph name="parenleft" format="2">
  <advance width="687.0"/>
  <unicode hex="0028"/>
  <outline>
    <contour>
      <point x="407.2" y="-112.0" type="curve"/>
      <point x="587.2" y="-112.0" type="line"/>
      <point x="428.0" y="63.2"/>
      <point x="306.4" y="330.4"/>
      <point x="300.0" y="644.0" type="curve" smooth="yes"/>
      <point x="306.4" y="918.0"/>
      <point x="430.0" y="1262.8"/>
      <point x="587.2" y="1400.0" type="curve"/>
      <point x="407.2" y="1400.0" type="line"/>
      <point x="227.2" y="1283.2"/>
      <point x="120.0" y="902.4"/>
      <point x="120.0" y="644.0" type="curve" smooth="yes"/>
      <point x="120.0" y="345.2"/>
      <point x="202.8" y="82.0"/>
    </contour>
  </outline>
</glyph>
<glyph name="parenright" format="2">
  <advance width="687.0"/>
  <unicode hex="0029"/>
  <outline>
    <contour>
      <point x="100.0" y="-112.0" type="curve"/>
      <point x="280.0" y="-112.0" type="line"/>
      <point x="484.4" y="82.0"/>
      <point x="567.2" y="345.2"/>
      <point x="567.2" y="644.0" type="curve" smooth="yes"/>
      <point x="567.2" y="902.4"/>
      <point x="460.0" y="1283.2"/>
      <point x="280.0" y="1400.0" type="curve"/>
      <point x="100.0" y="1400.0" type="line"/>
      <point x="257.2" y="1262.8"/>
      <point x="380.8" y="918.0"/>
      <point x="387.2" y="644.0" type="curve" smooth="yes"/>
      <point x="380.8" y="330.4"/>
      <point x="259.2" y="63.2"/>
    </contour>
  </outline>
</glyph>
<glyph name="asterisk" format="2">
  <advance width="712.0"/>
  <unicode hex="002A"/>
  <outline>
    <contour>
      <point x="224.8" y="846.0" type="line"/>
      <point x="340.8" y="1005.2" type="line"/>
      <point x="454.8" y="846.0" type="line"/>
      <point x="560.8" y="923.2" type="line"/>
      <point x="444.8" y="1080.8" type="line"/>
      <point x="632.4" y="1140.8" type="line"/>
      <point x="592.0" y="1264.8" type="line"/>
      <point x="406.4" y="1205.2" type="line"/>
      <point x="406.4" y="1400.0" type="line"/>
      <point x="276.0" y="1400.0" type="line"/>
      <point x="276.0" y="1205.2" type="line"/>
      <point x="89.2" y="1264.8" type="line"/>
      <point x="50.0" y="1140.8" type="line"/>
      <point x="234.8" y="1080.8" type="line"/>
      <point x="120.4" y="923.2" type="line"/>
    </contour>
  </outline>
</glyph>
<glyph name="plus" format="2">
  <advance width="1160.0"/>
  <unicode hex="002B"/>
  <outline>
    <contour>
      <point x="490.0" y="100.0" type="line"/>
      <point x="670.0" y="100.0" type="line"/>
      <point x="670.0" y="510.0" type="line"/>
      <point x="1080.0" y="510.0" type="line"/>
      <point x="1080.0" y="690.0" type="line"/>
      <point x="670.0" y="690.0" type="line"/>
      <point x="670.0" y="1100.0" type="line"/>
      <point x="490.0" y="1100.0" type="line"/>
      <point x="490.0" y="690.0" type="line"/>
      <point x="80.0" y="690.0" type="line"/>
      <point x="80.0" y="510.0" type="line"/>
      <point x="490.0" y="510.0" type="line"/>
    </contour>
  </outline>
</glyph>
<glyph name="comma" format="2">
  <advance width="442.0"/>
  <unicode hex="002C"/>
  <outline>
    <contour>
      <point x="80.0" y="-112.0" type="line"/>
      <point x="200.0" y="-112.0" type="line"/>
      <point x="322.0" y="226.0" type="line"/>
      <point x="142.0" y="226.0" type="line"/>
    </contour>
  </outline>
</glyph>
<glyph name="period" format="2">
  <advance width="395.0"/>
  <unicode hex="002E"/>
  <outline>
    <contour>
      <point x="177.2" y="-26.0" type="curve" smooth="yes"/>
      <point x="231.2" y="-26.0"/>
      <point x="275.2" y="16.8"/>
      <point x="275.2" y="72.0" type="curve" smooth="yes"/>
      <point x="275.2" y="125.2"/>
      <point x="231.2" y="169.2"/>
      <point x="177.2" y="169.2" type="curve" smooth="yes"/>
      <point x="122.8" y="169.2"/>
      <point x="80.0" y="125.2"/>
      <point x="80.0" y="72.0" type="curve" smooth="yes"/>
      <point x="80.0" y="16.8"/>
      <point x="122.8" y="-26.0"/>
    </contour>
  </outline>
</glyph>
<glyph name="slash" format="2">
  <advance width="745.0"/>
  <unicode hex="002F"/>
  <outline>
    <contour>
      <point x="665.2" y="1400.0" type="line"/>
      <point x="485.2" y="1400.0" type="line"/>
      <point x="80.0" y="-112.0" type="line"/>
      <point x="260.0" y="-112.0" type="line"/>
    </contour>
  </outline>
</glyph>
<glyph name="zero" format="2">
  <advance width="1198.0"/>
  <unicode hex="0030"/>
  <outline>
    <contour>
      <point x="600.4" y="-26.0" type="curve" smooth="yes"/>
      <point x="930.0" y="-26.0"/>
      <point x="1138.0" y="300.0"/>
      <point x="1138.0" y="700.0" type="curve" smooth="yes"/>
      <point x="1138.0" y="1100.8"/>
      <point x="930.0" y="1426.0"/>
      <point x="600.4" y="1426.0" type="curve" smooth="yes"/>
      <point x="269.2" y="1426.0"/>
      <point x="60.0" y="1100.8"/>
      <point x="60.0" y="700.0" type="curve" smooth="yes"/>
      <point x="60.0" y="300.0"/>
      <point x="269.2" y="-26.0"/>
    </contour>
    <contour>
      <point x="600.4" y="154.0" type="curve" smooth="yes"/>
      <point x="356.4" y="154.0"/>
      <point x="230.4" y="408.0"/>
      <point x="230.4" y="700.0" type="curve" smooth="yes"/>
      <point x="230.4" y="988.4"/>
      <point x="350.4" y="1246.0"/>
      <point x="600.4" y="1246.0" type="curve" smooth="yes"/>
      <point x="838.4" y="1246.0"/>
      <point x="968.4" y="1006.0"/>
      <point x="968.4" y="700.0" type="curve" smooth="yes"/>
      <point x="968.4" y="409.2"/>
      <point x="844.8" y="154.0"/>
    </contour>
  </outline>
</glyph>
<glyph name="one" format="2">
  <advance width="580.0"/>
  <unicode hex="0031"/>
  <outline>
    <contour>
      <point x="240.4" y="0.0" type="line"/>
      <point x="420.4" y="0.0" type="line"/>
      <point x="420.4" y="1400.0" type="line"/>
      <point x="130.4" y="1400.0" type="line"/>
      <point x="80.0" y="1220.0" type="line"/>
      <point x="240.4" y="1220.0" type="line"/>
    </contour>
  </outline>
</glyph>
<glyph name="two" format="2">
  <advance width="1110.0"/>
  <unicode hex="0032"/>
  <outline>
    <contour>
      <point x="80.0" y="0.0" type="line"/>
      <point x="990.4" y="0.0" type="line"/>
      <point x="990.4" y="180.0" type="line"/>
      <point x="404.8" y="180.0" type="line"/>
      <point x="676.8" y="436.8"/>
      <point x="974.4" y="749.2"/>
      <point x="974.4" y="983.2" type="curve" smooth="yes"/>
      <point x="974.4" y="1228.4"/>
      <point x="776.4" y="1426.0"/>
      <point x="534.4" y="1426.0" type="curve" smooth="yes"/>
      <point x="293.2" y="1426.0"/>
      <point x="92.4" y="1231.2"/>
      <point x="92.4" y="983.2" type="curve"/>
      <point x="272.4" y="983.2" type="line"/>
      <point x="272.4" y="1126.8"/>
      <point x="390.0" y="1246.0"/>
      <point x="534.4" y="1246.0" type="curve" smooth="yes"/>
      <point x="678.0" y="1246.0"/>
      <point x="794.4" y="1126.8"/>
      <point x="794.4" y="983.2" type="curve" smooth="yes"/>
      <point x="794.4" y="776.8"/>
      <point x="333.2" y="378.4"/>
      <point x="80.0" y="160.0" type="curve"/>
    </contour>
  </outline>
</glyph>
<glyph name="three" format="2">
  <advance width="998.0"/>
  <unicode hex="0033"/>
  <outline>
    <contour>
      <point x="498.8" y="-26.0" type="curve" smooth="yes"/>
      <point x="735.2" y="-26.0"/>
      <point x="938.4" y="166.8"/>
      <point x="938.4" y="403.2" type="curve" smooth="yes"/>
      <point x="938.4" y="551.2"/>
      <point x="862.8" y="691.2"/>
      <point x="720.4" y="740.8" type="curve"/>
      <point x="830.0" y="785.2"/>
      <point x="897.2" y="904.4"/>
      <point x="897.2" y="1031.2" type="curve" smooth="yes"/>
      <point x="897.2" y="1250.4"/>
      <point x="706.0" y="1427.2"/>
      <point x="490.4" y="1427.2" type="curve" smooth="yes"/>
      <point x="270.8" y="1427.2"/>
      <point x="72.8" y="1249.2"/>
      <point x="72.8" y="1031.2" type="curve"/>
      <point x="252.8" y="1031.2" type="line"/>
      <point x="252.8" y="1148.8"/>
      <point x="372.4" y="1247.2"/>
      <point x="492.0" y="1247.2" type="curve" smooth="yes"/>
      <point x="610.4" y="1247.2"/>
      <point x="717.2" y="1148.8"/>
      <point x="717.2" y="1031.2" type="curve" smooth="yes"/>
      <point x="717.2" y="883.2"/>
      <point x="596.0" y="806.0"/>
      <point x="410.8" y="806.0" type="curve"/>
      <point x="410.8" y="662.0" type="line"/>
      <point x="614.4" y="662.0"/>
      <point x="758.4" y="576.4"/>
      <point x="758.4" y="403.2" type="curve" smooth="yes"/>
      <point x="758.4" y="266.4"/>
      <point x="634.8" y="154.0"/>
      <point x="498.8" y="154.0" type="curve" smooth="yes"/>
      <point x="342.0" y="154.0"/>
      <point x="240.0" y="266.4"/>
      <point x="240.0" y="403.2" type="curve"/>
      <point x="60.0" y="403.2" type="line"/>
      <point x="60.0" y="166.4"/>
      <point x="244.4" y="-26.0"/>
    </contour>
  </outline>
</glyph>
<glyph name="four" format="2">
  <advance width="1117.0"/>
  <unicode hex="0034"/>
  <outline>
    <contour>
      <point x="680.8" y="0.0" type="line"/>
      <point x="860.8" y="0.0" type="line"/>
      <point x="860.8" y="372.4" type="line"/>
      <point x="997.2" y="372.4" type="line"/>
      <point x="997.2" y="552.4" type="line"/>
      <point x="860.8" y="552.4" type="line"/>
      <point x="860.8" y="1400.0" type="line"/>
      <point x="636.8" y="1400.0" type="line"/>
      <point x="80.0" y="554.0" type="line"/>
      <point x="80.0" y="372.4" type="line"/>
      <point x="680.8" y="372.4" type="line"/>
    </contour>
    <contour>
      <point x="290.8" y="554.0" type="line"/>
      <point x="679.2" y="1148.8" type="line"/>
      <point x="680.8" y="552.4" type="line"/>
    </contour>
  </outline>
</glyph>
<glyph name="five" format="2">
  <advance width="1123.0"/>
  <unicode hex="0035"/>
  <outline>
    <contour>
      <point x="537.2" y="-26.0" type="curve" smooth="yes"/>
      <point x="794.0" y="-26.0"/>
      <point x="1003.2" y="184.0"/>
      <point x="1003.2" y="440.0" type="curve" smooth="yes"/>
      <point x="1003.2" y="707.2"/>
      <point x="804.8" y="902.0"/>
      <point x="520.0" y="908.4" type="curve"/>
      <point x="382.4" y="908.8" type="line"/>
      <point x="444.4" y="1220.0" type="line"/>
      <point x="966.4" y="1220.0" type="line"/>
      <point x="966.4" y="1400.0" type="line"/>
      <point x="298.0" y="1400.0" type="line"/>
      <point x="160.4" y="728.8" type="line"/>
      <point x="508.0" y="728.8" type="line" smooth="yes"/>
      <point x="712.8" y="728.8"/>
      <point x="823.2" y="598.0"/>
      <point x="823.2" y="440.0" type="curve" smooth="yes"/>
      <point x="823.2" y="282.0"/>
      <point x="694.0" y="154.0"/>
      <point x="537.2" y="154.0" type="curve" smooth="yes"/>
      <point x="378.4" y="154.0"/>
      <point x="250.0" y="282.0"/>
      <point x="250.0" y="440.0" type="curve"/>
      <point x="70.0" y="440.0" type="line"/>
      <point x="70.0" y="186.4"/>
      <point x="275.2" y="-26.0"/>
    </contour>
  </outline>
</glyph>
<glyph name="six" format="2">
  <advance width="1085.0"/>
  <unicode hex="0036"/>
  <outline>
    <contour>
      <point x="536.0" y="-26.0" type="curve" smooth="yes"/>
      <point x="806.0" y="-26.0"/>
      <point x="1025.2" y="194.4"/>
      <point x="1025.2" y="462.0" type="curve" smooth="yes"/>
      <point x="1025.2" y="774.8"/>
      <point x="727.2" y="993.2"/>
      <point x="444.4" y="915.2" type="curve"/>
      <point x="724.4" y="1400.0" type="line"/>
      <point x="514.8" y="1400.0" type="line"/>
      <point x="120.0" y="714.4" type="line" smooth="yes"/>
      <point x="73.2" y="628.4"/>
      <point x="50.0" y="560.0"/>
      <point x="50.0" y="462.0" type="curve" smooth="yes"/>
      <point x="50.0" y="193.2"/>
      <point x="270.4" y="-26.0"/>
    </contour>
    <contour>
      <point x="536.0" y="154.0" type="curve" smooth="yes"/>
      <point x="374.0" y="154.0"/>
      <point x="230.0" y="286.8"/>
      <point x="230.0" y="462.4" type="curve" smooth="yes"/>
      <point x="230.0" y="624.0"/>
      <point x="360.4" y="769.2"/>
      <point x="538.0" y="769.2" type="curve" smooth="yes"/>
      <point x="708.8" y="769.2"/>
      <point x="845.2" y="630.8"/>
      <point x="845.2" y="462.4" type="curve" smooth="yes"/>
      <point x="845.2" y="302.4"/>
      <point x="715.2" y="154.0"/>
    </contour>
  </outline>
</glyph>
<glyph name="seven" format="2">
  <advance width="1081.0"/>
  <unicode hex="0037"/>
  <outline>
    <contour>
      <point x="129.2" y="0.0" type="line"/>
      <point x="336.0" y="0.0" type="line"/>
      <point x="1040.8" y="1220.0" type="line"/>
      <point x="1040.8" y="1400.0" type="line"/>
      <point x="40.0" y="1400.0" type="line"/>
      <point x="40.0" y="1220.0" type="line"/>
      <point x="832.0" y="1220.0" type="line"/>
    </contour>
  </outline>
</glyph>
<glyph name="eight" format="2">
  <advance width="1067.0"/>
  <unicode hex="0038"/>
  <outline>
    <contour>
      <point x="533.2" y="-26.0" type="curve" smooth="yes"/>
      <point x="784.4" y="-26.0"/>
      <point x="986.8" y="164.0"/>
      <point x="986.8" y="398.0" type="curve" smooth="yes"/>
      <point x="986.8" y="538.8"/>
      <point x="908.0" y="664.8"/>
      <point x="787.2" y="736.8" type="curve"/>
      <point x="885.2" y="802.0"/>
      <point x="952.8" y="910.8"/>
      <point x="952.8" y="1034.0" type="curve" smooth="yes"/>
      <point x="952.8" y="1250.4"/>
      <point x="764.0" y="1426.0"/>
      <point x="533.2" y="1426.0" type="curve" smooth="yes"/>
      <point x="302.4" y="1426.0"/>
      <point x="112.8" y="1250.4"/>
      <point x="112.8" y="1034.0" type="curve" smooth="yes"/>
      <point x="112.8" y="910.8"/>
      <point x="181.2" y="802.0"/>
      <point x="279.2" y="736.8" type="curve"/>
      <point x="160.4" y="664.8"/>
      <point x="80.0" y="538.8"/>
      <point x="80.0" y="398.0" type="curve" smooth="yes"/>
      <point x="80.0" y="162.8"/>
      <point x="282.0" y="-26.0"/>
    </contour>
    <contour>
      <point x="533.2" y="154.0" type="curve" smooth="yes"/>
      <point x="389.2" y="154.0"/>
      <point x="270.0" y="262.8"/>
      <point x="270.0" y="398.0" type="curve" smooth="yes"/>
      <point x="270.0" y="533.2"/>
      <point x="389.2" y="642.0"/>
      <point x="533.2" y="642.0" type="curve" smooth="yes"/>
      <point x="678.8" y="642.0"/>
      <point x="796.4" y="533.2"/>
      <point x="796.4" y="398.0" type="curve" smooth="yes"/>
      <point x="796.4" y="262.8"/>
      <point x="678.8" y="154.0"/>
    </contour>
    <contour>
      <point x="533.2" y="822.0" type="curve" smooth="yes"/>
      <point x="406.0" y="822.0"/>
      <point x="304.0" y="917.2"/>
      <point x="304.0" y="1034.0" type="curve" smooth="yes"/>
      <point x="304.0" y="1150.8"/>
      <point x="406.0" y="1246.0"/>
      <point x="533.2" y="1246.0" type="curve" smooth="yes"/>
      <point x="660.4" y="1246.0"/>
      <point x="762.4" y="1150.8"/>
      <point x="762.4" y="1034.0" type="curve" smooth="yes"/>
      <point x="762.4" y="917.2"/>
      <point x="660.4" y="822.0"/>
    </contour>
  </outline>
</glyph>
<glyph name="nine" format="2">
  <advance width="1070.0"/>
  <unicode hex="0039"/>
  <outline>
    <contour>
      <point x="328.0" y="0.0" type="line"/>
      <point x="536.0" y="0.0" type="line"/>
      <point x="941.2" y="704.8" type="line" smooth="yes"/>
      <point x="987.2" y="789.2"/>
      <point x="1010.4" y="855.2"/>
      <point x="1010.4" y="950.0" type="curve" smooth="yes"/>
      <point x="1010.4" y="1212.4"/>
      <point x="794.8" y="1426.0"/>
      <point x="536.4" y="1426.0" type="curve" smooth="yes"/>
      <point x="272.8" y="1426.0"/>
      <point x="60.0" y="1211.2"/>
      <point x="60.0" y="950.0" type="curve" smooth="yes"/>
      <point x="60.0" y="646.8"/>
      <point x="346.8" y="434.8"/>
      <point x="622.4" y="508.0" type="curve"/>
    </contour>
    <contour>
      <point x="534.4" y="654.0" type="curve" smooth="yes"/>
      <point x="369.2" y="654.0"/>
      <point x="238.4" y="786.8"/>
      <point x="238.4" y="950.4" type="curve" smooth="yes"/>
      <point x="238.4" y="1104.8"/>
      <point x="362.8" y="1246.8"/>
      <point x="536.4" y="1246.8" type="curve" smooth="yes"/>
      <point x="692.0" y="1246.8"/>
      <point x="831.2" y="1118.8"/>
      <point x="831.2" y="950.4" type="curve" smooth="yes"/>
      <point x="831.2" y="794.4"/>
      <point x="706.4" y="654.0"/>
    </contour>
  </outline>
</glyph>
<glyph name="colon" format="2">
  <advance width="395.0"/>
  <unicode hex="003A"/>
  <outline>
    <contour>
      <point x="177.2" y="804.8" type="curve" smooth="yes"/>
      <point x="231.2" y="804.8"/>
      <point x="275.2" y="848.4"/>
      <point x="275.2" y="902.8" type="curve" smooth="yes"/>
      <point x="275.2" y="956.0"/>
      <point x="231.2" y="1000.0"/>
      <point x="177.2" y="1000.0" type="curve" smooth="yes"/>
      <point x="122.8" y="1000.0"/>
      <point x="80.0" y="956.0"/>
      <point x="80.0" y="902.8" type="curve" smooth="yes"/>
      <point x="80.0" y="848.4"/>
      <point x="122.8" y="804.8"/>
    </contour>
    <contour>
      <point x="177.2" y="-26.0" type="curve" smooth="yes"/>
      <point x="231.2" y="-26.0"/>
      <point x="275.2" y="16.8"/>
      <point x="275.2" y="72.0" type="curve" smooth="yes"/>
      <point x="275.2" y="125.2"/>
      <point x="231.2" y="169.2"/>
      <point x="177.2" y="169.2" type="curve" smooth="yes"/>
      <point x="122.8" y="169.2"/>
      <point x="80.0" y="125.2"/>
      <point x="80.0" y="72.0" type="curve" smooth="yes"/>
      <point x="80.0" y="16.8"/>
      <point x="122.8" y="-26.0"/>
    </contour>
  </outline>
</glyph>
<glyph name="semicolon" format="2">
  <advance width="448.0"/>
  <unicode hex="003B"/>
  <outline>
    <contour>
      <point x="80.0" y="-112.0" type="line"/>
      <point x="200.0" y="-112.0" type="line"/>
      <point x="322.0" y="226.0" type="line"/>
      <point x="142.0" y="226.0" type="line"/>
    </contour>
    <contour>
      <point x="231.2" y="804.8" type="curve" smooth="yes"/>
      <point x="284.4" y="804.8"/>
      <point x="328.4" y="848.4"/>
      <point x="328.4" y="902.0" type="curve" smooth="yes"/>
      <point x="328.4" y="956.0"/>
      <point x="284.4" y="1000.0"/>
      <point x="231.2" y="1000.0" type="curve" smooth="yes"/>
      <point x="176.0" y="1000.0"/>
      <point x="133.2" y="956.0"/>
      <point x="133.2" y="902.0" type="curve" smooth="yes"/>
      <point x="133.2" y="848.4"/>
      <point x="176.0" y="804.8"/>
    </contour>
  </outline>
</glyph>
<glyph name="less" format="2">
  <advance width="1160.0"/>
  <unicode hex="003C"/>
  <outline>
    <contour>
      <point x="1080.0" y="166.4" type="line"/>
      <point x="1080.0" y="352.8" type="line"/>
      <point x="214.0" y="600.0" type="line"/>
      <point x="1080.0" y="846.4" type="line"/>
      <point x="1080.0" y="1034.4" type="line"/>
      <point x="80.0" y="748.4" type="line"/>
      <point x="80.0" y="450.4" type="line"/>
    </contour>
  </outline>
</glyph>
<glyph name="equal" format="2">
  <advance width="1160.0"/>
  <unicode hex="003D"/>
  <outline>
    <contour>
      <point x="80.0" y="303.2" type="line"/>
      <point x="1080.0" y="303.2" type="line"/>
      <point x="1080.0" y="483.2" type="line"/>
      <point x="80.0" y="483.2" type="line"/>
    </contour>
    <contour>
      <point x="80.0" y="716.8" type="line"/>
      <point x="1080.0" y="716.8" type="line"/>
      <point x="1080.0" y="896.8" type="line"/>
      <point x="80.0" y="896.8" type="line"/>
    </contour>
  </outline>
</glyph>
<glyph name="greater" format="2">
  <advance width="1160.0"/>
  <unicode hex="003E"/>
  <outline>
    <contour>
      <point x="80.0" y="172.0" type="line"/>
      <point x="1080.0" y="450.4" type="line"/>
      <point x="1080.0" y="748.4" type="line"/>
      <point x="80.0" y="1028.0" type="line"/>
      <point x="80.0" y="840.0" type="line"/>
      <point x="946.0" y="600.0" type="line"/>
      <point x="80.0" y="359.2" type="line"/>
    </contour>
  </outline>
</glyph>
<glyph name="question" format="2">
  <advance width="1043.0"/>
  <unicode hex="003F"/>
  <outline>
    <contour>
      <point x="425.2" y="460.8" type="curve"/>
      <point x="605.2" y="460.8" type="line"/>
      <point x="605.2" y="534.2"/>
      <point x="643.2" y="598.2"/>
      <point x="707.2" y="632.4" type="curve" smooth="yes"/>
      <point x="841.2" y="704.0"/>
      <point x="923.2" y="847.2"/>
      <point x="923.2" y="1006.0" type="curve" smooth="yes"/>
      <point x="923.2" y="1238.0"/>
      <point x="734.4" y="1426.8"/>
      <point x="501.2" y="1426.8" type="curve" smooth="yes"/>
      <point x="268.8" y="1426.8"/>
      <point x="80.0" y="1238.0"/>
      <point x="80.0" y="1006.0" type="curve"/>
      <point x="260.0" y="1006.0" type="line"/>
      <point x="260.0" y="1140.4"/>
      <point x="368.4" y="1246.8"/>
      <point x="501.2" y="1246.8" type="curve" smooth="yes"/>
      <point x="634.0" y="1246.8"/>
      <point x="743.2" y="1140.4"/>
      <point x="743.2" y="1006.0" type="curve" smooth="yes"/>
      <point x="743.2" y="913.2"/>
      <point x="697.2" y="831.2"/>
      <point x="622.0" y="790.8" type="curve" smooth="yes"/>
      <point x="499.2" y="724.2"/>
      <point x="425.2" y="600.2"/>
    </contour>
    <contour>
      <point x="516.0" y="-26.0" type="curve" smooth="yes"/>
      <point x="570.0" y="-26.0"/>
      <point x="612.8" y="18.4"/>
      <point x="612.8" y="73.2" type="curve" smooth="yes"/>
      <point x="612.8" y="126.4"/>
      <point x="570.0" y="169.2"/>
      <point x="516.0" y="169.2" type="curve" smooth="yes"/>
      <point x="462.4" y="169.2"/>
      <point x="418.8" y="126.4"/>
      <point x="418.8" y="73.2" type="curve" smooth="yes"/>
      <point x="418.8" y="18.4"/>
      <point x="462.4" y="-26.0"/>
    </contour>
  </outline>
</glyph>
<glyph name="at" format="2">
  <advance width="1770.5"/>
  <unicode hex="0040"/>
  <outline>
    <contour>
      <point x="885.8" y="-210.8" type="curve"/>
      <point x="885.8" y="-30.799999999999997" type="line"/>
      <point x="539.8" y="-30.799999999999997"/>
      <point x="260.0" y="205.0"/>
      <point x="260.0" y="550.8" type="curve" smooth="yes"/>
      <point x="260.0" y="897.6"/>
      <point x="542.2" y="1176.0"/>
      <point x="885.8" y="1176.0" type="curve" smooth="yes"/>
      <point x="1228.2" y="1176.0"/>
      <point x="1510.8" y="897.0"/>
      <point x="1510.8" y="550.8" type="curve" smooth="yes"/>
      <point x="1510.8" y="423.4"/>
      <point x="1464.4" y="248.8"/>
      <point x="1356.4" y="248.8" type="curve" smooth="yes"/>
      <point x="1299.0" y="248.8"/>
      <point x="1249.8" y="290.2"/>
      <point x="1249.8" y="349.2" type="curve" smooth="yes"/>
      <point x="1249.8" y="902.6" type="line"/>
      <point x="1109.8" y="927.8" type="line"/>
      <point x="1109.8" y="837.8" type="line"/>
      <point x="1058.2" y="905.2"/>
      <point x="959.4" y="948.0"/>
      <point x="858.2" y="948.0" type="curve" smooth="yes"/>
      <point x="639.2" y="948.0"/>
      <point x="461.2" y="770.0"/>
      <point x="461.2" y="550.8" type="curve" smooth="yes"/>
      <point x="461.2" y="331.0"/>
      <point x="639.2" y="152.8"/>
      <point x="858.2" y="152.8" type="curve" smooth="yes"/>
      <point x="963.8" y="152.8"/>
      <point x="1047.6" y="198.2"/>
      <point x="1101.8" y="269.8" type="curve"/>
      <point x="1115.2" y="157.4"/>
      <point x="1247.8" y="68.8"/>
      <point x="1366.0" y="68.8" type="curve" smooth="yes"/>
      <point x="1573.0" y="68.8"/>
      <point x="1690.8" y="318.2"/>
      <point x="1690.8" y="550.8" type="curve" smooth="yes"/>
      <point x="1690.8" y="992.2"/>
      <point x="1334.0" y="1356.0"/>
      <point x="885.8" y="1356.0" type="curve" smooth="yes"/>
      <point x="440.6" y="1356.0"/>
      <point x="80.0" y="995.4"/>
      <point x="80.0" y="550.8" type="curve" smooth="yes"/>
      <point x="80.0" y="106.2"/>
      <point x="440.4" y="-210.8"/>
    </contour>
    <contour>
      <point x="871.4" y="291.8" type="curve" smooth="yes"/>
      <point x="731.0" y="291.8"/>
      <point x="613.2" y="406.4"/>
      <point x="613.2" y="550.8" type="curve" smooth="yes"/>
      <point x="613.2" y="694.0"/>
      <point x="727.8" y="808.2"/>
      <point x="871.4" y="808.2" type="curve" smooth="yes"/>
      <point x="1021.4" y="808.2"/>
      <point x="1107.2" y="690.8"/>
      <point x="1107.2" y="559.6" type="curve" smooth="yes"/>
      <point x="1107.2" y="423.2"/>
      <point x="1014.2" y="291.8"/>
    </contour>
  </outline>
</glyph>
<glyph name="A" format="2">
  <advance width="1393.0"/>
  <unicode hex="0041"/>
  <outline>
    <contour>
      <point x="588.8" y="1400.0" type="line"/>
      <point x="80.0" y="0.0" type="line"/>
      <point x="270.8" y="0.0" type="line"/>
      <point x="373.2" y="280.0" type="line"/>
      <point x="1020.0" y="280.0" type="line"/>
      <point x="1122.4" y="0.0" type="line"/>
      <point x="1313.2" y="0.0" type="line"/>
      <point x="804.4" y="1400.0" type="line"/>
    </contour>
    <contour>
      <point x="439.2" y="460.0" type="line"/>
      <point x="696.0" y="1167.2" type="line"/>
      <point x="954.0" y="460.0" type="line"/>
    </contour>
  </outline>
</glyph>
<glyph name="B" format="2">
  <advance width="1138.0"/>
  <unicode hex="0042"/>
  <outline>
    <contour>
      <point x="120.0" y="0.0" type="line"/>
      <point x="667.2" y="0.0" type="line" smooth="yes"/>
      <point x="882.4" y="0.0"/>
      <point x="1058.0" y="161.2"/>
      <point x="1058.0" y="392.4" type="curve" smooth="yes"/>
      <point x="1058.0" y="536.4"/>
      <point x="1000.0" y="725.8"/>
      <point x="830.8" y="770.6" type="curve"/>
      <point x="921.2" y="800.2"/>
      <point x="986.4" y="918.8"/>
      <point x="986.4" y="1037.2" type="curve" smooth="yes"/>
      <point x="986.4" y="1264.8"/>
      <point x="818.4" y="1399.2"/>
      <point x="606.8" y="1399.2" type="curve" smooth="yes"/>
      <point x="120.0" y="1399.2" type="line"/>
    </contour>
    <contour>
      <point x="300.0" y="157.2" type="line"/>
      <point x="300.0" y="682.6" type="line"/>
      <point x="651.2" y="682.6" type="line" smooth="yes"/>
      <point x="786.4" y="682.6"/>
      <point x="895.2" y="556.8"/>
      <point x="895.2" y="423.2" type="curve" smooth="yes"/>
      <point x="895.2" y="270.0"/>
      <point x="786.4" y="157.2"/>
      <point x="651.2" y="157.2" type="curve" smooth="yes"/>
    </contour>
    <contour>
      <point x="300.0" y="837.4" type="line"/>
      <point x="300.0" y="1240.8" type="line"/>
      <point x="589.2" y="1240.8" type="line" smooth="yes"/>
      <point x="708.4" y="1240.8"/>
      <point x="806.4" y="1174.0"/>
      <point x="806.4" y="1038.4" type="curve" smooth="yes"/>
      <point x="806.4" y="912.4"/>
      <point x="708.4" y="837.4"/>
      <point x="589.2" y="837.4" type="curve" smooth="yes"/>
    </contour>
  </outline>
</glyph>
<glyph name="C" format="2">
  <advance width="1398.0"/>
  <unicode hex="0043"/>
  <outline>
    <contour>
      <point x="748.0" y="-26.0" type="curve"/>
      <point x="974.0" y="-26.0"/>
      <point x="1172.0" y="87.2"/>
      <point x="1298.0" y="262.0" type="curve"/>
      <point x="1138.0" y="348.8" type="line"/>
      <point x="1048.0" y="232.4"/>
      <point x="906.4" y="154.0"/>
      <point x="748.0" y="154.0" type="curve"/>
      <point x="468.4" y="154.0"/>
      <point x="240.0" y="398.8"/>
      <point x="240.0" y="700.0" type="curve"/>
      <point x="240.0" y="996.8"/>
      <point x="465.2" y="1246.0"/>
      <point x="748.0" y="1246.0" type="curve"/>
      <point x="900.8" y="1246.0"/>
      <point x="1046.4" y="1170.0"/>
      <point x="1138.0" y="1050.8" type="curve"/>
      <point x="1298.0" y="1137.2" type="line"/>
      <point x="1172.0" y="1312.0"/>
      <point x="974.0" y="1426.0"/>
      <point x="748.0" y="1426.0" type="curve"/>
      <point x="368.0" y="1426.0"/>
      <point x="60.0" y="1101.2"/>
      <point x="60.0" y="700.0" type="curve"/>
      <point x="60.0" y="299.2"/>
      <point x="368.0" y="-26.0"/>
    </contour>
  </outline>
</glyph>
<glyph name="D" format="2">
  <advance width="1343.0"/>
  <unicode hex="0044"/>
  <outline>
    <contour>
      <point x="120.0" y="0.0" type="line"/>
      <point x="583.2" y="0.0" type="line" smooth="yes"/>
      <point x="970.0" y="0.0"/>
      <point x="1283.2" y="314.0"/>
      <point x="1283.2" y="700.0" type="curve" smooth="yes"/>
      <point x="1283.2" y="1086.0"/>
      <point x="970.0" y="1400.0"/>
      <point x="583.2" y="1400.0" type="curve" smooth="yes"/>
      <point x="120.0" y="1400.0" type="line"/>
    </contour>
    <contour>
      <point x="300.0" y="180.0" type="line"/>
      <point x="300.0" y="1220.0" type="line"/>
      <point x="583.2" y="1220.0" type="line" smooth="yes"/>
      <point x="869.2" y="1220.0"/>
      <point x="1103.2" y="987.2"/>
      <point x="1103.2" y="700.0" type="curve" smooth="yes"/>
      <point x="1103.2" y="412.4"/>
      <point x="868.8" y="180.0"/>
      <point x="583.2" y="180.0" type="curve" smooth="yes"/>
    </contour>
  </outline>
</glyph>
<glyph name="E" format="2">
  <advance width="1082.0"/>
  <unicode hex="0045"/>
  <outline>
    <contour>
      <point x="120.0" y="0.0" type="line"/>
      <point x="982.4" y="0.0" type="line"/>
      <point x="982.4" y="180.0" type="line"/>
      <point x="300.0" y="180.0" type="line"/>
      <point x="300.0" y="660.0" type="line"/>
      <point x="856.0" y="660.0" type="line"/>
      <point x="856.0" y="840.0" type="line"/>
      <point x="300.0" y="840.0" type="line"/>
      <point x="300.0" y="1220.0" type="line"/>
      <point x="982.4" y="1220.0" type="line"/>
      <point x="982.4" y="1400.0" type="line"/>
      <point x="120.0" y="1400.0" type="line"/>
    </contour>
  </outline>
</glyph>
<glyph name="F" format="2">
  <advance width="962.0"/>
  <unicode hex="0046"/>
  <outline>
    <contour>
      <point x="120.0" y="0.0" type="line"/>
      <point x="300.0" y="0.0" type="line"/>
      <point x="300.0" y="660.0" type="line"/>
      <point x="846.4" y="660.0" type="line"/>
      <point x="846.4" y="840.0" type="line"/>
      <point x="300.0" y="840.0" type="line"/>
      <point x="300.0" y="1220.0" type="line"/>
      <point x="942.4" y="1220.0" type="line"/>
      <point x="942.4" y="1400.0" type="line"/>
      <point x="120.0" y="1400.0" type="line"/>
    </contour>
  </outline>
</glyph>
<glyph name="G" format="2">
  <advance width="1496.5"/>
  <unicode hex="0047"/>
  <outline>
    <contour>
      <point x="748.8" y="-26.0" type="curve" smooth="yes"/>
      <point x="1127.2" y="-26.0"/>
      <point x="1434.4" y="297.2"/>
      <point x="1436.0" y="691.2" type="curve"/>
      <point x="894.8" y="691.2" type="line"/>
      <point x="894.8" y="531.2" type="line"/>
      <point x="1225.2" y="531.2" type="line"/>
      <point x="1160.8" y="310.0"/>
      <point x="969.2" y="154.0"/>
      <point x="751.2" y="154.0" type="curve" smooth="yes"/>
      <point x="468.8" y="154.0"/>
      <point x="240.0" y="398.4"/>
      <point x="240.0" y="698.4" type="curve" smooth="yes"/>
      <point x="240.0" y="1004.8"/>
      <point x="474.0" y="1246.0"/>
      <point x="750.0" y="1246.0" type="curve" smooth="yes"/>
      <point x="894.4" y="1246.0"/>
      <point x="1036.8" y="1178.4"/>
      <point x="1138.0" y="1050.4" type="curve"/>
      <point x="1298.8" y="1136.8" type="line"/>
      <point x="1160.4" y="1325.2"/>
      <point x="960.8" y="1424.8"/>
      <point x="752.4" y="1424.8" type="curve" smooth="yes"/>
      <point x="382.8" y="1424.8"/>
      <point x="60.0" y="1114.8"/>
      <point x="60.0" y="701.2" type="curve" smooth="yes"/>
      <point x="60.0" y="302.4"/>
      <point x="362.4" y="-26.0"/>
    </contour>
  </outline>
</glyph>
<glyph name="H" format="2">
  <advance width="1275.0"/>
  <unicode hex="0048"/>
  <outline>
    <contour>
      <point x="975.2" y="1400.0" type="line"/>
      <point x="975.2" y="840.0" type="line"/>
      <point x="300.0" y="840.0" type="line"/>
      <point x="300.0" y="1400.0" type="line"/>
      <point x="120.0" y="1400.0" type="line"/>
      <point x="120.0" y="0.0" type="line"/>
      <point x="300.0" y="0.0" type="line"/>
      <point x="300.0" y="660.0" type="line"/>
      <point x="975.2" y="660.0" type="line"/>
      <point x="975.2" y="0.0" type="line"/>
      <point x="1155.2" y="0.0" type="line"/>
      <point x="1155.2" y="1400.0" type="line"/>
    </contour>
  </outline>
</glyph>
<glyph name="J" format="2">
  <advance width="836.0"/>
  <unicode hex="004A"/>
  <outline>
    <contour>
      <point x="302.8" y="-26.0" type="curve" smooth="yes"/>
      <point x="530.8" y="-26.0"/>
      <point x="716.4" y="169.2"/>
      <point x="716.4" y="396.4" type="curve" smooth="yes"/>
      <point x="716.4" y="1400.0" type="line"/>
      <point x="536.4" y="1400.0" type="line"/>
      <point x="536.4" y="396.4" type="line" smooth="yes"/>
      <point x="536.4" y="268.0"/>
      <point x="431.2" y="154.0"/>
      <point x="302.8" y="154.0" type="curve" smooth="yes"/>
      <point x="242.8" y="154.0"/>
      <point x="192.4" y="176.8"/>
      <point x="155.2" y="208.4" type="curve"/>
      <point x="40.0" y="70.4" type="line"/>
      <point x="112.8" y="7.2"/>
      <point x="207.2" y="-26.0"/>
    </contour>
  </outline>
</glyph>
<glyph name="K" format="2">
  <advance width="1107.0"/>
  <unicode hex="004B"/>
  <outline>
    <contour>
      <point x="1066.8" y="0.0" type="line"/>
      <point x="516.8" y="739.2" type="line"/>
      <point x="1072.4" y="1400.0" type="line"/>
      <point x="837.2" y="1400.0" type="line"/>
      <point x="300.0" y="759.2" type="line"/>
      <point x="300.0" y="1400.0" type="line"/>
      <point x="120.0" y="1400.0" type="line"/>
      <point x="120.0" y="0.0" type="line"/>
      <point x="300.0" y="0.0" type="line"/>
      <point x="300.0" y="478.8" type="line"/>
      <point x="399.2" y="598.0" type="line"/>
      <point x="833.2" y="0.0" type="line"/>
    </contour>
  </outline>
</glyph>
<glyph name="L" format="2">
  <advance width="1020.0"/>
  <unicode hex="004C"/>
  <outline>
    <contour>
      <point x="120.0" y="0.0" type="line"/>
      <point x="920.4" y="0.0" type="line"/>
      <point x="920.4" y="180.0" type="line"/>
      <point x="300.0" y="180.0" type="line"/>
      <point x="300.0" y="1400.0" type="line"/>
      <point x="120.0" y="1400.0" type="line"/>
    </contour>
  </outline>
</glyph>
<glyph name="M" format="2">
  <advance width="1808.0"/>
  <unicode hex="004D"/>
  <outline>
    <contour>
      <point x="120.0" y="0.0" type="line"/>
      <point x="302.8" y="0.0" type="line"/>
      <point x="495.2" y="992.0" type="line"/>
      <point x="844.4" y="68.8" type="line"/>
      <point x="962.8" y="68.8" type="line"/>
      <point x="1312.0" y="992.0" type="line"/>
      <point x="1504.4" y="0.0" type="line"/>
      <point x="1688.0" y="0.0" type="line"/>
      <point x="1416.0" y="1400.0" type="line"/>
      <point x="1275.2" y="1400.0" type="line"/>
      <point x="904.4" y="421.2" type="line"/>
      <point x="532.0" y="1400.0" type="line"/>
      <point x="391.2" y="1400.0" type="line"/>
    </contour>
  </outline>
</glyph>
<glyph name="N" format="2">
  <advance width="1327.0"/>
  <unicode hex="004E"/>
  <outline>
    <contour>
      <point x="135.2" y="0.0" type="line"/>
      <point x="315.2" y="0.0" type="line"/>
      <point x="315.2" y="1074.8" type="line"/>
      <point x="998.4" y="0.0" type="line"/>
      <point x="1192.0" y="0.0" type="line"/>
      <point x="1192.0" y="1400.0" type="line"/>
      <point x="1012.0" y="1400.0" type="line"/>
      <point x="1012.0" y="325.2" type="line"/>
      <point x="330.4" y="1400.0" type="line"/>
      <point x="135.2" y="1400.0" type="line"/>
    </contour>
  </outline>
</glyph>
<glyph name="O" format="2">
  <advance width="1540.0"/>
  <unicode hex="004F"/>
  <outline>
    <contour>
      <point x="770.0" y="-26.0" type="curve" smooth="yes"/>
      <point x="1150.0" y="-26.0"/>
      <point x="1460.0" y="300.0"/>
      <point x="1460.0" y="700.0" type="curve" smooth="yes"/>
      <point x="1460.0" y="1100.0"/>
      <point x="1150.0" y="1426.0"/>
      <point x="770.0" y="1426.0" type="curve" smooth="yes"/>
      <point x="390.0" y="1426.0"/>
      <point x="80.0" y="1100.0"/>
      <point x="80.0" y="700.0" type="curve" smooth="yes"/>
      <point x="80.0" y="300.0"/>
      <point x="390.0" y="-26.0"/>
    </contour>
    <contour>
      <point x="770.0" y="154.0" type="curve" smooth="yes"/>
      <point x="488.8" y="154.0"/>
      <point x="260.0" y="400.4"/>
      <point x="260.0" y="700.0" type="curve" smooth="yes"/>
      <point x="260.0" y="997.2"/>
      <point x="487.2" y="1246.0"/>
      <point x="770.0" y="1246.0" type="curve" smooth="yes"/>
      <point x="1051.2" y="1246.0"/>
      <point x="1280.0" y="998.8"/>
      <point x="1280.0" y="700.0" type="curve" smooth="yes"/>
      <point x="1280.0" y="402.8"/>
      <point x="1052.8" y="154.0"/>
    </contour>
  </outline>
</glyph>
<glyph name="P" format="2">
  <advance width="1070.0"/>
  <unicode hex="0050"/>
  <outline>
    <contour>
      <point x="120.0" y="0.0" type="line"/>
      <point x="300.0" y="0.0" type="line"/>
      <point x="300.0" y="572.0" type="line"/>
      <point x="588.0" y="572.0" type="line" smooth="yes"/>
      <point x="806.0" y="572.0"/>
      <point x="990.4" y="752.8"/>
      <point x="990.4" y="986.4" type="curve" smooth="yes"/>
      <point x="990.4" y="1216.0"/>
      <point x="813.2" y="1400.0"/>
      <point x="588.0" y="1400.0" type="curve" smooth="yes"/>
      <point x="120.0" y="1400.0" type="line"/>
    </contour>
    <contour>
      <point x="300.0" y="752.0" type="line"/>
      <point x="300.0" y="1242.4" type="line"/>
      <point x="570.8" y="1242.4" type="line" smooth="yes"/>
      <point x="702.0" y="1242.4"/>
      <point x="810.4" y="1136.0"/>
      <point x="810.4" y="997.2" type="curve" smooth="yes"/>
      <point x="810.4" y="858.4"/>
      <point x="702.0" y="752.0"/>
      <point x="570.8" y="752.0" type="curve" smooth="yes"/>
    </contour>
  </outline>
</glyph>
<glyph name="Q" format="2">
  <advance width="1561.0"/>
  <unicode hex="0051"/>
  <outline>
    <contour>
      <point x="1352.0" y="-31.2" type="line"/>
      <point x="1479.2" y="96.0" type="line"/>
      <point x="1313.2" y="261.2" type="line"/>
      <point x="1404.4" y="383.2"/>
      <point x="1459.2" y="536.4"/>
      <point x="1459.2" y="704.0" type="curve" smooth="yes"/>
      <point x="1459.2" y="1104.0"/>
      <point x="1150.0" y="1430.0"/>
      <point x="770.0" y="1430.0" type="curve" smooth="yes"/>
      <point x="389.2" y="1430.0"/>
      <point x="80.0" y="1104.0"/>
      <point x="80.0" y="704.0" type="curve" smooth="yes"/>
      <point x="80.0" y="302.8"/>
      <point x="389.2" y="-22.0"/>
      <point x="770.0" y="-22.0" type="curve" smooth="yes"/>
      <point x="928.0" y="-22.0"/>
      <point x="1074.4" y="35.2"/>
      <point x="1189.2" y="131.2" type="curve"/>
    </contour>
    <contour>
      <point x="770.0" y="158.0" type="curve" smooth="yes"/>
      <point x="490.4" y="158.0"/>
      <point x="260.0" y="403.2"/>
      <point x="260.0" y="704.0" type="curve" smooth="yes"/>
      <point x="260.0" y="1000.4"/>
      <point x="487.2" y="1250.0"/>
      <point x="770.0" y="1250.0" type="curve" smooth="yes"/>
      <point x="1048.8" y="1250.0"/>
      <point x="1279.2" y="1004.4"/>
      <point x="1279.2" y="704.0" type="curve" smooth="yes"/>
      <point x="1279.2" y="592.0"/>
      <point x="1244.0" y="482.8"/>
      <point x="1180.4" y="394.8" type="curve"/>
      <point x="1008.8" y="566.4" type="line"/>
      <point x="882.4" y="438.4" type="line"/>
      <point x="1058.4" y="262.4" type="line"/>
      <point x="979.2" y="196.4"/>
      <point x="874.4" y="158.0"/>
    </contour>
  </outline>
</glyph>
<glyph name="R" format="2">
  <advance width="1168.0"/>
  <unicode hex="0052"/>
  <outline>
    <contour>
      <point x="135.2" y="0.0" type="line"/>
      <point x="315.2" y="0.0" type="line"/>
      <point x="315.2" y="572.0" type="line"/>
      <point x="532.8" y="572.0" type="line"/>
      <point x="864.8" y="0.0" type="line"/>
      <point x="1073.2" y="0.0" type="line"/>
      <point x="733.2" y="587.2" type="line"/>
      <point x="907.2" y="631.2"/>
      <point x="1035.2" y="787.2"/>
      <point x="1035.2" y="986.4" type="curve" smooth="yes"/>
      <point x="1035.2" y="1217.2"/>
      <point x="859.2" y="1400.0"/>
      <point x="634.0" y="1400.0" type="curve" smooth="yes"/>
      <point x="135.2" y="1400.0" type="line"/>
    </contour>
    <contour>
      <point x="315.2" y="752.0" type="line"/>
      <point x="315.2" y="1242.4" type="line"/>
      <point x="616.4" y="1242.4" type="line" smooth="yes"/>
      <point x="746.8" y="1242.4"/>
      <point x="855.2" y="1136.0"/>
      <point x="855.2" y="997.2" type="curve" smooth="yes"/>
      <point x="855.2" y="858.4"/>
      <point x="746.8" y="752.0"/>
      <point x="616.4" y="752.0" type="curve" smooth="yes"/>
    </contour>
  </outline>
</glyph>
<glyph name="S" format="2">
  <advance width="1231.0"/>
  <unicode hex="0053"/>
  <outline>
    <contour>
      <point x="615.2" y="-26.0" type="curve" smooth="yes"/>
      <point x="888.4" y="-26.0"/>
      <point x="1126.4" y="134.8"/>
      <point x="1126.4" y="380.8" type="curve" smooth="yes"/>
      <point x="1126.4" y="622.8"/>
      <point x="888.0" y="744.8"/>
      <point x="615.2" y="790.0" type="curve" smooth="yes"/>
      <point x="429.2" y="822.4"/>
      <point x="284.8" y="852.8"/>
      <point x="284.8" y="1015.2" type="curve" smooth="yes"/>
      <point x="284.8" y="1149.2"/>
      <point x="443.2" y="1242.0"/>
      <point x="615.2" y="1240.8" type="curve" smooth="yes"/>
      <point x="770.8" y="1240.8"/>
      <point x="922.8" y="1170.8"/>
      <point x="961.2" y="1063.2" type="curve"/>
      <point x="1131.2" y="1124.4" type="line"/>
      <point x="1061.2" y="1314.4"/>
      <point x="836.8" y="1422.0"/>
      <point x="615.2" y="1422.0" type="curve" smooth="yes"/>
      <point x="345.2" y="1422.0"/>
      <point x="104.8" y="1261.2"/>
      <point x="104.8" y="1015.2" type="curve" smooth="yes"/>
      <point x="104.8" y="752.4"/>
      <point x="324.0" y="656.4"/>
      <point x="615.2" y="608.4" type="curve" smooth="yes"/>
      <point x="779.2" y="580.4"/>
      <point x="946.4" y="520.8"/>
      <point x="946.4" y="380.8" type="curve" smooth="yes"/>
      <point x="946.4" y="244.4"/>
      <point x="788.0" y="154.0"/>
      <point x="615.2" y="154.0" type="curve" smooth="yes"/>
      <point x="458.8" y="154.0"/>
      <point x="306.8" y="225.2"/>
      <point x="269.2" y="332.8" type="curve"/>
      <point x="100.0" y="270.4" type="line"/>
      <point x="166.4" y="84.8"/>
      <point x="388.0" y="-26.0"/>
    </contour>
  </outline>
</glyph>
<glyph name="T" format="2">
  <advance width="1259.0"/>
  <unicode hex="0054"/>
  <outline>
    <contour>
      <point x="1179.2" y="1400.0" type="line"/>
      <point x="80.0" y="1400.0" type="line"/>
      <point x="80.0" y="1220.0" type="line"/>
      <point x="539.2" y="1220.0" type="line"/>
      <point x="539.2" y="0.0" type="line"/>
      <point x="719.2" y="0.0" type="line"/>
      <point x="719.2" y="1220.0" type="line"/>
      <point x="1179.2" y="1220.0" type="line"/>
    </contour>
  </outline>
</glyph>
<glyph name="U" format="2">
  <advance width="1339.0"/>
  <unicode hex="0055"/>
  <outline>
    <contour>
      <point x="670.0" y="-26.0" type="curve" smooth="yes"/>
      <point x="1006.0" y="-26.0"/>
      <point x="1218.8" y="246.0"/>
      <point x="1218.8" y="584.0" type="curve" smooth="yes"/>
      <point x="1218.8" y="1400.0" type="line"/>
      <point x="1038.8" y="1400.0" type="line"/>
      <point x="1038.8" y="584.0" type="line" smooth="yes"/>
      <point x="1038.8" y="350.4"/>
      <point x="910.0" y="154.0"/>
      <point x="670.0" y="154.0" type="curve" smooth="yes"/>
      <point x="432.8" y="154.0"/>
      <point x="300.0" y="349.2"/>
      <point x="300.0" y="584.0" type="curve" smooth="yes"/>
      <point x="300.0" y="1400.0" type="line"/>
      <point x="120.0" y="1400.0" type="line"/>
      <point x="120.0" y="584.0" type="line" smooth="yes"/>
      <point x="120.0" y="246.0"/>
      <point x="334.0" y="-26.0"/>
    </contour>
  </outline>
</glyph>
<glyph name="V" format="2">
  <advance width="1281.0"/>
  <unicode hex="0056"/>
  <outline>
    <contour>
      <point x="528.0" y="0.0" type="line"/>
      <point x="752.0" y="0.0" type="line"/>
      <point x="1260.8" y="1400.0" type="line"/>
      <point x="1070.0" y="1400.0" type="line"/>
      <point x="640.4" y="218.4" type="line"/>
      <point x="210.8" y="1400.0" type="line"/>
      <point x="20.0" y="1400.0" type="line"/>
    </contour>
  </outline>
</glyph>
<glyph name="W" format="2">
  <advance width="1836.0"/>
  <unicode hex="0057"/>
  <outline>
    <contour>
      <point x="458.0" y="0.0" type="line"/>
      <point x="666.4" y="0.0" type="line"/>
      <point x="918.4" y="988.4" type="line"/>
      <point x="1170.8" y="0.0" type="line"/>
      <point x="1380.0" y="0.0" type="line"/>
      <point x="1736.0" y="1400.0" type="line"/>
      <point x="1550.0" y="1400.0" type="line"/>
      <point x="1274.8" y="319.2" type="line"/>
      <point x="998.8" y="1400.0" type="line"/>
      <point x="837.2" y="1400.0" type="line"/>
      <point x="562.0" y="319.2" type="line"/>
      <point x="286.0" y="1400.0" type="line"/>
      <point x="100.0" y="1400.0" type="line"/>
    </contour>
  </outline>
</glyph>
<glyph name="X" format="2">
  <advance width="1368.0"/>
  <unicode hex="0058"/>
  <outline>
    <contour>
      <point x="60.0" y="0.0" type="line"/>
      <point x="284.0" y="0.0" type="line"/>
      <point x="684.4" y="550.4" type="line"/>
      <point x="1084.8" y="0.0" type="line"/>
      <point x="1308.0" y="0.0" type="line"/>
      <point x="796.0" y="704.0" type="line"/>
      <point x="1304.0" y="1402.0" type="line"/>
      <point x="1082.0" y="1402.0" type="line"/>
      <point x="684.4" y="856.4" type="line"/>
      <point x="286.0" y="1402.0" type="line"/>
      <point x="64.0" y="1402.0" type="line"/>
      <point x="572.8" y="704.0" type="line"/>
    </contour>
  </outline>
</glyph>
<glyph name="Y" format="2">
  <advance width="1250.0"/>
  <unicode hex="0059"/>
  <outline>
    <contour>
      <point x="978.0" y="1400.0" type="line"/>
      <point x="624.8" y="828.8" type="line"/>
      <point x="272.4" y="1400.0" type="line"/>
      <point x="60.0" y="1400.0" type="line"/>
      <point x="534.8" y="633.2" type="line"/>
      <point x="534.8" y="0.0" type="line"/>
      <point x="714.8" y="0.0" type="line"/>
      <point x="714.8" y="633.2" type="line"/>
      <point x="1190.4" y="1400.0" type="line"/>
    </contour>
  </outline>
</glyph>
<glyph name="Z" format="2">
  <advance width="1372.0"/>
  <unicode hex="005A"/>
  <outline>
    <contour>
      <point x="120.0" y="0.0" type="line"/>
      <point x="1252.0" y="0.0" type="line"/>
      <point x="1252.0" y="180.0" type="line"/>
      <point x="362.0" y="180.0" type="line"/>
      <point x="1252.0" y="1220.0" type="line"/>
      <point x="1252.0" y="1400.0" type="line"/>
      <point x="120.0" y="1400.0" type="line"/>
      <point x="120.0" y="1220.0" type="line"/>
      <point x="1010.0" y="1220.0" type="line"/>
      <point x="120.0" y="180.0" type="line"/>
    </contour>
  </outline>
</glyph>
<glyph name="bracketleft" format="2">
  <advance width="578.0"/>
  <unicode hex="005B"/>
  <outline>
    <contour>
      <point x="478.4" y="68.0" type="line"/>
      <point x="300.0" y="68.0" type="line"/>
      <point x="300.0" y="1220.0" type="line"/>
      <point x="478.4" y="1220.0" type="line"/>
      <point x="478.4" y="1400.0" type="line"/>
      <point x="120.0" y="1400.0" type="line"/>
      <point x="120.0" y="-112.0" type="line"/>
      <point x="478.4" y="-112.0" type="line"/>
    </contour>
  </outline>
</glyph>
<glyph name="backslash" format="2">
  <advance width="745.0"/>
  <unicode hex="005C"/>
  <outline>
    <contour>
      <point x="484.8" y="-112.0" type="line"/>
      <point x="664.8" y="-112.0" type="line"/>
      <point x="260.0" y="1400.0" type="line"/>
      <point x="80.0" y="1400.0" type="line"/>
    </contour>
  </outline>
</glyph>
<glyph name="bracketright" format="2">
  <advance width="579.0"/>
  <unicode hex="005D"/>
  <outline>
    <contour>
      <point x="100.0" y="-112.0" type="line"/>
      <point x="458.8" y="-112.0" type="line"/>
      <point x="458.8" y="1400.0" type="line"/>
      <point x="100.0" y="1400.0" type="line"/>
      <point x="100.0" y="1220.0" type="line"/>
      <point x="278.8" y="1220.0" type="line"/>
      <point x="278.8" y="68.0" type="line"/>
      <point x="100.0" y="68.0" type="line"/>
    </contour>
  </outline>
</glyph>
<glyph name="asciicircum" format="2">
  <advance width="852.0"/>
  <unicode hex="005E"/>
  <outline>
    <contour>
      <point x="80.0" y="1000.0" type="line"/>
      <point x="271.2" y="1000.0" type="line"/>
      <point x="426.0" y="1424.8" type="line"/>
      <point x="580.0" y="1000.0" type="line"/>
      <point x="772.0" y="1000.0" type="line"/>
      <point x="536.0" y="1650.0" type="line"/>
      <point x="316.0" y="1650.0" type="line"/>
    </contour>
  </outline>
</glyph>
<glyph name="a" format="2">
  <advance width="1227.0"/>
  <unicode hex="0061"/>
  <outline>
    <contour>
      <point x="926.8" y="1000.0" type="line"/>
      <point x="934.4" y="836.0" type="line"/>
      <point x="861.2" y="949.2"/>
      <point x="743.4" y="1028.0"/>
      <point x="589.2" y="1028.0" type="curve"/>
      <point x="302.2" y="1028.0"/>
      <point x="70.2" y="794.8"/>
      <point x="71.2" y="506.8" type="curve"/>
      <point x="70.2" y="212.8"/>
      <point x="308.8" y="-26.0"/>
      <point x="602.8" y="-26.0" type="curve"/>
      <point x="750.0" y="-26.0"/>
      <point x="858.6" y="48.8"/>
      <point x="919.8" y="162.0" type="curve"/>
      <point x="926.6" y="0.0" type="line"/>
      <point x="1106.8" y="0.0" type="line"/>
      <point x="1106.8" y="1000.0" type="line"/>
    </contour>
    <contour>
      <point x="607.8" y="148.4" type="curve"/>
      <point x="424.6" y="148.4"/>
      <point x="263.2" y="300.8"/>
      <point x="252.8" y="493.2" type="curve"/>
      <point x="244.6" y="692.4"/>
      <point x="395.4" y="853.2"/>
      <point x="588.2" y="853.2" type="curve"/>
      <point x="774.2" y="853.2"/>
      <point x="903.8" y="700.4"/>
      <point x="913.2" y="506.8" type="curve"/>
      <point x="921.4" y="310.4"/>
      <point x="801.8" y="148.4"/>
    </contour>
  </outline>
</glyph>
<glyph name="b" format="2">
  <advance width="1217.0"/>
  <unicode hex="0062"/>
  <outline>
    <contour>
      <point x="630.4" y="1028.0" type="curve"/>
      <point x="480.4" y="1028.0"/>
      <point x="366.8" y="950.8"/>
      <point x="300.0" y="838.4" type="curve"/>
      <point x="300.0" y="1500.0" type="line"/>
      <point x="120.0" y="1500.0" type="line"/>
      <point x="120.0" y="0.0" type="line"/>
      <point x="300.0" y="0.0" type="line"/>
      <point x="300.0" y="164.4" type="line"/>
      <point x="366.8" y="51.2"/>
      <point x="480.4" y="-26.0"/>
      <point x="630.4" y="-26.0" type="curve"/>
      <point x="920.8" y="-26.0"/>
      <point x="1156.8" y="210.0"/>
      <point x="1156.8" y="501.2" type="curve"/>
      <point x="1156.8" y="792.0"/>
      <point x="920.8" y="1028.0"/>
    </contour>
    <contour>
      <point x="628.0" y="148.8" type="curve"/>
      <point x="440.4" y="148.8"/>
      <point x="314.8" y="305.2"/>
      <point x="314.8" y="501.2" type="curve"/>
      <point x="314.8" y="694.4"/>
      <point x="438.0" y="854.4"/>
      <point x="628.0" y="854.4" type="curve"/>
      <point x="815.2" y="854.4"/>
      <point x="972.8" y="698.4"/>
      <point x="972.8" y="501.2" type="curve"/>
      <point x="972.8" y="306.8"/>
      <point x="819.2" y="148.8"/>
    </contour>
  </outline>
</glyph>
<glyph name="c" format="2">
  <advance width="1019.0"/>
  <unicode hex="0063"/>
  <outline>
    <contour>
      <point x="798.0" y="270.4" type="line"/>
      <point x="741.2" y="201.2"/>
      <point x="654.4" y="154.0"/>
      <point x="560.0" y="154.0" type="curve"/>
      <point x="382.0" y="154.0"/>
      <point x="240.0" y="312.4"/>
      <point x="240.0" y="500.0" type="curve"/>
      <point x="240.0" y="687.2"/>
      <point x="378.8" y="848.0"/>
      <point x="560.0" y="848.0" type="curve"/>
      <point x="648.0" y="848.0"/>
      <point x="737.2" y="806.4"/>
      <point x="798.0" y="731.2" type="curve"/>
      <point x="959.2" y="818.0" type="line"/>
      <point x="868.0" y="946.0"/>
      <point x="723.2" y="1028.0"/>
      <point x="560.0" y="1028.0" type="curve"/>
      <point x="284.0" y="1028.0"/>
      <point x="60.0" y="792.0"/>
      <point x="60.0" y="500.0" type="curve"/>
      <point x="60.0" y="210.0"/>
      <point x="284.0" y="-26.0"/>
      <point x="560.0" y="-26.0" type="curve"/>
      <point x="723.2" y="-26.0"/>
      <point x="868.0" y="56.0"/>
      <point x="959.2" y="182.8" type="curve"/>
    </contour>
  </outline>
</glyph>
<glyph name="d" format="2">
  <advance width="1222.0"/>
  <unicode hex="0064"/>
  <outline>
    <contour>
      <point x="916.8" y="1500.0" type="line"/>
      <point x="916.8" y="838.4" type="line"/>
      <point x="850.0" y="950.8"/>
      <point x="737.2" y="1026.8"/>
      <point x="586.0" y="1026.8" type="curve"/>
      <point x="296.0" y="1026.8"/>
      <point x="60.0" y="790.8"/>
      <point x="60.0" y="500.0" type="curve"/>
      <point x="60.0" y="210.0"/>
      <point x="296.0" y="-26.0"/>
      <point x="586.0" y="-26.0" type="curve"/>
      <point x="737.2" y="-26.0"/>
      <point x="850.0" y="50.0"/>
      <point x="916.8" y="163.2" type="curve"/>
      <point x="916.8" y="0.0" type="line"/>
      <point x="1096.8" y="0.0" type="line"/>
      <point x="1096.8" y="1500.0" type="line"/>
    </contour>
    <contour>
      <point x="588.4" y="148.4" type="curve"/>
      <point x="402.4" y="148.4"/>
      <point x="244.0" y="303.2"/>
      <point x="244.0" y="500.0" type="curve"/>
      <point x="244.0" y="695.2"/>
      <point x="399.2" y="853.2"/>
      <point x="588.4" y="853.2" type="curve"/>
      <point x="777.2" y="853.2"/>
      <point x="902.0" y="696.8"/>
      <point x="902.0" y="500.0" type="curve"/>
      <point x="902.0" y="306.4"/>
      <point x="778.8" y="148.4"/>
    </contour>
  </outline>
</glyph>
<glyph name="e" format="2">
  <advance width="1119.0"/>
  <unicode hex="0065"/>
  <outline>
    <contour>
      <point x="560.0" y="-26.0" type="curve" smooth="yes"/>
      <point x="760.0" y="-26.0"/>
      <point x="932.0" y="98.0"/>
      <point x="1012.2" y="276.0" type="curve"/>
      <point x="829.4" y="318.2" type="line"/>
      <point x="770.8" y="216.4"/>
      <point x="674.0" y="153.8"/>
      <point x="560.0" y="154.0" type="curve" smooth="yes"/>
      <point x="398.2" y="155.2"/>
      <point x="276.0" y="274.8"/>
      <point x="252.0" y="435.4" type="curve"/>
      <point x="1054.2" y="435.4" type="line"/>
      <point x="1081.4" y="761.4"/>
      <point x="862.2" y="1028.0"/>
      <point x="560.0" y="1028.0" type="curve" smooth="yes"/>
      <point x="284.0" y="1028.0"/>
      <point x="60.0" y="792.0"/>
      <point x="60.0" y="500.2" type="curve" smooth="yes"/>
      <point x="60.0" y="210.0"/>
      <point x="284.0" y="-26.0"/>
    </contour>
    <contour>
      <point x="246.6" y="575.4" type="line"/>
      <point x="269.2" y="739.8"/>
      <point x="398.2" y="868.0"/>
      <point x="560.0" y="868.0" type="curve" smooth="yes"/>
      <point x="721.2" y="868.0"/>
      <point x="854.2" y="735.8"/>
      <point x="872.8" y="575.4" type="curve"/>
    </contour>
  </outline>
</glyph>
<glyph name="f" format="2">
  <advance width="691.0"/>
  <unicode hex="0066"/>
  <outline>
    <contour>
      <point x="356.0" y="1241.2" type="line"/>
      <point x="356.0" y="1298.0"/>
      <point x="403.2" y="1344.0"/>
      <point x="460.0" y="1344.0" type="curve"/>
      <point x="490.4" y="1344.0"/>
      <point x="520.6" y="1330.0"/>
      <point x="538.8" y="1305.2" type="curve"/>
      <point x="668.4" y="1432.4" type="line"/>
      <point x="611.8" y="1493.4"/>
      <point x="536.0" y="1524.0"/>
      <point x="460.0" y="1524.0" type="curve"/>
      <point x="302.8" y="1524.0"/>
      <point x="176.0" y="1397.2"/>
      <point x="176.0" y="1241.2" type="curve"/>
      <point x="176.0" y="1000.0" type="line"/>
      <point x="50.0" y="1000.0" type="line"/>
      <point x="50.0" y="820.0" type="line"/>
      <point x="176.0" y="820.0" type="line"/>
      <point x="176.0" y="0.0" type="line"/>
      <point x="356.0" y="0.0" type="line"/>
      <point x="356.0" y="820.0" type="line"/>
      <point x="646.0" y="820.0" type="line"/>
      <point x="646.0" y="1000.0" type="line"/>
      <point x="356.0" y="1000.0" type="line"/>
    </contour>
  </outline>
</glyph>
<glyph name="g" format="2">
  <advance width="1195.0"/>
  <unicode hex="0067"/>
  <outline>
    <contour>
      <point x="894.8" y="1000.0" type="line"/>
      <point x="894.8" y="840.8" type="line"/>
      <point x="828.4" y="952.0"/>
      <point x="716.8" y="1026.8"/>
      <point x="573.2" y="1026.8" type="curve" smooth="yes"/>
      <point x="290.4" y="1026.8"/>
      <point x="60.0" y="790.8"/>
      <point x="60.0" y="500.0" type="curve" smooth="yes"/>
      <point x="60.0" y="210.0"/>
      <point x="290.4" y="-26.0"/>
      <point x="573.2" y="-26.0" type="curve" smooth="yes"/>
      <point x="716.8" y="-26.0"/>
      <point x="828.4" y="48.8"/>
      <point x="894.8" y="160.0" type="curve"/>
      <point x="894.8" y="-30.0" type="line" smooth="yes"/>
      <point x="894.8" y="-195.2"/>
      <point x="728.8" y="-318.8"/>
      <point x="557.2" y="-318.8" type="curve" smooth="yes"/>
      <point x="420.8" y="-318.8"/>
      <point x="282.8" y="-218.0"/>
      <point x="244.8" y="-83.2" type="curve"/>
      <point x="80.4" y="-158.4" type="line"/>
      <point x="146.8" y="-350.0"/>
      <point x="346.8" y="-500.0"/>
      <point x="557.2" y="-500.0" type="curve" smooth="yes"/>
      <point x="826.8" y="-500.0"/>
      <point x="1074.8" y="-298.0"/>
      <point x="1074.8" y="-30.0" type="curve" smooth="yes"/>
      <point x="1074.8" y="1000.0" type="line"/>
    </contour>
    <contour>
      <point x="574.8" y="148.4" type="curve" smooth="yes"/>
      <point x="394.4" y="148.4"/>
      <point x="244.0" y="304.0"/>
      <point x="244.0" y="500.0" type="curve" smooth="yes"/>
      <point x="244.0" y="695.2"/>
      <point x="391.2" y="853.2"/>
      <point x="574.8" y="853.2" type="curve" smooth="yes"/>
      <point x="758.8" y="853.2"/>
      <point x="884.4" y="692.8"/>
      <point x="884.4" y="500.0" type="curve" smooth="yes"/>
      <point x="884.4" y="310.4"/>
      <point x="761.2" y="148.4"/>
    </contour>
  </outline>
</glyph>
<glyph name="h" format="2">
  <advance width="1108.0"/>
  <unicode hex="0068"/>
  <outline>
    <contour>
      <point x="1028.4" y="528.8" type="line"/>
      <point x="1024.4" y="799.2"/>
      <point x="848.8" y="1026.8"/>
      <point x="584.8" y="1026.8" type="curve"/>
      <point x="460.8" y="1026.8"/>
      <point x="360.8" y="980.8"/>
      <point x="300.0" y="866.8" type="curve"/>
      <point x="300.0" y="1500.0" type="line"/>
      <point x="120.0" y="1500.0" type="line"/>
      <point x="120.0" y="0.0" type="line"/>
      <point x="301.2" y="0.0" type="line"/>
      <point x="301.2" y="524.8" type="line"/>
      <point x="301.2" y="706.4"/>
      <point x="404.8" y="853.2"/>
      <point x="568.8" y="853.2" type="curve"/>
      <point x="722.8" y="853.2"/>
      <point x="848.4" y="706.4"/>
      <point x="848.4" y="524.8" type="curve"/>
      <point x="848.4" y="0.0" type="line"/>
      <point x="1028.4" y="0.0" type="line"/>
    </contour>
  </outline>
</glyph>
<glyph name="i" format="2">
  <advance width="436.0"/>
  <unicode hex="0069"/>
  <outline>
    <contour>
      <point x="124.4" y="1000.0" type="line"/>
      <point x="124.4" y="0.0" type="line"/>
      <point x="304.4" y="0.0" type="line"/>
      <point x="304.4" y="1000.0" type="line"/>
    </contour>
    <contour>
      <point x="217.2" y="1150.4" type="curve"/>
      <point x="270.8" y="1150.4"/>
      <point x="315.2" y="1194.8"/>
      <point x="315.2" y="1246.8" type="curve"/>
      <point x="315.2" y="1300.0"/>
      <point x="270.8" y="1344.8"/>
      <point x="217.2" y="1344.8" type="curve"/>
      <point x="164.0" y="1344.8"/>
      <point x="120.0" y="1300.0"/>
      <point x="120.0" y="1246.8" type="curve"/>
      <point x="120.0" y="1194.8"/>
      <point x="164.0" y="1150.4"/>
    </contour>
  </outline>
</glyph>
<glyph name="j" format="2">
  <advance width="497.0"/>
  <unicode hex="006A"/>
  <outline>
    <contour>
      <point x="-80.0" y="-500.0" type="line"/>
      <point x="157.2" y="-500.0"/>
      <point x="339.2" y="-316.0"/>
      <point x="339.2" y="-88.0" type="curve"/>
      <point x="339.2" y="1000.0" type="line"/>
      <point x="159.2" y="1000.0" type="line"/>
      <point x="159.2" y="-88.0" type="line"/>
      <point x="159.2" y="-219.2"/>
      <point x="54.8" y="-320.0"/>
      <point x="-80.0" y="-320.0" type="curve"/>
    </contour>
    <contour>
      <point x="249.2" y="1150.4" type="curve"/>
      <point x="302.4" y="1150.4"/>
      <point x="347.2" y="1194.4"/>
      <point x="347.2" y="1246.8" type="curve"/>
      <point x="347.2" y="1301.2"/>
      <point x="302.4" y="1344.8"/>
      <point x="249.2" y="1344.8" type="curve"/>
      <point x="194.8" y="1344.8"/>
      <point x="152.0" y="1301.2"/>
      <point x="152.0" y="1246.8" type="curve"/>
      <point x="152.0" y="1194.4"/>
      <point x="194.8" y="1150.4"/>
    </contour>
  </outline>
</glyph>
<glyph name="k" format="2">
  <advance width="1031.0"/>
  <unicode hex="006B"/>
  <outline>
    <contour>
      <point x="958.8" y="0.0" type="line"/>
      <point x="614.8" y="595.2" type="line"/>
      <point x="954.8" y="1000.0" type="line"/>
      <point x="720.4" y="1000.0" type="line"/>
      <point x="315.2" y="517.2" type="line"/>
      <point x="315.2" y="1500.0" type="line"/>
      <point x="135.2" y="1500.0" type="line"/>
      <point x="135.2" y="0.0" type="line"/>
      <point x="315.2" y="0.0" type="line"/>
      <point x="315.2" y="236.8" type="line"/>
      <point x="492.0" y="448.0" type="line"/>
      <point x="752.0" y="0.0" type="line"/>
    </contour>
  </outline>
</glyph>
<glyph name="l" format="2">
  <advance width="450.0"/>
  <unicode hex="006C"/>
  <outline>
    <contour>
      <point x="135.2" y="0.8" type="line"/>
      <point x="315.2" y="0.8" type="line"/>
      <point x="315.2" y="1500.0" type="line"/>
      <point x="135.2" y="1500.0" type="line"/>
    </contour>
  </outline>
</glyph>
<glyph name="m" format="2">
  <advance width="1719.0"/>
  <unicode hex="006D"/>
  <outline>
    <contour>
      <point x="90.4" y="0.0" type="line"/>
      <point x="270.4" y="0.0" type="line"/>
      <point x="270.4" y="531.2" type="line" smooth="yes"/>
      <point x="270.4" y="693.4"/>
      <point x="372.2" y="835.8"/>
      <point x="515.2" y="835.8" type="curve" smooth="yes"/>
      <point x="666.0" y="835.8"/>
      <point x="769.4" y="703.8"/>
      <point x="769.4" y="540.8" type="curve" smooth="yes"/>
      <point x="769.4" y="0.0" type="line"/>
      <point x="949.4" y="0.0" type="line"/>
      <point x="949.4" y="540.8" type="line" smooth="yes"/>
      <point x="949.4" y="703.8"/>
      <point x="1052.8" y="835.8"/>
      <point x="1204.4" y="835.8" type="curve" smooth="yes"/>
      <point x="1355.4" y="835.8"/>
      <point x="1449.2" y="703.8"/>
      <point x="1449.2" y="540.8" type="curve" smooth="yes"/>
      <point x="1449.2" y="0.0" type="line"/>
      <point x="1629.2" y="0.0" type="line"/>
      <point x="1629.2" y="540.8" type="line" smooth="yes"/>
      <point x="1629.2" y="799.2"/>
      <point x="1458.2" y="1015.8"/>
      <point x="1204.4" y="1015.8" type="curve" smooth="yes"/>
      <point x="1052.4" y="1015.8"/>
      <point x="934.6" y="939.8"/>
      <point x="859.4" y="810.6" type="curve"/>
      <point x="785.2" y="937.4"/>
      <point x="670.4" y="1015.8"/>
      <point x="515.2" y="1015.8" type="curve" smooth="yes"/>
      <point x="404.8" y="1015.8"/>
      <point x="334.8" y="963.2"/>
      <point x="270.4" y="871.8" type="curve"/>
      <point x="270.4" y="1000.0" type="line"/>
      <point x="90.4" y="1000.0" type="line"/>
    </contour>
  </outline>
</glyph>
<glyph name="n" format="2">
  <advance width="1127.0"/>
  <unicode hex="006E"/>
  <outline>
    <contour>
      <point x="1027.2" y="530.0" type="line"/>
      <point x="1024.4" y="800.4"/>
      <point x="848.8" y="1028.0"/>
      <point x="584.8" y="1028.0" type="curve"/>
      <point x="456.8" y="1028.0"/>
      <point x="352.4" y="960.8"/>
      <point x="280.0" y="852.0" type="curve"/>
      <point x="280.0" y="1000.0" type="line"/>
      <point x="100.0" y="1000.0" type="line"/>
      <point x="100.0" y="0.0" type="line"/>
      <point x="280.0" y="0.0" type="line"/>
      <point x="280.0" y="526.0" type="line"/>
      <point x="280.0" y="706.4"/>
      <point x="395.2" y="854.4"/>
      <point x="558.0" y="854.4" type="curve"/>
      <point x="722.8" y="854.4"/>
      <point x="847.2" y="706.4"/>
      <point x="847.2" y="526.0" type="curve"/>
      <point x="847.2" y="0.0" type="line"/>
      <point x="1027.2" y="0.0" type="line"/>
    </contour>
  </outline>
</glyph>
<glyph name="o" format="2">
  <advance width="1120.0"/>
  <unicode hex="006F"/>
  <outline>
    <contour>
      <point x="560.0" y="-26.0" type="curve" smooth="yes"/>
      <point x="836.0" y="-26.0"/>
      <point x="1060.0" y="210.0"/>
      <point x="1060.0" y="500.0" type="curve" smooth="yes"/>
      <point x="1060.0" y="792.0"/>
      <point x="836.0" y="1028.0"/>
      <point x="560.0" y="1028.0" type="curve" smooth="yes"/>
      <point x="284.0" y="1028.0"/>
      <point x="60.0" y="792.0"/>
      <point x="60.0" y="500.0" type="curve" smooth="yes"/>
      <point x="60.0" y="210.0"/>
      <point x="284.0" y="-26.0"/>
    </contour>
    <contour>
      <point x="560.0" y="154.0" type="curve" smooth="yes"/>
      <point x="386.4" y="154.0"/>
      <point x="240.0" y="306.4"/>
      <point x="240.0" y="500.0" type="curve" smooth="yes"/>
      <point x="240.0" y="686.8"/>
      <point x="379.2" y="848.0"/>
      <point x="560.0" y="848.0" type="curve" smooth="yes"/>
      <point x="738.4" y="848.0"/>
      <point x="880.0" y="689.2"/>
      <point x="880.0" y="500.0" type="curve" smooth="yes"/>
      <point x="880.0" y="314.0"/>
      <point x="741.2" y="154.0"/>
    </contour>
  </outline>
</glyph>
<glyph name="q" format="2">
  <advance width="1236.0"/>
  <unicode hex="0071"/>
  <outline>
    <contour>
      <point x="606.0" y="-28.0" type="curve"/>
      <point x="757.2" y="-28.0"/>
      <point x="868.8" y="49.2"/>
      <point x="936.4" y="162.4" type="curve"/>
      <point x="936.4" y="-500.0" type="line"/>
      <point x="1116.4" y="-500.0" type="line"/>
      <point x="1116.4" y="1000.0" type="line"/>
      <point x="936.4" y="1000.0" type="line"/>
      <point x="936.4" y="836.4" type="line"/>
      <point x="868.8" y="948.8"/>
      <point x="757.2" y="1026.0"/>
      <point x="606.0" y="1026.0" type="curve"/>
      <point x="316.0" y="1026.0"/>
      <point x="80.0" y="790.0"/>
      <point x="80.0" y="500.0" type="curve"/>
      <point x="80.0" y="208.0"/>
      <point x="316.0" y="-28.0"/>
    </contour>
    <contour>
      <point x="608.4" y="852.4" type="curve"/>
      <point x="797.2" y="852.4"/>
      <point x="920.8" y="694.8"/>
      <point x="920.8" y="500.0" type="curve"/>
      <point x="920.8" y="306.4"/>
      <point x="798.8" y="146.8"/>
      <point x="608.4" y="146.8" type="curve"/>
      <point x="421.2" y="146.8"/>
      <point x="264.0" y="302.4"/>
      <point x="264.0" y="500.0" type="curve"/>
      <point x="264.0" y="693.2"/>
      <point x="417.2" y="852.4"/>
    </contour>
  </outline>
</glyph>
<glyph name="r" format="2">
  <advance width="757.0"/>
  <unicode hex="0072"/>
  <outline>
    <contour>
      <point x="698.0" y="820.8" type="curve"/>
      <point x="726.8" y="1012.4" type="line"/>
      <point x="690.0" y="1024.4"/>
      <point x="649.2" y="1026.8"/>
      <point x="606.4" y="1026.8" type="curve" smooth="yes"/>
      <point x="478.4" y="1026.8"/>
      <point x="372.4" y="960.4"/>
      <point x="300.0" y="852.0" type="curve"/>
      <point x="300.0" y="998.8" type="line"/>
      <point x="120.0" y="998.8" type="line"/>
      <point x="120.0" y="0.0" type="line"/>
      <point x="301.2" y="0.0" type="line"/>
      <point x="301.2" y="524.8" type="line" smooth="yes"/>
      <point x="301.2" y="706.4"/>
      <point x="415.2" y="853.2"/>
      <point x="578.8" y="853.2" type="curve" smooth="yes"/>
      <point x="624.0" y="853.2"/>
      <point x="664.4" y="840.8"/>
    </contour>
  </outline>
</glyph>
<glyph name="s" format="2">
  <advance width="883.0"/>
  <unicode hex="0073"/>
  <outline>
    <contour>
      <point x="434.0" y="-18.8" type="curve" smooth="yes"/>
      <point x="633.2" y="-29.2"/>
      <point x="821.2" y="94.8"/>
      <point x="821.2" y="280.4" type="curve" smooth="yes"/>
      <point x="824.0" y="449.2"/>
      <point x="658.0" y="528.4"/>
      <point x="478.0" y="586.0" type="curve" smooth="yes"/>
      <point x="361.2" y="623.2"/>
      <point x="254.0" y="634.0"/>
      <point x="254.0" y="732.0" type="curve" smooth="yes"/>
      <point x="254.0" y="830.0"/>
      <point x="350.8" y="880.4"/>
      <point x="464.8" y="876.8" type="curve" smooth="yes"/>
      <point x="554.4" y="874.0"/>
      <point x="646.0" y="825.2"/>
      <point x="678.8" y="756.8" type="curve"/>
      <point x="822.8" y="842.4" type="line"/>
      <point x="756.0" y="960.0"/>
      <point x="613.2" y="1034.0"/>
      <point x="452.4" y="1034.0" type="curve" smooth="yes"/>
      <point x="259.2" y="1034.0"/>
      <point x="84.4" y="916.4"/>
      <point x="84.4" y="728.0" type="curve" smooth="yes"/>
      <point x="84.4" y="552.8"/>
      <point x="238.4" y="475.2"/>
      <point x="442.0" y="424.8" type="curve" smooth="yes"/>
      <point x="540.8" y="398.4"/>
      <point x="653.2" y="374.0"/>
      <point x="653.2" y="278.0" type="curve" smooth="yes"/>
      <point x="653.2" y="188.0"/>
      <point x="555.2" y="137.2"/>
      <point x="451.2" y="137.2" type="curve" smooth="yes"/>
      <point x="349.2" y="137.2"/>
      <point x="243.2" y="197.2"/>
      <point x="214.4" y="262.4" type="curve"/>
      <point x="60.0" y="196.0" type="line"/>
      <point x="112.8" y="70.8"/>
      <point x="272.4" y="-12.0"/>
    </contour>
  </outline>
</glyph>
<glyph name="t" format="2">
  <advance width="700.0"/>
  <unicode hex="0074"/>
  <outline>
    <contour>
      <point x="641.2" y="820.0" type="line"/>
      <point x="641.2" y="1000.0" type="line"/>
      <point x="419.2" y="1000.0" type="line"/>
      <point x="418.4" y="1314.0" type="line"/>
      <point x="238.4" y="1314.0" type="line"/>
      <point x="239.2" y="1000.0" type="line"/>
      <point x="70.8" y="1000.0" type="line"/>
      <point x="70.8" y="820.0" type="line"/>
      <point x="239.2" y="820.0" type="line"/>
      <point x="238.4" y="0.0" type="line"/>
      <point x="418.4" y="0.0" type="line"/>
      <point x="419.2" y="820.0" type="line"/>
    </contour>
  </outline>
</glyph>
<glyph name="u" format="2">
  <advance width="1167.0"/>
  <unicode hex="0075"/>
  <outline>
    <contour>
      <point x="120.0" y="472.0" type="line"/>
      <point x="122.8" y="201.2"/>
      <point x="298.4" y="-27.2"/>
      <point x="562.4" y="-27.2" type="curve"/>
      <point x="690.4" y="-27.2"/>
      <point x="794.8" y="41.2"/>
      <point x="867.2" y="148.8" type="curve"/>
      <point x="867.2" y="0.0" type="line"/>
      <point x="1047.2" y="0.0" type="line"/>
      <point x="1047.2" y="1000.0" type="line"/>
      <point x="867.2" y="1000.0" type="line"/>
      <point x="867.2" y="476.0" type="line"/>
      <point x="867.2" y="295.2"/>
      <point x="752.0" y="148.4"/>
      <point x="589.2" y="148.4" type="curve"/>
      <point x="424.4" y="148.4"/>
      <point x="300.0" y="295.2"/>
      <point x="300.0" y="476.0" type="curve"/>
      <point x="300.0" y="1000.0" type="line"/>
      <point x="120.0" y="1000.0" type="line"/>
    </contour>
  </outline>
</glyph>
<glyph name="v" format="2">
  <advance width="1080.0"/>
  <unicode hex="0076"/>
  <outline>
    <contour>
      <point x="655.2" y="0.0" type="line"/>
      <point x="1020.0" y="1002.4" type="line"/>
      <point x="828.0" y="1002.4" type="line"/>
      <point x="540.4" y="208.8" type="line"/>
      <point x="252.0" y="1002.4" type="line"/>
      <point x="60.0" y="1002.4" type="line"/>
      <point x="424.8" y="0.0" type="line"/>
    </contour>
  </outline>
</glyph>
<glyph name="w" format="2">
  <advance width="1656.0"/>
  <unicode hex="0077"/>
  <outline>
    <contour>
      <point x="576.0" y="0.0" type="line"/>
      <point x="826.8" y="750.8" type="line"/>
      <point x="1079.2" y="0.0" type="line"/>
      <point x="1261.2" y="0.0" type="line"/>
      <point x="1596.0" y="1000.8" type="line"/>
      <point x="1418.8" y="1000.8" type="line"/>
      <point x="1169.2" y="254.8" type="line"/>
      <point x="920.0" y="1000.8" type="line"/>
      <point x="736.0" y="1000.8" type="line"/>
      <point x="486.8" y="254.8" type="line"/>
      <point x="236.4" y="1000.8" type="line"/>
      <point x="60.0" y="1000.8" type="line"/>
      <point x="394.8" y="0.0" type="line"/>
    </contour>
  </outline>
</glyph>
<glyph name="x" format="2">
  <advance width="1114.0"/>
  <unicode hex="0078"/>
  <outline>
    <contour>
      <point x="80.0" y="0.0" type="line"/>
      <point x="302.0" y="0.0" type="line"/>
      <point x="557.2" y="350.4" type="line"/>
      <point x="812.0" y="0.0" type="line"/>
      <point x="1034.0" y="0.0" type="line"/>
      <point x="668.0" y="502.0" type="line"/>
      <point x="1032.4" y="1002.4" type="line"/>
      <point x="810.4" y="1002.4" type="line"/>
      <point x="557.2" y="656.4" type="line"/>
      <point x="304.4" y="1002.4" type="line"/>
      <point x="82.4" y="1002.4" type="line"/>
      <point x="446.0" y="502.0" type="line"/>
    </contour>
  </outline>
</glyph>
<glyph name="y" format="2">
  <advance width="1076.0"/>
  <unicode hex="0079"/>
  <outline>
    <contour>
      <point x="805.2" y="1000.0" type="line"/>
      <point x="529.2" y="246.8" type="line"/>
      <point x="276.8" y="1000.0" type="line"/>
      <point x="80.0" y="1000.0" type="line"/>
      <point x="439.2" y="0.8" type="line"/>
      <point x="258.4" y="-500.0" type="line"/>
      <point x="449.2" y="-500.0" type="line"/>
      <point x="996.4" y="1000.0" type="line"/>
    </contour>
  </outline>
</glyph>
<glyph name="z" format="2">
  <advance width="1074.0"/>
  <unicode hex="007A"/>
  <outline>
    <contour>
      <point x="964.4" y="820.0" type="line"/>
      <point x="964.4" y="1000.0" type="line"/>
      <point x="110.4" y="1000.0" type="line"/>
      <point x="110.4" y="820.0" type="line"/>
      <point x="707.2" y="820.0" type="line"/>
      <point x="110.4" y="180.0" type="line"/>
      <point x="110.4" y="0.0" type="line"/>
      <point x="964.4" y="0.0" type="line"/>
      <point x="964.4" y="180.0" type="line"/>
      <point x="366.8" y="180.0" type="line"/>
    </contour>
  </outline>
</glyph>
<glyph name="braceleft" format="2">
  <advance width="810.0"/>
  <unicode hex="007B"/>
  <outline>
    <contour>
      <point x="623.2" y="-112.8" type="curve" smooth="yes"/>
      <point x="710.0" y="-112.8" type="line"/>
      <point x="710.0" y="67.2" type="line"/>
      <point x="623.2" y="67.2" type="line" smooth="yes"/>
      <point x="528.8" y="67.2"/>
      <point x="453.2" y="142.8"/>
      <point x="453.2" y="237.2" type="curve" smooth="yes"/>
      <point x="453.2" y="489.2" type="line" smooth="yes"/>
      <point x="449.2" y="564.4"/>
      <point x="400.0" y="579.2"/>
      <point x="342.4" y="643.2" type="curve" smooth="yes"/>
      <point x="398.4" y="702.8"/>
      <point x="449.2" y="724.0"/>
      <point x="453.2" y="798.0" type="curve" smooth="yes"/>
      <point x="453.2" y="1050.0" type="line" smooth="yes"/>
      <point x="453.2" y="1144.4"/>
      <point x="530.4" y="1220.0"/>
      <point x="623.2" y="1220.0" type="curve" smooth="yes"/>
      <point x="710.0" y="1220.0" type="line"/>
      <point x="710.0" y="1400.0" type="line"/>
      <point x="623.2" y="1400.0" type="line" smooth="yes"/>
      <point x="429.2" y="1400.0"/>
      <point x="273.2" y="1242.0"/>
      <point x="273.2" y="1050.0" type="curve" smooth="yes"/>
      <point x="273.2" y="804.0" type="line" smooth="yes"/>
      <point x="270.0" y="726.8"/>
      <point x="120.0" y="727.2"/>
      <point x="120.0" y="643.2" type="curve" smooth="yes"/>
      <point x="120.0" y="559.2"/>
      <point x="270.0" y="564.4"/>
      <point x="273.2" y="482.0" type="curve" smooth="yes"/>
      <point x="273.2" y="237.2" type="line" smooth="yes"/>
      <point x="273.2" y="44.0"/>
      <point x="429.2" y="-112.8"/>
    </contour>
  </outline>
</glyph>
<glyph name="bar" format="2">
  <advance width="460.0"/>
  <unicode hex="007C"/>
  <outline>
    <contour>
      <point x="140.0" y="1400.0" type="line"/>
      <point x="140.0" y="-302.0" type="line"/>
      <point x="320.0" y="-302.0" type="line"/>
      <point x="320.0" y="1400.0" type="line"/>
    </contour>
  </outline>
</glyph>
<glyph name="braceright" format="2">
  <advance width="810.0"/>
  <unicode hex="007D"/>
  <outline>
    <contour>
      <point x="100.0" y="-112.8" type="line"/>
      <point x="186.8" y="-112.8" type="line" smooth="yes"/>
      <point x="380.8" y="-112.8"/>
      <point x="536.8" y="44.0"/>
      <point x="536.8" y="237.2" type="curve" smooth="yes"/>
      <point x="536.8" y="482.0" type="line" smooth="yes"/>
      <point x="540.0" y="564.4"/>
      <point x="690.0" y="559.2"/>
      <point x="690.0" y="643.2" type="curve" smooth="yes"/>
      <point x="690.0" y="727.2"/>
      <point x="540.0" y="726.8"/>
      <point x="536.8" y="804.0" type="curve" smooth="yes"/>
      <point x="536.8" y="1050.0" type="line" smooth="yes"/>
      <point x="536.8" y="1242.0"/>
      <point x="380.8" y="1400.0"/>
      <point x="186.8" y="1400.0" type="curve" smooth="yes"/>
      <point x="100.0" y="1400.0" type="line"/>
      <point x="100.0" y="1220.0" type="line"/>
      <point x="186.8" y="1220.0" type="line" smooth="yes"/>
      <point x="280.4" y="1220.0"/>
      <point x="356.8" y="1144.4"/>
      <point x="356.8" y="1050.0" type="curve" smooth="yes"/>
      <point x="356.8" y="798.0" type="line"/>
      <point x="360.8" y="724.0"/>
      <point x="412.4" y="702.8"/>
      <point x="468.4" y="643.2" type="curve" smooth="yes"/>
      <point x="410.0" y="579.2"/>
      <point x="360.8" y="564.4"/>
      <point x="356.8" y="489.2" type="curve"/>
      <point x="356.8" y="237.2" type="line" smooth="yes"/>
      <point x="356.8" y="142.8"/>
      <point x="281.2" y="67.2"/>
      <point x="186.8" y="67.2" type="curve" smooth="yes"/>
      <point x="100.0" y="67.2" type="line"/>
    </contour>
  </outline>
</glyph>
<glyph name="asciitilde" format="2">
  <advance width="1255.0"/>
  <unicode hex="007E"/>
  <outline>
    <contour>
      <point x="921.6" y="413.6" type="curve" smooth="yes"/>
      <point x="1090.4" y="413.6"/>
      <point x="1203.6" y="565.2"/>
      <point x="1168.4" y="734.8" type="curve"/>
      <point x="992.8" y="729.2" type="line"/>
      <point x="1007.2" y="651.2"/>
      <point x="959.2" y="580.8"/>
      <point x="879.6" y="580.8" type="curve" smooth="yes"/>
      <point x="733.2" y="580.8"/>
      <point x="522.4" y="786.4"/>
      <point x="356.4" y="786.4" type="curve" smooth="yes"/>
      <point x="183.6" y="786.4"/>
      <point x="52.4" y="625.2"/>
      <point x="85.2" y="462.8" type="curve"/>
      <point x="261.6" y="465.2" type="line"/>
      <point x="247.2" y="542.4"/>
      <point x="292.8" y="616.8"/>
      <point x="371.6" y="615.2" type="curve" smooth="yes"/>
      <point x="507.6" y="616.8"/>
      <point x="750.8" y="413.6"/>
    </contour>
  </outline>
</glyph>
<glyph name="exclamdown" format="2">
  <advance width="374.0"/>
  <unicode hex="00A1"/>
  <outline>
    <contour>
      <point x="176.0" y="1026.0" type="curve"/>
      <point x="122.8" y="1026.0"/>
      <point x="80.0" y="983.2"/>
      <point x="80.0" y="926.8" type="curve"/>
      <point x="80.0" y="874.4"/>
      <point x="122.8" y="830.8"/>
      <point x="176.0" y="830.8" type="curve"/>
      <point x="231.2" y="830.8"/>
      <point x="274.0" y="874.4"/>
      <point x="274.0" y="926.8" type="curve"/>
      <point x="274.0" y="983.2"/>
      <point x="231.2" y="1026.0"/>
    </contour>
    <contour>
      <point x="254.0" y="580.0" type="line"/>
      <point x="99.2" y="580.0" type="line"/>
      <point x="99.2" y="-400.0" type="line"/>
      <point x="254.0" y="-400.0" type="line"/>
    </contour>
  </outline>
</glyph>
<glyph name="cent" format="2">
  <advance width="1092.0"/>
  <unicode hex="00A2"/>
  <outline>
    <contour>
      <point x="514.8" y="0.0" type="line"/>
      <point x="645.2" y="0.0" type="line"/>
      <point x="645.2" y="204.0" type="line"/>
      <point x="800.4" y="222.4"/>
      <point x="934.4" y="312.4"/>
      <point x="1012.0" y="440.0" type="curve"/>
      <point x="856.0" y="530.0" type="line"/>
      <point x="798.0" y="438.0"/>
      <point x="690.8" y="378.0"/>
      <point x="582.0" y="378.0" type="curve" smooth="yes"/>
      <point x="408.0" y="378.0"/>
      <point x="260.0" y="521.2"/>
      <point x="260.0" y="702.0" type="curve" smooth="yes"/>
      <point x="260.0" y="879.2"/>
      <point x="406.4" y="1024.0"/>
      <point x="582.0" y="1024.0" type="curve" smooth="yes"/>
      <point x="690.8" y="1024.0"/>
      <point x="798.0" y="964.0"/>
      <point x="856.0" y="872.0" type="curve"/>
      <point x="1012.0" y="962.0" type="line"/>
      <point x="934.4" y="1090.4"/>
      <point x="800.4" y="1180.4"/>
      <point x="645.2" y="1198.0" type="curve"/>
      <point x="645.2" y="1400.0" type="line"/>
      <point x="514.8" y="1400.0" type="line"/>
      <point x="514.8" y="1198.0" type="line"/>
      <point x="270.0" y="1166.4"/>
      <point x="80.0" y="956.0"/>
      <point x="80.0" y="702.0" type="curve" smooth="yes"/>
      <point x="80.0" y="446.8"/>
      <point x="270.0" y="236.8"/>
      <point x="514.8" y="204.0" type="curve"/>
    </contour>
  </outline>
</glyph>
<glyph name="sterling" format="2">
  <advance width="1174.0"/>
  <unicode hex="00A3"/>
  <outline>
    <contour>
      <point x="104.0" y="0.0" type="line"/>
      <point x="1080.8" y="0.0" type="line"/>
      <point x="1080.8" y="180.0" type="line"/>
      <point x="471.2" y="180.0" type="line"/>
      <point x="516.4" y="204.0"/>
      <point x="566.0" y="269.2"/>
      <point x="566.0" y="338.4" type="curve" smooth="yes"/>
      <point x="566.0" y="649.4"/>
      <point x="260.0" y="623.4"/>
      <point x="260.0" y="920.0" type="curve" smooth="yes"/>
      <point x="260.0" y="1099.2"/>
      <point x="406.8" y="1246.0"/>
      <point x="586.0" y="1246.0" type="curve" smooth="yes"/>
      <point x="767.2" y="1246.0"/>
      <point x="914.0" y="1099.2"/>
      <point x="914.0" y="920.0" type="curve"/>
      <point x="1094.0" y="920.0" type="line"/>
      <point x="1094.0" y="1198.8"/>
      <point x="866.4" y="1426.0"/>
      <point x="586.0" y="1426.0" type="curve" smooth="yes"/>
      <point x="308.4" y="1426.0"/>
      <point x="80.0" y="1198.4"/>
      <point x="80.0" y="920.0" type="curve" smooth="yes"/>
      <point x="80.0" y="640.4"/>
      <point x="350.0" y="600.4"/>
      <point x="379.2" y="386.4" type="curve" smooth="yes"/>
      <point x="412.4" y="260.2"/>
      <point x="250.8" y="180.0"/>
      <point x="104.0" y="180.0" type="curve"/>
    </contour>
    <contour>
      <point x="104.0" y="448.0" type="line"/>
      <point x="862.4" y="448.0" type="line"/>
      <point x="862.4" y="578.4" type="line"/>
      <point x="104.0" y="578.4" type="line"/>
    </contour>
  </outline>
</glyph>
<glyph name="currency" format="2">
  <advance width="1000.0"/>
  <unicode hex="00A4"/>
  <outline>
    <contour>
      <point x="172.4" y="279.8" type="line"/>
      <point x="296.8" y="405.8" type="line"/>
      <point x="420.4" y="316.6"/>
      <point x="581.2" y="316.2"/>
      <point x="705.2" y="403.8" type="curve"/>
      <point x="829.2" y="279.8" type="line"/>
      <point x="920.4" y="371.4" type="line"/>
      <point x="797.2" y="495.4" type="line"/>
      <point x="882.8" y="616.2"/>
      <point x="882.8" y="782.2"/>
      <point x="795.2" y="903.8" type="curve"/>
      <point x="920.4" y="1029.8" type="line"/>
      <point x="829.2" y="1120.2" type="line"/>
      <point x="702.0" y="994.2" type="line"/>
      <point x="584.0" y="1077.4"/>
      <point x="417.2" y="1076.6"/>
      <point x="300.4" y="992.2" type="curve"/>
      <point x="172.4" y="1120.2" type="line"/>
      <point x="80.0" y="1029.8" type="line"/>
      <point x="208.4" y="900.6" type="line"/>
      <point x="122.0" y="780.2"/>
      <point x="122.0" y="618.2"/>
      <point x="206.4" y="498.6" type="curve"/>
      <point x="80.0" y="371.4" type="line"/>
    </contour>
    <contour>
      <point x="502.4" y="468.6" type="curve" smooth="yes"/>
      <point x="379.2" y="467.4"/>
      <point x="272.8" y="569.4"/>
      <point x="272.8" y="698.2" type="curve" smooth="yes"/>
      <point x="272.8" y="821.4"/>
      <point x="372.4" y="927.8"/>
      <point x="502.4" y="926.6" type="curve" smooth="yes"/>
      <point x="626.8" y="925.4"/>
      <point x="730.8" y="829.4"/>
      <point x="730.8" y="698.2" type="curve" smooth="yes"/>
      <point x="730.8" y="570.6"/>
      <point x="628.0" y="469.8"/>
    </contour>
  </outline>
</glyph>
<glyph name="yen" format="2">
  <advance width="1270.0"/>
  <unicode hex="00A5"/>
  <outline>
    <contour>
      <point x="545.2" y="0.0" type="line"/>
      <point x="725.2" y="0.0" type="line"/>
      <point x="725.2" y="175.2" type="line"/>
      <point x="999.2" y="175.2" type="line"/>
      <point x="999.2" y="305.6" type="line"/>
      <point x="725.2" y="305.6" type="line"/>
      <point x="725.2" y="441.2" type="line"/>
      <point x="999.2" y="441.2" type="line"/>
      <point x="999.2" y="571.6" type="line"/>
      <point x="725.2" y="571.6" type="line"/>
      <point x="725.2" y="633.2" type="line"/>
      <point x="1200.0" y="1400.0" type="line"/>
      <point x="988.4" y="1400.0" type="line"/>
      <point x="635.2" y="828.8" type="line"/>
      <point x="282.0" y="1400.0" type="line"/>
      <point x="70.4" y="1400.0" type="line"/>
      <point x="545.2" y="633.2" type="line"/>
      <point x="545.2" y="571.6" type="line"/>
      <point x="271.2" y="571.6" type="line"/>
      <point x="271.2" y="441.2" type="line"/>
      <point x="545.2" y="441.2" type="line"/>
      <point x="545.2" y="305.6" type="line"/>
      <point x="271.2" y="305.6" type="line"/>
      <point x="271.2" y="175.2" type="line"/>
      <point x="545.2" y="175.2" type="line"/>
    </contour>
  </outline>
</glyph>
<glyph name="section" format="2">
  <advance width="1086.0"/>
  <unicode hex="00A7"/>
  <outline>
    <contour>
      <point x="544.4" y="-390.4" type="curve" smooth="yes"/>
      <point x="736.8" y="-390.4"/>
      <point x="912.4" y="-272.0"/>
      <point x="912.4" y="-84.4" type="curve" smooth="yes"/>
      <point x="912.4" y="24.8"/>
      <point x="852.0" y="96.0"/>
      <point x="730.8" y="134.0" type="curve"/>
      <point x="868.8" y="194.8"/>
      <point x="966.4" y="339.2"/>
      <point x="966.4" y="499.2" type="curve" smooth="yes"/>
      <point x="966.4" y="742.8"/>
      <point x="806.4" y="893.2"/>
      <point x="564.8" y="942.8" type="curve" smooth="yes"/>
      <point x="444.0" y="969.2"/>
      <point x="344.4" y="990.8"/>
      <point x="344.4" y="1088.4" type="curve" smooth="yes"/>
      <point x="344.4" y="1186.4"/>
      <point x="441.2" y="1236.0"/>
      <point x="555.2" y="1233.2" type="curve" smooth="yes"/>
      <point x="644.0" y="1230.4"/>
      <point x="736.4" y="1180.8"/>
      <point x="769.2" y="1113.2" type="curve"/>
      <point x="913.2" y="1198.0" type="line"/>
      <point x="846.4" y="1316.4"/>
      <point x="702.8" y="1390.4"/>
      <point x="542.0" y="1390.4" type="curve" smooth="yes"/>
      <point x="348.8" y="1390.4"/>
      <point x="174.0" y="1272.0"/>
      <point x="174.0" y="1084.4" type="curve" smooth="yes"/>
      <point x="174.0" y="974.4"/>
      <point x="232.8" y="903.2"/>
      <point x="354.4" y="866.4" type="curve"/>
      <point x="215.2" y="804.0"/>
      <point x="120.0" y="659.2"/>
      <point x="120.0" y="499.2" type="curve" smooth="yes"/>
      <point x="120.0" y="270.4"/>
      <point x="285.2" y="98.0"/>
      <point x="518.0" y="58.4" type="curve" smooth="yes"/>
      <point x="636.8" y="35.2"/>
      <point x="742.0" y="10.4"/>
      <point x="742.0" y="-88.4" type="curve" smooth="yes"/>
      <point x="742.0" y="-186.4"/>
      <point x="645.2" y="-236.0"/>
      <point x="531.2" y="-233.2" type="curve" smooth="yes"/>
      <point x="442.4" y="-230.4"/>
      <point x="350.0" y="-180.8"/>
      <point x="317.2" y="-113.2" type="curve"/>
      <point x="173.2" y="-198.0" type="line"/>
      <point x="240.0" y="-316.4"/>
      <point x="382.8" y="-390.4"/>
    </contour>
    <contour>
      <point x="550.4" y="229.2" type="curve" smooth="yes"/>
      <point x="404.4" y="229.2"/>
      <point x="281.2" y="346.8"/>
      <point x="281.2" y="499.2" type="curve" smooth="yes"/>
      <point x="281.2" y="644.0"/>
      <point x="398.4" y="770.8"/>
      <point x="532.0" y="770.8" type="curve" smooth="yes"/>
      <point x="679.2" y="770.8"/>
      <point x="805.2" y="664.8"/>
      <point x="805.2" y="496.0" type="curve" smooth="yes"/>
      <point x="805.2" y="354.8"/>
      <point x="689.2" y="229.2"/>
    </contour>
  </outline>
</glyph>
<glyph name="copyright" format="2">
  <advance width="1843.0"/>
  <unicode hex="00A9"/>
  <outline>
    <contour>
      <point x="920.8" y="-256.4" type="curve" smooth="yes"/>
      <point x="1386.0" y="-256.4"/>
      <point x="1762.8" y="120.0"/>
      <point x="1762.8" y="585.2" type="curve" smooth="yes"/>
      <point x="1762.8" y="1050.8"/>
      <point x="1386.0" y="1426.0"/>
      <point x="920.8" y="1426.0" type="curve" smooth="yes"/>
      <point x="456.4" y="1426.0"/>
      <point x="80.0" y="1050.4"/>
      <point x="80.0" y="585.2" type="curve" smooth="yes"/>
      <point x="80.0" y="120.0"/>
      <point x="456.4" y="-256.4"/>
    </contour>
    <contour>
      <point x="920.8" y="-76.4" type="curve" smooth="yes"/>
      <point x="563.2" y="-76.4"/>
      <point x="260.0" y="212.4"/>
      <point x="260.0" y="585.2" type="curve" smooth="yes"/>
      <point x="260.0" y="945.2"/>
      <point x="552.0" y="1244.4"/>
      <point x="920.8" y="1246.0" type="curve" smooth="yes"/>
      <point x="1284.8" y="1248.4"/>
      <point x="1582.8" y="950.0"/>
      <point x="1582.8" y="585.2" type="curve" smooth="yes"/>
      <point x="1582.8" y="226.8"/>
      <point x="1292.8" y="-76.4"/>
    </contour>
    <component base="c" xOffset="367.2" yOffset="85.2"/>
  </outline>
</glyph>
<glyph name="logicalnot" format="2">
  <advance width="992.0"/>
  <unicode hex="00AC"/>
  <outline>
    <contour>
      <point x="732.4" y="305.4" type="line"/>
      <point x="912.4" y="305.4" type="line"/>
      <point x="912.4" y="895.4" type="line"/>
      <point x="80.0" y="895.4" type="line"/>
      <point x="80.0" y="715.4" type="line"/>
      <point x="732.4" y="715.4" type="line"/>
    </contour>
  </outline>
</glyph>
<glyph name="registered" format="2">
  <advance width="1045.0"/>
  <unicode hex="00AE"/>
  <outline>
    <contour>
      <point x="522.4" y="438.4" type="curve" smooth="yes"/>
      <point x="776.0" y="439.2"/>
      <point x="985.2" y="646.4"/>
      <point x="985.2" y="901.2" type="curve" smooth="yes"/>
      <point x="985.2" y="1148.0"/>
      <point x="782.8" y="1362.8"/>
      <point x="522.4" y="1362.8" type="curve" smooth="yes"/>
      <point x="266.4" y="1362.8"/>
      <point x="60.0" y="1154.0"/>
      <point x="60.0" y="901.2" type="curve" smooth="yes"/>
      <point x="60.0" y="648.0"/>
      <point x="264.8" y="439.2"/>
    </contour>
    <contour>
      <point x="522.4" y="573.2" type="curve" smooth="yes"/>
      <point x="342.4" y="573.2"/>
      <point x="194.8" y="720.0"/>
      <point x="194.8" y="901.2" type="curve" smooth="yes"/>
      <point x="194.8" y="1081.2"/>
      <point x="342.4" y="1228.0"/>
      <point x="522.4" y="1228.0" type="curve" smooth="yes"/>
      <point x="702.8" y="1228.0"/>
      <point x="850.4" y="1081.2"/>
      <point x="850.4" y="901.2" type="curve" smooth="yes"/>
      <point x="850.4" y="720.0"/>
      <point x="702.8" y="573.2"/>
    </contour>
    <contour>
      <point x="394.0" y="706.0" type="line"/>
      <point x="479.2" y="706.0" type="line"/>
      <point x="479.2" y="865.2" type="line"/>
      <point x="504.4" y="865.2" type="line"/>
      <point x="597.2" y="706.0" type="line"/>
      <point x="695.2" y="706.0" type="line"/>
      <point x="596.4" y="876.4" type="line"/>
      <point x="640.4" y="893.2"/>
      <point x="670.4" y="938.4"/>
      <point x="670.4" y="990.4" type="curve" smooth="yes"/>
      <point x="670.4" y="1060.4"/>
      <point x="616.8" y="1116.4"/>
      <point x="550.4" y="1116.4" type="curve" smooth="yes"/>
      <point x="394.0" y="1116.4" type="line"/>
    </contour>
    <contour>
      <point x="479.2" y="950.4" type="line"/>
      <point x="479.2" y="1031.2" type="line"/>
      <point x="550.4" y="1031.2" type="line" smooth="yes"/>
      <point x="569.2" y="1031.2"/>
      <point x="585.2" y="1013.2"/>
      <point x="585.2" y="990.4" type="curve" smooth="yes"/>
      <point x="585.2" y="968.4"/>
      <point x="569.2" y="950.4"/>
      <point x="550.4" y="950.4" type="curve" smooth="yes"/>
    </contour>
  </outline>
</glyph>
<glyph name="macron" format="2">
  <advance width="1200.0"/>
  <unicode hex="00AF"/>
  <outline>
    <contour>
      <point x="262.0" y="1382.0" type="line"/>
      <point x="262.0" y="1202.0" type="line"/>
      <point x="938.0" y="1202.0" type="line"/>
      <point x="938.0" y="1382.0" type="line"/>
    </contour>
  </outline>
</glyph>
<glyph name="degree" format="2">
  <advance width="785.0"/>
  <unicode hex="00B0"/>
  <outline>
    <contour>
      <point x="393.2" y="768.0" type="curve" smooth="yes"/>
      <point x="562.0" y="768.0"/>
      <point x="705.2" y="903.2"/>
      <point x="705.2" y="1080.0" type="curve" smooth="yes"/>
      <point x="705.2" y="1247.2"/>
      <point x="570.0" y="1392.0"/>
      <point x="393.2" y="1392.0" type="curve" smooth="yes"/>
      <point x="219.2" y="1392.0"/>
      <point x="80.0" y="1250.0"/>
      <point x="80.0" y="1080.0" type="curve" smooth="yes"/>
      <point x="80.0" y="912.8"/>
      <point x="216.8" y="768.0"/>
    </contour>
    <contour>
      <point x="393.2" y="948.0" type="curve" smooth="yes"/>
      <point x="319.2" y="948.0"/>
      <point x="260.0" y="1006.0"/>
      <point x="260.0" y="1080.0" type="curve" smooth="yes"/>
      <point x="260.0" y="1154.0"/>
      <point x="319.2" y="1212.0"/>
      <point x="393.2" y="1212.0" type="curve" smooth="yes"/>
      <point x="466.0" y="1212.0"/>
      <point x="525.2" y="1154.0"/>
      <point x="525.2" y="1080.0" type="curve" smooth="yes"/>
      <point x="525.2" y="1006.0"/>
      <point x="466.0" y="948.0"/>
    </contour>
  </outline>
</glyph>
<glyph name="plusminus" format="2">
  <advance width="1160.0"/>
  <unicode hex="00B1"/>
  <outline>
    <contour>
      <point x="490.0" y="350.4" type="line"/>
      <point x="670.0" y="350.4" type="line"/>
      <point x="670.0" y="760.4" type="line"/>
      <point x="1080.0" y="760.4" type="line"/>
      <point x="1080.0" y="940.4" type="line"/>
      <point x="670.0" y="940.4" type="line"/>
      <point x="670.0" y="1350.4" type="line"/>
      <point x="490.0" y="1350.4" type="line"/>
      <point x="490.0" y="940.4" type="line"/>
      <point x="80.0" y="940.4" type="line"/>
      <point x="80.0" y="760.4" type="line"/>
      <point x="490.0" y="760.4" type="line"/>
    </contour>
    <contour>
      <point x="80.0" y="0.8" type="line"/>
      <point x="1080.0" y="0.8" type="line"/>
      <point x="1080.0" y="180.8" type="line"/>
      <point x="80.0" y="180.8" type="line"/>
    </contour>
  </outline>
</glyph>
<glyph name="twosuperior" format="2">
  <advance width="698.5"/>
  <unicode hex="00B2"/>
  <outline>
    <contour>
      <point x="96.0" y="818.0" type="line"/>
      <point x="548.6" y="818.0" type="line"/>
      <point x="548.6" y="938.0" type="line"/>
      <point x="310.2" y="938.0" type="line"/>
      <point x="415.6" y="1018.0"/>
      <point x="554.2" y="1138.4"/>
      <point x="554.2" y="1249.4" type="curve"/>
      <point x="554.2" y="1376.4"/>
      <point x="452.6" y="1468.0"/>
      <point x="326.6" y="1468.0" type="curve"/>
      <point x="198.8" y="1468.0"/>
      <point x="96.0" y="1376.4"/>
      <point x="96.0" y="1249.4" type="curve"/>
      <point x="216.0" y="1249.4" type="line"/>
      <point x="216.0" y="1310.8"/>
      <point x="265.2" y="1354.4"/>
      <point x="326.6" y="1354.4" type="curve"/>
      <point x="386.8" y="1354.4"/>
      <point x="434.2" y="1310.8"/>
      <point x="434.2" y="1249.4" type="curve"/>
      <point x="398.2" y="1123.6"/>
      <point x="202.2" y="999.8"/>
      <point x="96.0" y="928.0" type="curve"/>
    </contour>
  </outline>
</glyph>
<glyph name="threesuperior" format="2">
  <advance width="564.0"/>
  <unicode hex="00B3"/>
  <outline>
    <contour>
      <point x="283.0" y="798.0" type="curve" smooth="yes"/>
      <point x="397.4" y="798.0"/>
      <point x="492.0" y="881.4"/>
      <point x="492.0" y="998.0" type="curve" smooth="yes"/>
      <point x="492.0" y="1063.2"/>
      <point x="467.8" y="1109.8"/>
      <point x="419.8" y="1151.0" type="curve"/>
      <point x="451.0" y="1178.2"/>
      <point x="474.2" y="1230.4"/>
      <point x="474.2" y="1283.0" type="curve" smooth="yes"/>
      <point x="474.2" y="1390.8"/>
      <point x="386.8" y="1467.2"/>
      <point x="278.0" y="1467.2" type="curve" smooth="yes"/>
      <point x="170.2" y="1467.2"/>
      <point x="82.8" y="1390.8"/>
      <point x="82.8" y="1283.0" type="curve"/>
      <point x="202.8" y="1283.0" type="line"/>
      <point x="202.8" y="1324.2"/>
      <point x="237.8" y="1352.8"/>
      <point x="278.0" y="1352.8" type="curve" smooth="yes"/>
      <point x="319.2" y="1352.8"/>
      <point x="354.2" y="1324.2"/>
      <point x="354.2" y="1283.0" type="curve" smooth="yes"/>
      <point x="354.2" y="1232.4"/>
      <point x="318.8" y="1191.8"/>
      <point x="235.6" y="1191.8" type="curve"/>
      <point x="235.6" y="1103.6" type="line"/>
      <point x="324.0" y="1103.6"/>
      <point x="372.0" y="1056.8"/>
      <point x="372.0" y="998.0" type="curve" smooth="yes"/>
      <point x="372.0" y="946.8"/>
      <point x="332.8" y="912.4"/>
      <point x="283.0" y="912.4" type="curve" smooth="yes"/>
      <point x="231.2" y="912.4"/>
      <point x="192.0" y="946.8"/>
      <point x="192.0" y="998.0" type="curve"/>
      <point x="72.0" y="998.0" type="line"/>
      <point x="72.0" y="881.4"/>
      <point x="167.4" y="798.0"/>
    </contour>
  </outline>
</glyph>
<glyph name="paragraph" format="2">
  <advance width="934.0"/>
  <unicode hex="00B6"/>
  <outline>
    <contour>
      <point x="420.0" y="-302.0" type="line"/>
      <point x="600.0" y="-302.0" type="line"/>
      <point x="600.0" y="1400.0" type="line"/>
      <point x="420.0" y="1400.0" type="line" smooth="yes"/>
      <point x="232.0" y="1400.0"/>
      <point x="80.0" y="1247.2"/>
      <point x="80.0" y="1059.2" type="curve" smooth="yes"/>
      <point x="80.0" y="870.0"/>
      <point x="232.0" y="718.0"/>
      <point x="420.0" y="718.0" type="curve"/>
    </contour>
    <contour>
      <point x="674.0" y="-302.0" type="line"/>
      <point x="854.0" y="-302.0" type="line"/>
      <point x="854.0" y="1400.0" type="line"/>
      <point x="674.0" y="1400.0" type="line"/>
    </contour>
  </outline>
</glyph>
<glyph name="periodcentered" format="2">
  <advance width="355.0"/>
  <unicode hex="00B7"/>
  <outline>
    <contour>
      <point x="177.2" y="502.8" type="curve" smooth="yes"/>
      <point x="231.2" y="502.8"/>
      <point x="275.2" y="545.6"/>
      <point x="275.2" y="600.8" type="curve" smooth="yes"/>
      <point x="275.2" y="653.2"/>
      <point x="231.2" y="697.2"/>
      <point x="177.2" y="697.2" type="curve" smooth="yes"/>
      <point x="122.8" y="697.2"/>
      <point x="80.0" y="653.2"/>
      <point x="80.0" y="600.8" type="curve" smooth="yes"/>
      <point x="80.0" y="545.6"/>
      <point x="122.8" y="502.8"/>
    </contour>
  </outline>
</glyph>
<glyph name="onesuperior" format="2">
  <advance width="433.5"/>
  <unicode hex="00B9"/>
  <outline>
    <contour>
      <point x="169.2" y="818.0" type="line"/>
      <point x="289.2" y="818.0" type="line"/>
      <point x="289.2" y="1449.0" type="line"/>
      <point x="112.8" y="1449.0" type="line"/>
      <point x="96.0" y="1329.0" type="line"/>
      <point x="169.2" y="1329.0" type="line"/>
    </contour>
  </outline>
</glyph>
<glyph name="questiondown" format="2">
  <advance width="1024.0"/>
  <unicode hex="00BF"/>
  <outline>
    <contour>
      <point x="502.0" y="-426.8" type="curve" smooth="yes"/>
      <point x="735.2" y="-426.8"/>
      <point x="924.0" y="-238.0"/>
      <point x="924.0" y="-6.0" type="curve"/>
      <point x="744.0" y="-6.0" type="line"/>
      <point x="744.0" y="-138.8"/>
      <point x="634.8" y="-246.8"/>
      <point x="502.0" y="-246.8" type="curve" smooth="yes"/>
      <point x="369.2" y="-246.8"/>
      <point x="260.0" y="-138.8"/>
      <point x="260.0" y="-6.0" type="curve" smooth="yes"/>
      <point x="260.0" y="86.8"/>
      <point x="306.0" y="168.8"/>
      <point x="381.2" y="210.0" type="curve" smooth="yes"/>
      <point x="504.0" y="277.4"/>
      <point x="578.0" y="402.2"/>
      <point x="578.0" y="540.0" type="curve"/>
      <point x="398.0" y="540.0" type="line"/>
      <point x="398.0" y="466.6"/>
      <point x="359.2" y="401.8"/>
      <point x="296.0" y="368.4" type="curve" smooth="yes"/>
      <point x="162.0" y="296.8"/>
      <point x="80.0" y="152.8"/>
      <point x="80.0" y="-6.0" type="curve" smooth="yes"/>
      <point x="80.0" y="-238.0"/>
      <point x="268.8" y="-426.8"/>
    </contour>
    <contour>
      <point x="487.2" y="830.8" type="curve" smooth="yes"/>
      <point x="540.8" y="830.8"/>
      <point x="584.4" y="874.4"/>
      <point x="584.4" y="926.8" type="curve" smooth="yes"/>
      <point x="584.4" y="983.2"/>
      <point x="540.8" y="1026.0"/>
      <point x="487.2" y="1026.0" type="curve" smooth="yes"/>
      <point x="433.2" y="1026.0"/>
      <point x="390.4" y="983.2"/>
      <point x="390.4" y="926.8" type="curve" smooth="yes"/>
      <point x="390.4" y="874.4"/>
      <point x="433.2" y="830.8"/>
    </contour>
  </outline>
</glyph>
<glyph name="AE" format="2">
  <advance width="1642.0"/>
  <unicode hex="00C6"/>
  <outline>
    <contour>
      <point x="80.0" y="0.0" type="line"/>
      <point x="270.8" y="0.0" type="line"/>
      <point x="373.2" y="280.0" type="line"/>
      <point x="820.4" y="280.0" type="line"/>
      <point x="820.4" y="0.0" type="line"/>
      <point x="1542.0" y="0.0" type="line"/>
      <point x="1542.0" y="180.0" type="line"/>
      <point x="1000.4" y="180.0" type="line"/>
      <point x="1000.4" y="610.0" type="line"/>
      <point x="1446.0" y="610.0" type="line"/>
      <point x="1446.0" y="790.0" type="line"/>
      <point x="1000.4" y="790.0" type="line"/>
      <point x="1000.4" y="1220.0" type="line"/>
      <point x="1542.0" y="1220.0" type="line"/>
      <point x="1542.0" y="1400.0" type="line"/>
      <point x="588.8" y="1400.0" type="line"/>
    </contour>
    <contour>
      <point x="439.2" y="460.0" type="line"/>
      <point x="716.4" y="1220.0" type="line"/>
      <point x="820.4" y="1220.0" type="line"/>
      <point x="820.4" y="460.0" type="line"/>
    </contour>
  </outline>
</glyph>
<glyph name="Eth" format="2">
  <advance width="1457.0"/>
  <unicode hex="00D0"/>
  <outline>
    <contour>
      <point x="234.4" y="0.0" type="line"/>
      <point x="697.2" y="0.0" type="line" smooth="yes"/>
      <point x="1083.2" y="0.0"/>
      <point x="1397.2" y="314.0"/>
      <point x="1397.2" y="700.0" type="curve" smooth="yes"/>
      <point x="1397.2" y="1086.0"/>
      <point x="1083.2" y="1400.0"/>
      <point x="697.2" y="1400.0" type="curve" smooth="yes"/>
      <point x="234.4" y="1400.0" type="line"/>
      <point x="234.4" y="840.0" type="line"/>
      <point x="100.0" y="840.0" type="line"/>
      <point x="100.0" y="660.0" type="line"/>
      <point x="234.4" y="660.0" type="line"/>
    </contour>
    <contour>
      <point x="414.4" y="180.0" type="line"/>
      <point x="414.4" y="660.0" type="line"/>
      <point x="732.4" y="660.0" type="line"/>
      <point x="732.4" y="840.0" type="line"/>
      <point x="414.4" y="840.0" type="line"/>
      <point x="414.4" y="1220.0" type="line"/>
      <point x="697.2" y="1220.0" type="line" smooth="yes"/>
      <point x="978.8" y="1220.0"/>
      <point x="1217.2" y="990.4"/>
      <point x="1217.2" y="700.0" type="curve" smooth="yes"/>
      <point x="1217.2" y="416.8"/>
      <point x="986.8" y="180.0"/>
      <point x="697.2" y="180.0" type="curve" smooth="yes"/>
    </contour>
  </outline>
</glyph>
<glyph name="multiply" format="2">
  <advance width="994.0"/>
  <unicode hex="00D7"/>
  <outline>
    <contour>
      <point x="207.2" y="183.2" type="line"/>
      <point x="496.4" y="472.8" type="line"/>
      <point x="786.0" y="183.2" type="line"/>
      <point x="914.0" y="310.4" type="line"/>
      <point x="622.8" y="600.0" type="line"/>
      <point x="914.0" y="890.4" type="line"/>
      <point x="786.0" y="1016.8" type="line"/>
      <point x="496.4" y="727.2" type="line"/>
      <point x="207.2" y="1016.8" type="line"/>
      <point x="80.0" y="890.4" type="line"/>
      <point x="369.2" y="600.0" type="line"/>
      <point x="80.0" y="310.4" type="line"/>
    </contour>
  </outline>
</glyph>
<glyph name="Oslash" format="2">
  <advance width="1540.0"/>
  <unicode hex="00D8"/>
  <outline>
    <contour>
      <point x="418.0" y="-92.4" type="line"/>
      <point x="492.8" y="38.8" type="line"/>
      <point x="578.0" y="-1.6"/>
      <point x="671.2" y="-26.0"/>
      <point x="770.0" y="-26.0" type="curve" smooth="yes"/>
      <point x="1150.0" y="-26.0"/>
      <point x="1460.0" y="300.0"/>
      <point x="1460.0" y="700.0" type="curve" smooth="yes"/>
      <point x="1460.0" y="929.2"/>
      <point x="1358.0" y="1132.8"/>
      <point x="1200.4" y="1265.2" type="curve"/>
      <point x="1280.0" y="1402.4" type="line"/>
      <point x="1124.0" y="1492.4" type="line"/>
      <point x="1049.2" y="1362.4" type="line"/>
      <point x="964.0" y="1403.2"/>
      <point x="870.8" y="1426.0"/>
      <point x="770.0" y="1426.0" type="curve" smooth="yes"/>
      <point x="390.0" y="1426.0"/>
      <point x="80.0" y="1100.0"/>
      <point x="80.0" y="700.0" type="curve" smooth="yes"/>
      <point x="80.0" y="472.4"/>
      <point x="184.0" y="268.0"/>
      <point x="341.2" y="136.0" type="curve"/>
      <point x="262.0" y="-2.3999999999999995" type="line"/>
    </contour>
    <contour>
      <point x="436.4" y="300.8" type="line"/>
      <point x="328.8" y="396.4"/>
      <point x="260.0" y="540.0"/>
      <point x="260.0" y="700.0" type="curve" smooth="yes"/>
      <point x="260.0" y="997.2"/>
      <point x="487.2" y="1246.0"/>
      <point x="770.0" y="1246.0" type="curve" smooth="yes"/>
      <point x="837.2" y="1246.0"/>
      <point x="901.2" y="1230.4"/>
      <point x="956.8" y="1202.4" type="curve"/>
    </contour>
    <contour>
      <point x="770.0" y="154.0" type="curve" smooth="yes"/>
      <point x="704.8" y="154.0"/>
      <point x="640.8" y="170.4"/>
      <point x="585.2" y="198.8" type="curve"/>
      <point x="1106.4" y="1100.0" type="line"/>
      <point x="1212.4" y="1004.4"/>
      <point x="1280.0" y="860.0"/>
      <point x="1280.0" y="700.0" type="curve" smooth="yes"/>
      <point x="1280.0" y="402.8"/>
      <point x="1052.8" y="154.0"/>
    </contour>
  </outline>
</glyph>
<glyph name="Thorn" format="2">
  <advance width="1070.0"/>
  <unicode hex="00DE"/>
  <outline>
    <contour>
      <point x="120.0" y="0.0" type="line"/>
      <point x="300.0" y="0.0" type="line"/>
      <point x="300.0" y="286.4" type="line"/>
      <point x="588.0" y="286.4" type="line" smooth="yes"/>
      <point x="806.0" y="286.4"/>
      <point x="990.4" y="467.2"/>
      <point x="990.4" y="700.0" type="curve" smooth="yes"/>
      <point x="990.4" y="930.4"/>
      <point x="813.2" y="1114.4"/>
      <point x="588.0" y="1114.4" type="curve" smooth="yes"/>
      <point x="300.0" y="1114.4" type="line"/>
      <point x="300.0" y="1400.0" type="line"/>
      <point x="120.0" y="1400.0" type="line"/>
    </contour>
    <contour>
      <point x="300.0" y="466.4" type="line"/>
      <point x="300.0" y="956.0" type="line"/>
      <point x="570.8" y="956.0" type="line" smooth="yes"/>
      <point x="702.0" y="956.0"/>
      <point x="810.4" y="850.4"/>
      <point x="810.4" y="710.8" type="curve" smooth="yes"/>
      <point x="810.4" y="572.0"/>
      <point x="702.0" y="466.4"/>
      <point x="570.8" y="466.4" type="curve" smooth="yes"/>
    </contour>
  </outline>
</glyph>
<glyph name="germandbls" format="2">
  <advance width="1098.0"/>
  <unicode hex="00DF"/>
  <outline>
    <contour>
      <point x="120.0" y="0.0" type="line"/>
      <point x="300.0" y="0.0" type="line"/>
      <point x="300.0" y="972.4" type="line" smooth="yes"/>
      <point x="300.0" y="1121.2"/>
      <point x="420.4" y="1240.8"/>
      <point x="569.2" y="1240.8" type="curve" smooth="yes"/>
      <point x="688.4" y="1240.8"/>
      <point x="786.4" y="1138.4"/>
      <point x="786.4" y="1012.4" type="curve" smooth="yes"/>
      <point x="786.4" y="886.4"/>
      <point x="688.4" y="790.0"/>
      <point x="569.2" y="783.2" type="curve" smooth="yes"/>
      <point x="542.8" y="780.8" type="line"/>
      <point x="542.8" y="630.0" type="line"/>
      <point x="631.2" y="628.4" type="line" smooth="yes"/>
      <point x="766.4" y="624.8"/>
      <point x="875.2" y="522.4"/>
      <point x="875.2" y="392.8" type="curve" smooth="yes"/>
      <point x="875.2" y="264.0"/>
      <point x="766.4" y="157.2"/>
      <point x="631.2" y="157.2" type="curve" smooth="yes"/>
      <point x="542.8" y="157.2" type="line"/>
      <point x="573.2" y="0.0" type="line"/>
      <point x="647.2" y="0.0" type="line" smooth="yes"/>
      <point x="862.4" y="0.0"/>
      <point x="1038.0" y="166.0"/>
      <point x="1038.0" y="382.0" type="curve" smooth="yes"/>
      <point x="1038.0" y="526.0"/>
      <point x="975.2" y="686.8"/>
      <point x="810.8" y="721.2" type="curve"/>
      <point x="916.4" y="776.4"/>
      <point x="966.4" y="898.8"/>
      <point x="966.4" y="1012.4" type="curve" smooth="yes"/>
      <point x="966.4" y="1230.4"/>
      <point x="798.4" y="1399.2"/>
      <point x="586.8" y="1399.2" type="curve" smooth="yes"/>
      <point x="328.0" y="1399.2"/>
      <point x="120.0" y="1189.2"/>
      <point x="120.0" y="932.4" type="curve" smooth="yes"/>
    </contour>
  </outline>
</glyph>
<glyph name="ae" format="2">
  <advance width="1862.5"/>
  <unicode hex="00E6"/>
  <outline>
    <contour>
      <point x="482.4" y="-13.2" type="curve" smooth="yes"/>
      <point x="601.2" y="-13.2" type="line" smooth="yes"/>
      <point x="752.0" y="-13.2"/>
      <point x="862.4" y="68.4"/>
      <point x="917.2" y="193.2" type="curve"/>
      <point x="1002.8" y="69.2"/>
      <point x="1143.2" y="-13.2"/>
      <point x="1302.8" y="-13.2" type="curve" smooth="yes"/>
      <point x="1502.8" y="-13.2"/>
      <point x="1674.8" y="110.8"/>
      <point x="1754.8" y="288.8" type="curve"/>
      <point x="1572.0" y="332.0" type="line"/>
      <point x="1514.4" y="229.2"/>
      <point x="1416.8" y="166.8"/>
      <point x="1302.8" y="166.8" type="curve" smooth="yes"/>
      <point x="1140.8" y="168.0"/>
      <point x="1018.8" y="288.4"/>
      <point x="994.8" y="449.2" type="curve"/>
      <point x="1796.8" y="449.2" type="line"/>
      <point x="1824.0" y="776.4"/>
      <point x="1604.8" y="1040.8"/>
      <point x="1302.8" y="1040.8" type="curve" smooth="yes"/>
      <point x="1138.0" y="1040.8"/>
      <point x="993.2" y="952.4"/>
      <point x="910.8" y="819.2" type="curve"/>
      <point x="852.4" y="952.4"/>
      <point x="746.0" y="1040.8"/>
      <point x="540.8" y="1040.8" type="curve" smooth="yes"/>
      <point x="376.8" y="1040.8"/>
      <point x="224.4" y="1008.8"/>
      <point x="138.8" y="862.8" type="curve"/>
      <point x="294.4" y="772.4" type="line"/>
      <point x="334.8" y="840.0"/>
      <point x="418.4" y="875.2"/>
      <point x="540.8" y="875.2" type="curve" smooth="yes"/>
      <point x="744.8" y="875.2"/>
      <point x="788.4" y="752.0"/>
      <point x="804.4" y="589.2" type="curve"/>
      <point x="392.4" y="589.2" type="line" smooth="yes"/>
      <point x="222.0" y="589.2"/>
      <point x="80.0" y="509.2"/>
      <point x="75.2" y="331.2" type="curve" smooth="yes"/>
      <point x="76.8" y="105.2"/>
      <point x="250.4" y="-13.2"/>
    </contour>
    <contour>
      <point x="534.0" y="106.8" type="curve" smooth="yes"/>
      <point x="374.8" y="106.8"/>
      <point x="252.4" y="162.8"/>
      <point x="250.0" y="314.0" type="curve" smooth="yes"/>
      <point x="253.2" y="424.8"/>
      <point x="346.0" y="449.2"/>
      <point x="478.0" y="449.2" type="curve" smooth="yes"/>
      <point x="800.0" y="449.2" type="line"/>
      <point x="800.0" y="364.0" type="line" smooth="yes"/>
      <point x="800.0" y="288.4"/>
      <point x="760.4" y="106.8"/>
    </contour>
    <contour>
      <point x="989.2" y="589.2" type="line"/>
      <point x="1010.8" y="752.8"/>
      <point x="1140.8" y="880.8"/>
      <point x="1302.8" y="880.8" type="curve" smooth="yes"/>
      <point x="1464.0" y="880.8"/>
      <point x="1596.8" y="748.8"/>
      <point x="1615.2" y="589.2" type="curve"/>
    </contour>
  </outline>
</glyph>
<glyph name="icircumflex" format="2">
  <advance width="413.2"/>
  <unicode hex="00EE"/>
  <outline>
    <contour>
      <point x="115.2" y="1000.0" type="line"/>
      <point x="115.2" y="0.0" type="line"/>
      <point x="295.2" y="0.0" type="line"/>
      <point x="295.2" y="1000.0" type="line"/>
    </contour>
    <component base="circumflexcomb" xOffset="-380.0"/>
  </outline>
</glyph>
<glyph name="divide" format="2">
  <advance width="1160.0"/>
  <unicode hex="00F7"/>
  <outline>
    <contour>
      <point x="80.0" y="510.0" type="line"/>
      <point x="1080.0" y="510.0" type="line"/>
      <point x="1080.0" y="690.0" type="line"/>
      <point x="80.0" y="690.0" type="line"/>
    </contour>
    <contour>
      <point x="580.0" y="1077.2" type="curve"/>
      <point x="514.4" y="1077.2"/>
      <point x="465.2" y="1022.0"/>
      <point x="465.2" y="960.8" type="curve"/>
      <point x="465.2" y="898.0"/>
      <point x="514.4" y="846.0"/>
      <point x="580.0" y="846.0" type="curve"/>
      <point x="642.0" y="846.0"/>
      <point x="694.0" y="898.0"/>
      <point x="694.0" y="960.8" type="curve"/>
      <point x="694.0" y="1022.0"/>
      <point x="642.0" y="1077.2"/>
    </contour>
    <contour>
      <point x="580.0" y="353.2" type="curve"/>
      <point x="514.4" y="353.2"/>
      <point x="465.2" y="298.8"/>
      <point x="465.2" y="236.8" type="curve"/>
      <point x="465.2" y="174.0"/>
      <point x="514.4" y="122.8"/>
      <point x="580.0" y="122.8" type="curve"/>
      <point x="642.0" y="122.8"/>
      <point x="696.4" y="174.0"/>
      <point x="696.4" y="236.8" type="curve"/>
      <point x="696.4" y="298.8"/>
      <point x="642.0" y="353.2"/>
    </contour>
  </outline>
</glyph>
<glyph name="oslash" format="2">
  <advance width="1120.0"/>
  <unicode hex="00F8"/>
  <outline>
    <contour>
      <point x="320.8" y="-62.8" type="line"/>
      <point x="367.2" y="17.2" type="line"/>
      <point x="426.4" y="-10.0"/>
      <point x="490.8" y="-26.0"/>
      <point x="560.0" y="-26.0" type="curve" smooth="yes"/>
      <point x="836.0" y="-26.0"/>
      <point x="1060.0" y="210.0"/>
      <point x="1060.0" y="500.0" type="curve" smooth="yes"/>
      <point x="1060.0" y="664.4"/>
      <point x="990.4" y="809.2"/>
      <point x="880.4" y="905.2" type="curve"/>
      <point x="930.4" y="991.2" type="line"/>
      <point x="800.0" y="1066.4" type="line"/>
      <point x="752.4" y="986.4" type="line"/>
      <point x="695.2" y="1012.8"/>
      <point x="628.8" y="1028.0"/>
      <point x="560.0" y="1028.0" type="curve" smooth="yes"/>
      <point x="284.0" y="1028.0"/>
      <point x="60.0" y="792.0"/>
      <point x="60.0" y="500.0" type="curve" smooth="yes"/>
      <point x="60.0" y="339.2"/>
      <point x="131.2" y="194.4"/>
      <point x="241.2" y="98.4" type="curve"/>
      <point x="191.2" y="12.4" type="line"/>
    </contour>
    <contour>
      <point x="330.0" y="251.2" type="line"/>
      <point x="268.4" y="308.8"/>
      <point x="228.0" y="394.4"/>
      <point x="228.0" y="490.8" type="curve" smooth="yes"/>
      <point x="228.0" y="739.2"/>
      <point x="457.2" y="921.2"/>
      <point x="670.4" y="841.2" type="curve"/>
    </contour>
    <contour>
      <point x="450.4" y="162.4" type="curve"/>
      <point x="790.8" y="752.4" type="line"/>
      <point x="852.0" y="693.2"/>
      <point x="892.0" y="606.4"/>
      <point x="892.0" y="509.2" type="curve" smooth="yes"/>
      <point x="892.0" y="264.8"/>
      <point x="670.8" y="80.0"/>
    </contour>
  </outline>
</glyph>
<glyph name="thorn" format="2">
  <advance width="1236.0"/>
  <unicode hex="00FE"/>
  <outline>
    <contour>
      <point x="120.0" y="-500.0" type="line"/>
      <point x="300.0" y="-500.0" type="line"/>
      <point x="300.0" y="162.4" type="line"/>
      <point x="366.8" y="49.2"/>
      <point x="479.2" y="-28.0"/>
      <point x="630.4" y="-28.0" type="curve" smooth="yes"/>
      <point x="920.8" y="-28.0"/>
      <point x="1156.4" y="208.0"/>
      <point x="1156.4" y="500.0" type="curve" smooth="yes"/>
      <point x="1156.4" y="790.0"/>
      <point x="920.8" y="1026.0"/>
      <point x="630.4" y="1026.0" type="curve" smooth="yes"/>
      <point x="479.2" y="1026.0"/>
      <point x="366.8" y="948.8"/>
      <point x="300.0" y="836.4" type="curve"/>
      <point x="300.0" y="1400.0" type="line"/>
      <point x="120.0" y="1400.0" type="line"/>
    </contour>
    <contour>
      <point x="628.0" y="146.8" type="curve" smooth="yes"/>
      <point x="438.0" y="146.8"/>
      <point x="314.8" y="306.4"/>
      <point x="314.8" y="500.0" type="curve" smooth="yes"/>
      <point x="314.8" y="694.8"/>
      <point x="440.4" y="852.4"/>
      <point x="628.0" y="852.4" type="curve" smooth="yes"/>
      <point x="819.2" y="852.4"/>
      <point x="972.8" y="693.2"/>
      <point x="972.8" y="500.0" type="curve" smooth="yes"/>
      <point x="972.8" y="302.4"/>
      <point x="815.2" y="146.8"/>
    </contour>
  </outline>
</glyph>
<glyph name="idotless" format="2">
  <advance width="420.8"/>
  <unicode hex="0131"/>
  <outline>
    <contour>
      <point x="120.0" y="1000.0" type="line"/>
      <point x="120.0" y="0.0" type="line"/>
      <point x="300.0" y="0.0" type="line"/>
      <point x="300.0" y="1000.0" type="line"/>
    </contour>
  </outline>
</glyph>
<glyph name="OE" format="2">
  <advance width="2151.0"/>
  <unicode hex="0152"/>
  <outline>
    <contour>
      <point x="770.0" y="-26.0" type="curve" smooth="yes"/>
      <point x="983.2" y="-26.0"/>
      <point x="1172.0" y="86.8"/>
      <point x="1282.4" y="254.4" type="curve"/>
      <point x="1282.4" y="0.0" type="line"/>
      <point x="2051.2" y="0.0" type="line"/>
      <point x="2051.2" y="180.0" type="line"/>
      <point x="1462.4" y="180.0" type="line"/>
      <point x="1462.4" y="610.0" type="line"/>
      <point x="1955.2" y="610.0" type="line"/>
      <point x="1955.2" y="790.0" type="line"/>
      <point x="1462.4" y="790.0" type="line"/>
      <point x="1462.4" y="1220.0" type="line"/>
      <point x="2051.2" y="1220.0" type="line"/>
      <point x="2051.2" y="1400.0" type="line"/>
      <point x="1282.4" y="1400.0" type="line"/>
      <point x="1282.4" y="1146.4" type="line"/>
      <point x="1172.0" y="1313.2"/>
      <point x="983.2" y="1426.0"/>
      <point x="770.0" y="1426.0" type="curve" smooth="yes"/>
      <point x="390.0" y="1426.0"/>
      <point x="80.0" y="1100.0"/>
      <point x="80.0" y="700.0" type="curve" smooth="yes"/>
      <point x="80.0" y="300.0"/>
      <point x="390.0" y="-26.0"/>
    </contour>
    <contour>
      <point x="770.0" y="154.0" type="curve" smooth="yes"/>
      <point x="488.8" y="154.0"/>
      <point x="260.0" y="400.4"/>
      <point x="260.0" y="700.0" type="curve" smooth="yes"/>
      <point x="260.0" y="997.2"/>
      <point x="487.2" y="1246.0"/>
      <point x="770.0" y="1246.0" type="curve" smooth="yes"/>
      <point x="1051.2" y="1246.0"/>
      <point x="1280.0" y="998.8"/>
      <point x="1280.0" y="700.0" type="curve" smooth="yes"/>
      <point x="1280.0" y="402.8"/>
      <point x="1052.8" y="154.0"/>
    </contour>
  </outline>
</glyph>
<glyph name="oe" format="2">
  <advance width="1939.0"/>
  <unicode hex="0153"/>
  <outline>
    <contour>
      <point x="560.0" y="-26.0" type="curve" smooth="yes"/>
      <point x="736.0" y="-26.0"/>
      <point x="890.4" y="75.2"/>
      <point x="970.0" y="222.4" type="curve"/>
      <point x="1050.4" y="75.2"/>
      <point x="1204.0" y="-26.0"/>
      <point x="1380.0" y="-26.0" type="curve" smooth="yes"/>
      <point x="1580.0" y="-26.0"/>
      <point x="1752.0" y="98.0"/>
      <point x="1832.0" y="276.0" type="curve"/>
      <point x="1649.2" y="319.2" type="line"/>
      <point x="1590.8" y="216.4"/>
      <point x="1494.0" y="154.0"/>
      <point x="1380.0" y="154.0" type="curve" smooth="yes"/>
      <point x="1218.0" y="155.2"/>
      <point x="1096.0" y="274.8"/>
      <point x="1072.0" y="436.4" type="curve"/>
      <point x="1874.0" y="436.4" type="line"/>
      <point x="1901.2" y="762.8"/>
      <point x="1682.0" y="1028.0"/>
      <point x="1380.0" y="1028.0" type="curve" smooth="yes"/>
      <point x="1204.0" y="1028.0"/>
      <point x="1050.4" y="926.8"/>
      <point x="970.0" y="778.8" type="curve"/>
      <point x="890.4" y="926.8"/>
      <point x="736.0" y="1028.0"/>
      <point x="560.0" y="1028.0" type="curve" smooth="yes"/>
      <point x="284.0" y="1028.0"/>
      <point x="60.0" y="792.0"/>
      <point x="60.0" y="500.0" type="curve" smooth="yes"/>
      <point x="60.0" y="210.0"/>
      <point x="284.0" y="-26.0"/>
    </contour>
    <contour>
      <point x="560.0" y="154.0" type="curve" smooth="yes"/>
      <point x="386.4" y="154.0"/>
      <point x="240.0" y="306.4"/>
      <point x="240.0" y="500.0" type="curve" smooth="yes"/>
      <point x="240.0" y="686.8"/>
      <point x="379.2" y="848.0"/>
      <point x="560.0" y="848.0" type="curve" smooth="yes"/>
      <point x="738.4" y="848.0"/>
      <point x="880.0" y="689.2"/>
      <point x="880.0" y="500.0" type="curve" smooth="yes"/>
      <point x="880.0" y="314.0"/>
      <point x="741.2" y="154.0"/>
    </contour>
    <contour>
      <point x="1066.4" y="576.4" type="line"/>
      <point x="1088.0" y="740.0"/>
      <point x="1218.0" y="868.0"/>
      <point x="1380.0" y="868.0" type="curve" smooth="yes"/>
      <point x="1541.2" y="868.0"/>
      <point x="1674.0" y="736.0"/>
      <point x="1692.4" y="576.4" type="curve"/>
    </contour>
  </outline>
</glyph>
<glyph name="caron" format="2">
  <advance width="612.0"/>
  <unicode hex="02C7"/>
  <outline>
    <contour>
      <point x="220.8" y="1166.0" type="line"/>
      <point x="392.4" y="1166.0" type="line"/>
      <point x="492.4" y="1400.0" type="line"/>
      <point x="370.8" y="1400.0" type="line"/>
      <point x="307.2" y="1245.2" type="line"/>
      <point x="240.8" y="1400.0" type="line"/>
      <point x="120.0" y="1400.0" type="line"/>
    </contour>
  </outline>
</glyph>
<glyph name="breve" format="2">
  <advance width="1144.0"/>
  <unicode hex="02D8"/>
  <outline>
    <contour>
      <point x="572.0" y="1128.0" type="curve" smooth="yes"/>
      <point x="752.0" y="1128.0"/>
      <point x="904.0" y="1274.4"/>
      <point x="904.0" y="1460.0" type="curve"/>
      <point x="784.0" y="1460.0" type="line"/>
      <point x="784.0" y="1342.0"/>
      <point x="688.0" y="1248.0"/>
      <point x="572.0" y="1248.0" type="curve" smooth="yes"/>
      <point x="459.2" y="1248.0"/>
      <point x="360.0" y="1340.4"/>
      <point x="360.0" y="1460.0" type="curve"/>
      <point x="240.0" y="1460.0" type="line"/>
      <point x="240.0" y="1278.0"/>
      <point x="390.0" y="1128.0"/>
    </contour>
  </outline>
</glyph>
<glyph name="ogonek" format="2">
  <advance width="1132.0"/>
  <unicode hex="02DB"/>
  <outline>
    <contour>
      <point x="627.2" y="-398.8" type="curve" smooth="yes"/>
      <point x="704.0" y="-398.8" type="line"/>
      <point x="704.0" y="-260.0" type="line"/>
      <point x="624.8" y="-260.0" type="line" smooth="yes"/>
      <point x="507.2" y="-260.0"/>
      <point x="400.8" y="-154.4"/>
      <point x="400.8" y="-37.2" type="curve" smooth="yes"/>
      <point x="400.8" y="62.0" type="line"/>
      <point x="262.0" y="62.0" type="line"/>
      <point x="262.0" y="-34.8" type="line" smooth="yes"/>
      <point x="262.0" y="-236.4"/>
      <point x="425.2" y="-398.8"/>
    </contour>
  </outline>
</glyph>
<glyph name="gravecomb" format="2">
  <unicode hex="0300"/>
  <outline>
    <contour>
      <point x="320.0" y="1426.0" type="line"/>
      <point x="490.4" y="1138.0" type="line"/>
      <point x="580.0" y="1138.0" type="line"/>
      <point x="500.0" y="1426.0" type="line"/>
    </contour>
  </outline>
</glyph>
<glyph name="circumflexcomb" format="2">
  <unicode hex="0302"/>
  <outline>
    <contour>
      <point x="500.8" y="1400.0" type="line"/>
      <point x="400.0" y="1166.0" type="line"/>
      <point x="520.8" y="1166.0" type="line"/>
      <point x="587.2" y="1320.8" type="line"/>
      <point x="650.8" y="1166.0" type="line"/>
      <point x="772.4" y="1166.0" type="line"/>
      <point x="672.4" y="1400.0" type="line"/>
    </contour>
  </outline>
</glyph>
<glyph name="tildecomb" format="2">
  <unicode hex="0303"/>
  <outline>
    <contour>
      <point x="782.8" y="1254.0" type="curve" smooth="yes"/>
      <point x="908.8" y="1254.0"/>
      <point x="986.8" y="1369.2"/>
      <point x="942.4" y="1506.0" type="curve"/>
      <point x="828.0" y="1469.2" type="line"/>
      <point x="841.2" y="1434.4"/>
      <point x="834.8" y="1376.4"/>
      <point x="792.0" y="1376.4" type="curve" smooth="yes"/>
      <point x="735.2" y="1376.4"/>
      <point x="570.0" y="1520.0"/>
      <point x="470.8" y="1520.0" type="curve" smooth="yes"/>
      <point x="341.2" y="1520.0"/>
      <point x="268.8" y="1402.4"/>
      <point x="314.0" y="1272.4" type="curve"/>
      <point x="426.8" y="1303.2" type="line"/>
      <point x="414.0" y="1351.2"/>
      <point x="431.2" y="1385.2"/>
      <point x="459.2" y="1397.2" type="curve" smooth="yes"/>
      <point x="512.8" y="1420.0"/>
      <point x="683.2" y="1254.0"/>
    </contour>
  </outline>
</glyph>
<glyph name="dotaccentcomb" format="2">
  <unicode hex="0307"/>
  <outline>
    <contour>
      <point x="499.2" y="1176.8" type="curve" smooth="yes"/>
      <point x="552.8" y="1176.8"/>
      <point x="596.4" y="1218.4"/>
      <point x="596.4" y="1274.0" type="curve" smooth="yes"/>
      <point x="596.4" y="1329.2"/>
      <point x="552.8" y="1371.2"/>
      <point x="499.2" y="1371.2" type="curve" smooth="yes"/>
      <point x="442.8" y="1371.2"/>
      <point x="400.0" y="1329.2"/>
      <point x="400.0" y="1274.0" type="curve" smooth="yes"/>
      <point x="400.0" y="1218.4"/>
      <point x="442.8" y="1176.8"/>
    </contour>
  </outline>
</glyph>
<glyph name="dieresiscomb" format="2">
  <unicode hex="0308"/>
  <outline>
    <contour>
      <point x="500.0" y="1176.8" type="curve" smooth="yes"/>
      <point x="554.4" y="1176.8"/>
      <point x="598.0" y="1218.4"/>
      <point x="598.0" y="1274.0" type="curve" smooth="yes"/>
      <point x="598.0" y="1328.4"/>
      <point x="554.4" y="1372.0"/>
      <point x="500.0" y="1372.0" type="curve" smooth="yes"/>
      <point x="444.4" y="1372.0"/>
      <point x="400.0" y="1328.4"/>
      <point x="400.0" y="1274.0" type="curve" smooth="yes"/>
      <point x="400.0" y="1218.4"/>
      <point x="444.4" y="1176.8"/>
    </contour>
    <contour>
      <point x="846.4" y="1176.8" type="curve" smooth="yes"/>
      <point x="900.0" y="1176.8"/>
      <point x="944.4" y="1218.4"/>
      <point x="944.4" y="1274.0" type="curve" smooth="yes"/>
      <point x="944.4" y="1328.4"/>
      <point x="900.0" y="1372.0"/>
      <point x="846.4" y="1372.0" type="curve" smooth="yes"/>
      <point x="790.0" y="1372.0"/>
      <point x="746.4" y="1328.4"/>
      <point x="746.4" y="1274.0" type="curve" smooth="yes"/>
      <point x="746.4" y="1218.4"/>
      <point x="790.0" y="1176.8"/>
    </contour>
  </outline>
</glyph>
<glyph name="ringcomb" format="2">
  <unicode hex="030A"/>
  <outline>
    <contour>
      <point x="568.8" y="1112.4" type="curve" smooth="yes"/>
      <point x="662.0" y="1112.4"/>
      <point x="738.4" y="1188.0"/>
      <point x="738.4" y="1283.2" type="curve" smooth="yes"/>
      <point x="738.4" y="1374.4"/>
      <point x="662.0" y="1450.8"/>
      <point x="568.8" y="1450.8" type="curve" smooth="yes"/>
      <point x="476.4" y="1450.8"/>
      <point x="400.0" y="1374.4"/>
      <point x="400.0" y="1283.2" type="curve" smooth="yes"/>
      <point x="400.0" y="1190.0"/>
      <point x="476.4" y="1112.4"/>
    </contour>
    <contour>
      <point x="568.8" y="1191.2" type="curve" smooth="yes"/>
      <point x="518.8" y="1191.2"/>
      <point x="478.8" y="1231.2"/>
      <point x="478.8" y="1283.2" type="curve" smooth="yes"/>
      <point x="478.8" y="1331.2"/>
      <point x="518.8" y="1371.2"/>
      <point x="568.8" y="1371.2" type="curve" smooth="yes"/>
      <point x="618.8" y="1371.2"/>
      <point x="658.8" y="1331.2"/>
      <point x="658.8" y="1283.2" type="curve" smooth="yes"/>
      <point x="658.8" y="1231.2"/>
      <point x="618.8" y="1191.2"/>
    </contour>
  </outline>
</glyph>
<glyph name="cedillacomb" format="2">
  <unicode hex="0327"/>
  <outline>
    <contour>
      <point x="400.0" y="-306.0" type="line"/>
      <point x="476.8" y="-306.0" type="line" smooth="yes"/>
      <point x="678.8" y="-306.0"/>
      <point x="842.0" y="-142.8"/>
      <point x="842.0" y="58.0" type="curve" smooth="yes"/>
      <point x="842.0" y="134.8" type="line"/>
      <point x="703.2" y="134.8" type="line"/>
      <point x="703.2" y="56.4" type="line" smooth="yes"/>
      <point x="703.2" y="-60.8"/>
      <point x="596.8" y="-167.2"/>
      <point x="479.2" y="-167.2" type="curve" smooth="yes"/>
      <point x="400.0" y="-167.2" type="line"/>
    </contour>
  </outline>
</glyph>
<glyph name="mu" format="2">
  <advance width="1087.0"/>
  <unicode hex="03BC"/>
  <outline>
    <contour>
      <point x="80.0" y="-432.0" type="line"/>
      <point x="260.0" y="-432.0" type="line"/>
      <point x="260.0" y="104.0" type="line"/>
      <point x="321.2" y="26.0"/>
      <point x="412.8" y="-27.2"/>
      <point x="522.4" y="-27.2" type="curve" smooth="yes"/>
      <point x="650.4" y="-27.2"/>
      <point x="754.8" y="41.2"/>
      <point x="827.2" y="148.8" type="curve"/>
      <point x="827.2" y="0.0" type="line"/>
      <point x="1007.2" y="0.0" type="line"/>
      <point x="1007.2" y="1000.0" type="line"/>
      <point x="827.2" y="1000.0" type="line"/>
      <point x="827.2" y="476.0" type="line" smooth="yes"/>
      <point x="827.2" y="295.2"/>
      <point x="712.0" y="148.4"/>
      <point x="549.2" y="148.4" type="curve" smooth="yes"/>
      <point x="384.4" y="148.4"/>
      <point x="260.0" y="295.2"/>
      <point x="260.0" y="476.0" type="curve" smooth="yes"/>
      <point x="260.0" y="1000.0" type="line"/>
      <point x="80.0" y="1000.0" type="line"/>
    </contour>
  </outline>
</glyph>
<glyph name="Germandbls" format="2">
  <advance width="1158.0"/>
  <unicode hex="1E9E"/>
  <outline>
    <contour>
      <point x="120.0" y="0.0" type="line"/>
      <point x="300.0" y="0.0" type="line"/>
      <point x="300.0" y="972.4" type="line" smooth="yes"/>
      <point x="300.0" y="1121.2"/>
      <point x="420.0" y="1240.8"/>
      <point x="558.0" y="1240.8" type="curve" smooth="yes"/>
      <point x="676.0" y="1240.8"/>
      <point x="781.2" y="1215.2"/>
      <point x="782.0" y="1113.2" type="curve" smooth="yes"/>
      <point x="782.8" y="1036.0"/>
      <point x="550.0" y="806.0"/>
      <point x="554.0" y="699.2" type="curve" smooth="yes"/>
      <point x="556.4" y="628.4" type="line"/>
      <point x="630.4" y="628.4" type="line" smooth="yes"/>
      <point x="764.8" y="628.4"/>
      <point x="935.2" y="562.4"/>
      <point x="935.2" y="394.4" type="curve" smooth="yes"/>
      <point x="935.2" y="224.0"/>
      <point x="766.4" y="157.2"/>
      <point x="631.2" y="157.2" type="curve" smooth="yes"/>
      <point x="542.8" y="157.2" type="line"/>
      <point x="582.8" y="0.0" type="line"/>
      <point x="647.2" y="0.0" type="line" smooth="yes"/>
      <point x="862.4" y="0.0"/>
      <point x="1098.0" y="136.4"/>
      <point x="1098.0" y="392.4" type="curve" smooth="yes"/>
      <point x="1098.0" y="586.8"/>
      <point x="906.0" y="754.8"/>
      <point x="716.8" y="726.8" type="curve"/>
      <point x="886.8" y="949.2"/>
      <point x="966.8" y="1020.8"/>
      <point x="966.8" y="1110.4" type="curve" smooth="yes"/>
      <point x="966.8" y="1284.0"/>
      <point x="786.8" y="1399.2"/>
      <point x="588.4" y="1399.2" type="curve" smooth="yes"/>
      <point x="330.0" y="1399.2"/>
      <point x="120.0" y="1189.2"/>
      <point x="120.0" y="930.8" type="curve" smooth="yes"/>
    </contour>
  </outline>
</glyph>
<glyph name="emdash" format="2">
  <advance width="2040.0"/>
  <unicode hex="2014"/>
  <outline>
    <contour>
      <point x="120.0" y="690.0" type="line"/>
      <point x="120.0" y="510.0" type="line"/>
      <point x="1920.0" y="510.0" type="line"/>
      <point x="1920.0" y="690.0" type="line"/>
    </contour>
  </outline>
</glyph>
<glyph name="quoteleft" format="2">
  <advance width="342.0"/>
  <unicode hex="2018"/>
  <unicode hex="02BB"/>
  <outline>
    <contour>
      <point x="60.0" y="878.0" type="line"/>
      <point x="240.0" y="878.0" type="line"/>
      <point x="302.0" y="1400.0" type="line"/>
      <point x="182.0" y="1400.0" type="line"/>
    </contour>
  </outline>
</glyph>
<glyph name="dagger" format="2">
  <advance width="816.0"/>
  <unicode hex="2020"/>
  <outline>
    <contour>
      <point x="80.0" y="1070.4" type="line"/>
      <point x="318.0" y="1070.4" type="line"/>
      <point x="318.0" y="580.0" type="line"/>
      <point x="498.0" y="580.0" type="line"/>
      <point x="498.0" y="1070.4" type="line"/>
      <point x="736.0" y="1070.4" type="line"/>
      <point x="736.0" y="1250.4" type="line"/>
      <point x="498.0" y="1250.4" type="line"/>
      <point x="498.0" y="1500.0" type="line"/>
      <point x="318.0" y="1500.0" type="line"/>
      <point x="318.0" y="1250.4" type="line"/>
      <point x="80.0" y="1250.4" type="line"/>
    </contour>
  </outline>
</glyph>
<glyph name="daggerdbl" format="2">
  <advance width="816.0"/>
  <unicode hex="2021"/>
  <outline>
    <contour>
      <point x="80.0" y="762.0" type="line"/>
      <point x="318.0" y="762.0" type="line"/>
      <point x="318.0" y="560.0" type="line"/>
      <point x="498.0" y="560.0" type="line"/>
      <point x="498.0" y="762.0" type="line"/>
      <point x="736.0" y="762.0" type="line"/>
      <point x="736.0" y="940.0" type="line"/>
      <point x="498.0" y="940.0" type="line"/>
      <point x="498.0" y="1120.0" type="line"/>
      <point x="736.0" y="1120.0" type="line"/>
      <point x="736.0" y="1300.0" type="line"/>
      <point x="498.0" y="1300.0" type="line"/>
      <point x="498.0" y="1500.0" type="line"/>
      <point x="318.0" y="1500.0" type="line"/>
      <point x="318.0" y="1300.0" type="line"/>
      <point x="80.0" y="1300.0" type="line"/>
      <point x="80.0" y="1120.0" type="line"/>
      <point x="318.0" y="1120.0" type="line"/>
      <point x="318.0" y="940.0" type="line"/>
      <point x="80.0" y="940.0" type="line"/>
    </contour>
  </outline>
</glyph>
<glyph name="bullet" format="2">
  <advance width="420.0"/>
  <unicode hex="2022"/>
  <outline>
    <contour>
      <point x="208.8" y="470.4" type="curve" smooth="yes"/>
      <point x="282.0" y="470.4"/>
      <point x="340.0" y="527.2"/>
      <point x="340.0" y="600.8" type="curve" smooth="yes"/>
      <point x="340.0" y="672.4"/>
      <point x="282.0" y="730.4"/>
      <point x="208.8" y="730.4" type="curve" smooth="yes"/>
      <point x="136.8" y="730.4"/>
      <point x="80.0" y="672.4"/>
      <point x="80.0" y="600.8" type="curve" smooth="yes"/>
      <point x="80.0" y="527.2"/>
      <point x="136.8" y="470.4"/>
    </contour>
  </outline>
</glyph>
<glyph name="perthousand" format="2">
  <advance width="1934.0"/>
  <unicode hex="2030"/>
  <outline>
    <contour>
      <point x="176.4" y="0.0" type="line"/>
      <point x="384.0" y="0.0" type="line"/>
      <point x="1192.0" y="1400.0" type="line"/>
      <point x="984.4" y="1400.0" type="line"/>
    </contour>
    <contour>
      <point x="342.8" y="830.4" type="curve"/>
      <point x="484.4" y="830.4"/>
      <point x="605.2" y="944.4"/>
      <point x="605.2" y="1092.0" type="curve"/>
      <point x="605.2" y="1236.8"/>
      <point x="487.2" y="1355.2"/>
      <point x="342.8" y="1355.2" type="curve"/>
      <point x="200.8" y="1355.2"/>
      <point x="80.0" y="1240.8"/>
      <point x="80.0" y="1092.0" type="curve"/>
      <point x="80.0" y="946.0"/>
      <point x="199.2" y="830.4"/>
    </contour>
    <contour>
      <point x="342.8" y="960.0" type="curve"/>
      <point x="268.8" y="960.0"/>
      <point x="210.4" y="1018.8"/>
      <point x="210.4" y="1092.0" type="curve"/>
      <point x="210.4" y="1166.0"/>
      <point x="268.8" y="1224.8"/>
      <point x="342.8" y="1224.8" type="curve"/>
      <point x="416.4" y="1224.8"/>
      <point x="474.8" y="1166.0"/>
      <point x="474.8" y="1092.0" type="curve"/>
      <point x="474.8" y="1018.8"/>
      <point x="416.4" y="960.0"/>
    </contour>
    <contour>
      <point x="996.0" y="44.4" type="curve"/>
      <point x="1140.8" y="44.4"/>
      <point x="1258.8" y="163.2"/>
      <point x="1258.8" y="306.8" type="curve"/>
      <point x="1258.8" y="448.4"/>
      <point x="1144.8" y="570.4"/>
      <point x="996.0" y="570.4" type="curve"/>
      <point x="855.2" y="570.4"/>
      <point x="732.8" y="455.2"/>
      <point x="732.8" y="306.8" type="curve"/>
      <point x="732.8" y="167.2"/>
      <point x="850.0" y="44.4"/>
    </contour>
    <contour>
      <point x="996.0" y="174.0" type="curve"/>
      <point x="923.2" y="174.0"/>
      <point x="863.2" y="234.0"/>
      <point x="863.2" y="306.8" type="curve"/>
      <point x="863.2" y="380.0"/>
      <point x="923.2" y="440.0"/>
      <point x="996.0" y="440.0" type="curve"/>
      <point x="1069.2" y="440.0"/>
      <point x="1129.2" y="380.0"/>
      <point x="1129.2" y="306.8" type="curve"/>
      <point x="1129.2" y="234.0"/>
      <point x="1069.2" y="174.0"/>
    </contour>
    <contour>
      <point x="1591.2" y="44.4" type="curve"/>
      <point x="1736.0" y="44.4"/>
      <point x="1854.0" y="163.2"/>
      <point x="1854.0" y="306.8" type="curve"/>
      <point x="1854.0" y="448.4"/>
      <point x="1740.0" y="570.4"/>
      <point x="1591.2" y="570.4" type="curve"/>
      <point x="1450.4" y="570.4"/>
      <point x="1328.0" y="455.2"/>
      <point x="1328.0" y="306.8" type="curve"/>
      <point x="1328.0" y="167.2"/>
      <point x="1445.2" y="44.4"/>
    </contour>
    <contour>
      <point x="1591.2" y="174.0" type="curve"/>
      <point x="1518.4" y="174.0"/>
      <point x="1458.4" y="234.0"/>
      <point x="1458.4" y="306.8" type="curve"/>
      <point x="1458.4" y="380.0"/>
      <point x="1518.4" y="440.0"/>
      <point x="1591.2" y="440.0" type="curve"/>
      <point x="1664.4" y="440.0"/>
      <point x="1724.4" y="380.0"/>
      <point x="1724.4" y="306.8" type="curve"/>
      <point x="1724.4" y="234.0"/>
      <point x="1664.4" y="174.0"/>
    </contour>
  </outline>
</glyph>
<glyph name="guilsinglleft" format="2">
  <advance width="710.0"/>
  <unicode hex="2039"/>
  <outline>
    <contour>
      <point x="420.0" y="261.0" type="line"/>
      <point x="610.4" y="261.0" type="line"/>
      <point x="310.8" y="601.0" type="line"/>
      <point x="610.4" y="939.0" type="line"/>
      <point x="420.0" y="939.0" type="line"/>
      <point x="120.0" y="601.0" type="line"/>
    </contour>
  </outline>
</glyph>
<glyph name="guilsinglright" format="2">
  <advance width="710.0"/>
  <unicode hex="203A"/>
  <outline>
    <contour>
      <point x="100.0" y="261.0" type="line"/>
      <point x="290.4" y="261.0" type="line"/>
      <point x="590.4" y="601.0" type="line"/>
      <point x="290.4" y="939.0" type="line"/>
      <point x="100.0" y="939.0" type="line"/>
      <point x="398.8" y="601.0" type="line"/>
    </contour>
  </outline>
</glyph>
<glyph name="fraction" format="2">
  <advance width="964.0"/>
  <unicode hex="2044"/>
  <unicode hex="2215"/>
  <outline>
    <contour>
      <point x="0.0" y="0.0" type="line"/>
      <point x="156.4" y="0.0" type="line"/>
      <point x="964.4" y="1400.0" type="line"/>
      <point x="808.0" y="1400.0" type="line"/>
    </contour>
  </outline>
</glyph>
<glyph name="zerosuperior" format="2">
  <advance width="648.0"/>
  <unicode hex="2070"/>
  <outline>
    <contour>
      <point x="324.0" y="798.0" type="curve"/>
      <point x="463.0" y="798.0"/>
      <point x="576.0" y="941.2"/>
      <point x="576.0" y="1133.2" type="curve"/>
      <point x="576.0" y="1324.0"/>
      <point x="463.0" y="1468.0"/>
      <point x="324.0" y="1468.0" type="curve"/>
      <point x="185.0" y="1468.0"/>
      <point x="72.0" y="1324.0"/>
      <point x="72.0" y="1133.2" type="curve"/>
      <point x="72.0" y="941.2"/>
      <point x="185.0" y="798.0"/>
    </contour>
    <contour>
      <point x="324.0" y="912.4" type="curve"/>
      <point x="243.4" y="912.4"/>
      <point x="192.0" y="1026.2"/>
      <point x="192.0" y="1133.2" type="curve"/>
      <point x="192.0" y="1232.8"/>
      <point x="239.2" y="1354.4"/>
      <point x="324.0" y="1354.4" type="curve"/>
      <point x="403.4" y="1354.4"/>
      <point x="456.0" y="1239.4"/>
      <point x="456.0" y="1133.2" type="curve"/>
      <point x="456.0" y="1037.2"/>
      <point x="406.2" y="912.4"/>
    </contour>
  </outline>
</glyph>
<glyph name="foursuperior" format="2">
  <advance width="685.0"/>
  <unicode hex="2074"/>
  <outline>
    <contour>
      <point x="355.0" y="818.0" type="line"/>
      <point x="475.0" y="818.0" type="line"/>
      <point x="475.0" y="930.4" type="line"/>
      <point x="540.8" y="930.4" type="line"/>
      <point x="540.8" y="1050.4" type="line"/>
      <point x="475.0" y="1050.4" type="line"/>
      <point x="475.0" y="1449.0" type="line"/>
      <point x="333.2" y="1449.0" type="line"/>
      <point x="96.0" y="1074.8" type="line"/>
      <point x="96.0" y="930.4" type="line"/>
      <point x="355.0" y="930.4" type="line"/>
    </contour>
    <contour>
      <point x="215.8" y="1050.4" type="line"/>
      <point x="363.2" y="1283.6" type="line"/>
      <point x="363.2" y="1050.4" type="line"/>
    </contour>
  </outline>
</glyph>
<glyph name="fivesuperior" format="2">
  <advance width="688.0"/>
  <unicode hex="2075"/>
  <outline>
    <contour>
      <point x="313.2" y="798.0" type="curve" smooth="yes"/>
      <point x="440.4" y="798.0"/>
      <point x="544.4" y="888.8"/>
      <point x="544.4" y="1015.2" type="curve" smooth="yes"/>
      <point x="544.4" y="1165.2"/>
      <point x="425.4" y="1254.0"/>
      <point x="255.6" y="1240.4" type="curve"/>
      <point x="261.2" y="1341.0" type="line"/>
      <point x="497.2" y="1341.0" type="line"/>
      <point x="497.2" y="1449.0" type="line"/>
      <point x="152.2" y="1449.0" type="line"/>
      <point x="121.4" y="1102.8" type="line"/>
      <point x="194.4" y="1120.4"/>
      <point x="260.8" y="1126.0"/>
      <point x="313.2" y="1124.4" type="curve" smooth="yes"/>
      <point x="374.0" y="1121.8"/>
      <point x="424.4" y="1075.6"/>
      <point x="424.4" y="1015.2" type="curve" smooth="yes"/>
      <point x="424.4" y="956.4"/>
      <point x="374.0" y="912.4"/>
      <point x="313.2" y="912.4" type="curve" smooth="yes"/>
      <point x="253.4" y="912.4"/>
      <point x="204.0" y="956.4"/>
      <point x="204.0" y="1015.2" type="curve"/>
      <point x="84.0" y="1015.2" type="line"/>
      <point x="84.0" y="888.8"/>
      <point x="187.2" y="798.0"/>
    </contour>
  </outline>
</glyph>
<glyph name="sixsuperior" format="2">
  <advance width="706.0"/>
  <unicode hex="2076"/>
  <outline>
    <contour>
      <point x="329.0" y="798.0" type="curve" smooth="yes"/>
      <point x="453.6" y="798.0"/>
      <point x="562.0" y="884.6"/>
      <point x="562.0" y="1017.8" type="curve" smooth="yes"/>
      <point x="562.0" y="1141.2"/>
      <point x="463.6" y="1244.4"/>
      <point x="328.8" y="1245.0" type="curve"/>
      <point x="446.0" y="1446.0" type="line"/>
      <point x="306.2" y="1446.0" type="line"/>
      <point x="123.4" y="1132.4"/>
      <point x="96.0" y="1094.2"/>
      <point x="96.0" y="1019.0" type="curve" smooth="yes"/>
      <point x="96.0" y="891.8"/>
      <point x="195.8" y="798.0"/>
    </contour>
    <contour>
      <point x="329.0" y="912.4" type="curve" smooth="yes"/>
      <point x="272.2" y="912.4"/>
      <point x="221.2" y="947.2"/>
      <point x="217.2" y="1009.2" type="curve" smooth="yes"/>
      <point x="212.2" y="1072.0"/>
      <point x="258.8" y="1130.8"/>
      <point x="329.0" y="1130.8" type="curve" smooth="yes"/>
      <point x="384.0" y="1130.8"/>
      <point x="436.8" y="1090.0"/>
      <point x="440.6" y="1026.8" type="curve" smooth="yes"/>
      <point x="445.8" y="961.8"/>
      <point x="394.0" y="912.4"/>
    </contour>
  </outline>
</glyph>
<glyph name="sevensuperior" format="2">
  <advance width="649.0"/>
  <unicode hex="2077"/>
  <outline>
    <contour>
      <point x="146.4" y="818.0" type="line"/>
      <point x="284.0" y="818.0" type="line"/>
      <point x="577.2" y="1330.2" type="line"/>
      <point x="577.2" y="1447.6" type="line"/>
      <point x="120.0" y="1447.6" type="line"/>
      <point x="120.0" y="1327.6" type="line"/>
      <point x="438.4" y="1327.6" type="line"/>
    </contour>
  </outline>
</glyph>
<glyph name="eightsuperior" format="2">
  <advance width="614.5"/>
  <unicode hex="2078"/>
  <outline>
    <contour>
      <point x="305.8" y="798.0" type="curve" smooth="yes"/>
      <point x="424.4" y="798.0"/>
      <point x="518.4" y="878.8"/>
      <point x="518.4" y="995.4" type="curve" smooth="yes"/>
      <point x="518.4" y="1057.6"/>
      <point x="491.4" y="1112.4"/>
      <point x="449.2" y="1149.8" type="curve"/>
      <point x="482.8" y="1183.6"/>
      <point x="504.0" y="1232.4"/>
      <point x="504.0" y="1281.8" type="curve" smooth="yes"/>
      <point x="504.0" y="1392.4"/>
      <point x="415.2" y="1469.2"/>
      <point x="305.8" y="1469.2" type="curve" smooth="yes"/>
      <point x="198.0" y="1469.2"/>
      <point x="110.4" y="1392.4"/>
      <point x="110.4" y="1281.8" type="curve" smooth="yes"/>
      <point x="110.4" y="1232.4"/>
      <point x="132.4" y="1183.6"/>
      <point x="165.2" y="1149.8" type="curve"/>
      <point x="123.8" y="1112.4"/>
      <point x="96.0" y="1057.6"/>
      <point x="96.0" y="995.4" type="curve" smooth="yes"/>
      <point x="96.0" y="878.8"/>
      <point x="190.8" y="798.0"/>
    </contour>
    <contour>
      <point x="305.8" y="911.2" type="curve" smooth="yes"/>
      <point x="256.8" y="911.2"/>
      <point x="216.0" y="946.4"/>
      <point x="216.0" y="995.4" type="curve" smooth="yes"/>
      <point x="216.0" y="1045.6"/>
      <point x="256.8" y="1086.4"/>
      <point x="305.8" y="1086.4" type="curve" smooth="yes"/>
      <point x="357.6" y="1086.4"/>
      <point x="398.4" y="1045.6"/>
      <point x="398.4" y="995.4" type="curve" smooth="yes"/>
      <point x="398.4" y="946.4"/>
      <point x="357.6" y="911.2"/>
    </contour>
    <contour>
      <point x="305.8" y="1206.4" type="curve" smooth="yes"/>
      <point x="265.4" y="1206.4"/>
      <point x="230.4" y="1241.4"/>
      <point x="230.4" y="1281.8" type="curve" smooth="yes"/>
      <point x="230.4" y="1325.8"/>
      <point x="265.4" y="1354.4"/>
      <point x="305.8" y="1354.4" type="curve" smooth="yes"/>
      <point x="349.8" y="1354.4"/>
      <point x="384.0" y="1325.8"/>
      <point x="384.0" y="1281.8" type="curve" smooth="yes"/>
      <point x="384.0" y="1241.4"/>
      <point x="349.8" y="1206.4"/>
    </contour>
  </outline>
</glyph>
<glyph name="ninesuperior" format="2">
  <advance width="658.5"/>
  <unicode hex="2079"/>
  <outline>
    <contour>
      <point x="186.8" y="818.0" type="line"/>
      <point x="324.8" y="818.0" type="line"/>
      <point x="504.4" y="1127.2" type="line"/>
      <point x="515.2" y="1147.6"/>
      <point x="521.2" y="1168.2"/>
      <point x="522.8" y="1189.4" type="curve" smooth="yes"/>
      <point x="568.4" y="1328.4"/>
      <point x="461.4" y="1468.0"/>
      <point x="305.8" y="1468.0" type="curve" smooth="yes"/>
      <point x="201.4" y="1468.0"/>
      <point x="109.6" y="1406.8"/>
      <point x="88.0" y="1304.6" type="curve" smooth="yes"/>
      <point x="36.8" y="1166.8"/>
      <point x="149.8" y="1009.6"/>
      <point x="303.8" y="1022.0" type="curve"/>
    </contour>
    <contour>
      <point x="305.8" y="1134.0" type="curve" smooth="yes"/>
      <point x="261.0" y="1134.0"/>
      <point x="205.6" y="1163.4"/>
      <point x="195.2" y="1225.8" type="curve" smooth="yes"/>
      <point x="183.2" y="1292.8"/>
      <point x="232.4" y="1354.4"/>
      <point x="305.8" y="1354.4" type="curve" smooth="yes"/>
      <point x="353.6" y="1354.4"/>
      <point x="405.2" y="1323.4"/>
      <point x="416.4" y="1269.2" type="curve" smooth="yes"/>
      <point x="428.4" y="1198.0"/>
      <point x="375.4" y="1134.0"/>
    </contour>
  </outline>
</glyph>
<glyph name="zeroinferior" format="2">
  <advance width="648.0"/>
  <unicode hex="2080"/>
  <outline>
    <contour>
      <point x="324.0" y="-31.0" type="curve"/>
      <point x="463.0" y="-31.0"/>
      <point x="576.0" y="117.0"/>
      <point x="576.0" y="309.0" type="curve"/>
      <point x="576.0" y="499.6"/>
      <point x="463.0" y="649.2"/>
      <point x="324.0" y="649.2" type="curve"/>
      <point x="185.0" y="649.2"/>
      <point x="72.0" y="499.6"/>
      <point x="72.0" y="309.0" type="curve"/>
      <point x="72.0" y="117.0"/>
      <point x="185.0" y="-31.0"/>
    </contour>
    <contour>
      <point x="324.0" y="89.0" type="curve"/>
      <point x="243.4" y="89.0"/>
      <point x="192.0" y="202.8"/>
      <point x="192.0" y="309.0" type="curve"/>
      <point x="192.0" y="408.4"/>
      <point x="239.2" y="529.2"/>
      <point x="324.0" y="529.2" type="curve"/>
      <point x="403.4" y="529.2"/>
      <point x="456.0" y="414.2"/>
      <point x="456.0" y="309.0" type="curve"/>
      <point x="456.0" y="212.8"/>
      <point x="406.2" y="89.0"/>
    </contour>
  </outline>
</glyph>
<glyph name="oneinferior" format="2">
  <advance width="433.5"/>
  <unicode hex="2081"/>
  <outline>
    <contour>
      <point x="169.2" y="0.0" type="line"/>
      <point x="289.2" y="0.0" type="line"/>
      <point x="289.2" y="631.0" type="line"/>
      <point x="112.8" y="631.0" type="line"/>
      <point x="96.0" y="511.0" type="line"/>
      <point x="169.2" y="511.0" type="line"/>
    </contour>
  </outline>
</glyph>
<glyph name="twoinferior" format="2">
  <advance width="698.5"/>
  <unicode hex="2082"/>
  <outline>
    <contour>
      <point x="96.0" y="0.0" type="line"/>
      <point x="548.6" y="0.0" type="line"/>
      <point x="548.6" y="120.0" type="line"/>
      <point x="310.2" y="120.0" type="line"/>
      <point x="415.6" y="200.2"/>
      <point x="554.2" y="320.4"/>
      <point x="554.2" y="432.4" type="curve"/>
      <point x="554.2" y="558.4"/>
      <point x="452.6" y="656.4"/>
      <point x="326.6" y="656.4" type="curve"/>
      <point x="198.8" y="656.4"/>
      <point x="96.0" y="558.4"/>
      <point x="96.0" y="432.4" type="curve"/>
      <point x="216.0" y="432.4" type="line"/>
      <point x="216.0" y="493.8"/>
      <point x="265.2" y="536.4"/>
      <point x="326.6" y="536.4" type="curve"/>
      <point x="386.8" y="536.4"/>
      <point x="434.2" y="493.8"/>
      <point x="434.2" y="432.4" type="curve"/>
      <point x="398.2" y="305.8"/>
      <point x="202.2" y="182.8"/>
      <point x="96.0" y="110.0" type="curve"/>
    </contour>
  </outline>
</glyph>
<glyph name="threeinferior" format="2">
  <advance width="564.0"/>
  <unicode hex="2083"/>
  <outline>
    <contour>
      <point x="283.0" y="-31.0" type="curve" smooth="yes"/>
      <point x="397.4" y="-31.0"/>
      <point x="492.0" y="58.0"/>
      <point x="492.0" y="174.4" type="curve" smooth="yes"/>
      <point x="492.0" y="240.4"/>
      <point x="467.8" y="285.4"/>
      <point x="419.8" y="328.4" type="curve"/>
      <point x="451.0" y="355.6"/>
      <point x="474.2" y="406.8"/>
      <point x="474.2" y="460.4" type="curve" smooth="yes"/>
      <point x="474.2" y="567.4"/>
      <point x="386.8" y="649.2"/>
      <point x="278.0" y="649.2" type="curve" smooth="yes"/>
      <point x="170.2" y="649.2"/>
      <point x="82.8" y="567.4"/>
      <point x="82.8" y="460.4" type="curve"/>
      <point x="202.8" y="460.4" type="line"/>
      <point x="202.8" y="500.6"/>
      <point x="237.8" y="529.2"/>
      <point x="278.0" y="529.2" type="curve" smooth="yes"/>
      <point x="319.2" y="529.2"/>
      <point x="354.2" y="500.6"/>
      <point x="354.2" y="460.4" type="curve" smooth="yes"/>
      <point x="354.2" y="409.8"/>
      <point x="318.8" y="368.4"/>
      <point x="235.6" y="368.4" type="curve"/>
      <point x="235.6" y="279.2" type="line"/>
      <point x="324.0" y="279.2"/>
      <point x="372.0" y="232.4"/>
      <point x="372.0" y="174.4" type="curve" smooth="yes"/>
      <point x="372.0" y="123.4"/>
      <point x="332.8" y="89.0"/>
      <point x="283.0" y="89.0" type="curve" smooth="yes"/>
      <point x="231.2" y="89.0"/>
      <point x="192.0" y="123.4"/>
      <point x="192.0" y="174.4" type="curve"/>
      <point x="72.0" y="174.4" type="line"/>
      <point x="72.0" y="58.0"/>
      <point x="167.4" y="-31.0"/>
    </contour>
  </outline>
</glyph>
<glyph name="fourinferior" format="2">
  <advance width="685.0"/>
  <unicode hex="2084"/>
  <outline>
    <contour>
      <point x="355.0" y="0.0" type="line"/>
      <point x="475.0" y="0.0" type="line"/>
      <point x="475.0" y="112.4" type="line"/>
      <point x="540.8" y="112.4" type="line"/>
      <point x="540.8" y="232.4" type="line"/>
      <point x="475.0" y="232.4" type="line"/>
      <point x="475.0" y="631.0" type="line"/>
      <point x="333.2" y="631.0" type="line"/>
      <point x="96.0" y="256.8" type="line"/>
      <point x="96.0" y="112.4" type="line"/>
      <point x="355.0" y="112.4" type="line"/>
    </contour>
    <contour>
      <point x="215.8" y="232.4" type="line"/>
      <point x="363.2" y="465.6" type="line"/>
      <point x="363.2" y="232.4" type="line"/>
    </contour>
  </outline>
</glyph>
<glyph name="fiveinferior" format="2">
  <advance width="688.0"/>
  <unicode hex="2085"/>
  <outline>
    <contour>
      <point x="313.2" y="-31.0" type="curve"/>
      <point x="440.4" y="-31.0"/>
      <point x="544.4" y="64.4"/>
      <point x="544.4" y="192.4" type="curve"/>
      <point x="544.4" y="319.4"/>
      <point x="454.8" y="420.0"/>
      <point x="315.6" y="420.0" type="curve"/>
      <point x="255.6" y="416.8" type="line"/>
      <point x="261.2" y="515.4" type="line"/>
      <point x="497.2" y="515.4" type="line"/>
      <point x="497.2" y="623.8" type="line"/>
      <point x="152.2" y="623.8" type="line"/>
      <point x="120.2" y="283.2" type="line"/>
      <point x="313.2" y="300.0" type="line"/>
      <point x="374.0" y="300.0"/>
      <point x="424.4" y="252.2"/>
      <point x="424.4" y="192.4" type="curve"/>
      <point x="424.4" y="132.0"/>
      <point x="374.0" y="89.0"/>
      <point x="313.2" y="89.0" type="curve"/>
      <point x="253.4" y="89.0"/>
      <point x="204.0" y="132.0"/>
      <point x="204.0" y="192.4" type="curve"/>
      <point x="84.0" y="192.4" type="line"/>
      <point x="84.0" y="64.4"/>
      <point x="187.2" y="-31.0"/>
    </contour>
  </outline>
</glyph>
<glyph name="sixinferior" format="2">
  <advance width="682.0"/>
  <unicode hex="2086"/>
  <outline>
    <contour>
      <point x="329.0" y="-31.0" type="curve" smooth="yes"/>
      <point x="453.6" y="-31.0"/>
      <point x="562.0" y="61.2"/>
      <point x="562.0" y="194.2" type="curve" smooth="yes"/>
      <point x="562.0" y="317.8"/>
      <point x="463.6" y="421.8"/>
      <point x="328.8" y="421.4" type="curve"/>
      <point x="446.8" y="624.2" type="line"/>
      <point x="307.0" y="624.2" type="line"/>
      <point x="123.4" y="309.8"/>
      <point x="96.0" y="271.6"/>
      <point x="96.0" y="196.4" type="curve" smooth="yes"/>
      <point x="96.0" y="68.4"/>
      <point x="195.8" y="-31.0"/>
    </contour>
    <contour>
      <point x="329.0" y="89.0" type="curve" smooth="yes"/>
      <point x="272.2" y="89.0"/>
      <point x="221.2" y="123.6"/>
      <point x="217.2" y="185.8" type="curve" smooth="yes"/>
      <point x="213.4" y="248.4"/>
      <point x="258.8" y="307.2"/>
      <point x="329.0" y="307.2" type="curve" smooth="yes"/>
      <point x="384.0" y="307.2"/>
      <point x="436.8" y="266.6"/>
      <point x="440.6" y="203.2" type="curve" smooth="yes"/>
      <point x="445.8" y="138.2"/>
      <point x="394.0" y="89.0"/>
    </contour>
  </outline>
</glyph>
<glyph name="seveninferior" format="2">
  <advance width="649.0"/>
  <unicode hex="2087"/>
  <outline>
    <contour>
      <point x="143.4" y="0.0" type="line"/>
      <point x="281.8" y="0.0" type="line"/>
      <point x="577.2" y="513.6" type="line"/>
      <point x="577.2" y="631.0" type="line"/>
      <point x="120.0" y="631.0" type="line"/>
      <point x="120.0" y="511.0" type="line"/>
      <point x="438.4" y="511.0" type="line"/>
    </contour>
  </outline>
</glyph>
<glyph name="eightinferior" format="2">
  <advance width="614.5"/>
  <unicode hex="2088"/>
  <outline>
    <contour>
      <point x="305.8" y="-31.0" type="curve" smooth="yes"/>
      <point x="424.4" y="-31.0"/>
      <point x="518.4" y="55.4"/>
      <point x="518.4" y="171.8" type="curve" smooth="yes"/>
      <point x="518.4" y="234.0"/>
      <point x="491.4" y="289.8"/>
      <point x="449.2" y="326.2" type="curve"/>
      <point x="482.8" y="360.2"/>
      <point x="504.0" y="408.0"/>
      <point x="504.0" y="458.2" type="curve" smooth="yes"/>
      <point x="504.0" y="569.0"/>
      <point x="415.2" y="650.0"/>
      <point x="305.8" y="650.0" type="curve" smooth="yes"/>
      <point x="198.0" y="650.0"/>
      <point x="110.4" y="569.0"/>
      <point x="110.4" y="458.2" type="curve" smooth="yes"/>
      <point x="110.4" y="408.0"/>
      <point x="132.4" y="360.2"/>
      <point x="165.2" y="326.2" type="curve"/>
      <point x="123.8" y="289.8"/>
      <point x="96.0" y="234.0"/>
      <point x="96.0" y="171.8" type="curve" smooth="yes"/>
      <point x="96.0" y="55.4"/>
      <point x="190.8" y="-31.0"/>
    </contour>
    <contour>
      <point x="305.8" y="87.6" type="curve" smooth="yes"/>
      <point x="256.8" y="87.6"/>
      <point x="216.0" y="122.0"/>
      <point x="216.0" y="171.8" type="curve" smooth="yes"/>
      <point x="216.0" y="222.0"/>
      <point x="256.8" y="262.8"/>
      <point x="305.8" y="262.8" type="curve" smooth="yes"/>
      <point x="357.6" y="262.8"/>
      <point x="398.4" y="222.0"/>
      <point x="398.4" y="171.8" type="curve" smooth="yes"/>
      <point x="398.4" y="122.0"/>
      <point x="357.6" y="87.6"/>
    </contour>
    <contour>
      <point x="305.8" y="382.8" type="curve" smooth="yes"/>
      <point x="265.4" y="382.8"/>
      <point x="230.4" y="418.0"/>
      <point x="230.4" y="458.2" type="curve" smooth="yes"/>
      <point x="230.4" y="501.4"/>
      <point x="265.4" y="530.0"/>
      <point x="305.8" y="530.0" type="curve" smooth="yes"/>
      <point x="349.8" y="530.0"/>
      <point x="384.0" y="501.4"/>
      <point x="384.0" y="458.2" type="curve" smooth="yes"/>
      <point x="384.0" y="418.0"/>
      <point x="349.8" y="382.8"/>
    </contour>
  </outline>
</glyph>
<glyph name="nineinferior" format="2">
  <advance width="659.0"/>
  <unicode hex="2089"/>
  <outline>
    <contour>
      <point x="186.8" y="0.0" type="line"/>
      <point x="324.8" y="0.0" type="line"/>
      <point x="506.8" y="314.0" type="line"/>
      <point x="597.4" y="470.4"/>
      <point x="482.8" y="656.4"/>
      <point x="305.8" y="656.4" type="curve" smooth="yes"/>
      <point x="201.4" y="656.4"/>
      <point x="109.6" y="589.8"/>
      <point x="88.0" y="487.6" type="curve" smooth="yes"/>
      <point x="36.8" y="349.8"/>
      <point x="149.8" y="192.4"/>
      <point x="303.8" y="204.0" type="curve"/>
    </contour>
    <contour>
      <point x="305.8" y="317.0" type="curve" smooth="yes"/>
      <point x="261.0" y="317.0"/>
      <point x="205.6" y="345.4"/>
      <point x="195.2" y="407.8" type="curve" smooth="yes"/>
      <point x="183.2" y="474.8"/>
      <point x="232.4" y="536.4"/>
      <point x="305.8" y="536.4" type="curve" smooth="yes"/>
      <point x="353.6" y="536.4"/>
      <point x="405.2" y="505.4"/>
      <point x="416.4" y="451.2" type="curve" smooth="yes"/>
      <point x="428.4" y="380.8"/>
      <point x="375.4" y="317.0"/>
    </contour>
  </outline>
</glyph>
<glyph name="euro" format="2">
  <advance width="1149.0"/>
  <unicode hex="20AC"/>
  <outline>
    <contour>
      <point x="1068.8" y="-15.2" type="curve"/>
      <point x="1068.8" y="170.0" type="line"/>
      <point x="812.4" y="108.4"/>
      <point x="570.4" y="254.4"/>
      <point x="480.8" y="502.0" type="curve"/>
      <point x="788.0" y="502.0" type="line"/>
      <point x="788.0" y="632.4" type="line"/>
      <point x="445.2" y="632.4" type="line"/>
      <point x="444.0" y="766.0" type="line"/>
      <point x="788.0" y="766.0" type="line"/>
      <point x="788.0" y="896.4" type="line"/>
      <point x="480.4" y="896.4" type="line"/>
      <point x="566.4" y="1139.2"/>
      <point x="805.2" y="1294.4"/>
      <point x="1068.8" y="1230.8" type="curve"/>
      <point x="1068.8" y="1416.0" type="line"/>
      <point x="713.2" y="1480.0"/>
      <point x="380.0" y="1252.4"/>
      <point x="286.4" y="896.4" type="curve"/>
      <point x="80.0" y="896.4" type="line"/>
      <point x="80.0" y="766.0" type="line"/>
      <point x="263.2" y="766.0" type="line"/>
      <point x="263.2" y="632.4" type="line"/>
      <point x="80.0" y="632.4" type="line"/>
      <point x="80.0" y="502.0" type="line"/>
      <point x="286.4" y="502.0" type="line"/>
      <point x="380.0" y="152.0"/>
      <point x="708.0" y="-80.0"/>
    </contour>
  </outline>
</glyph>
<glyph name="upArrow" format="2">
  <advance width="1179.0"/>
  <unicode hex="2191"/>
  <outline>
    <contour>
      <point x="500.4" y="136.8" type="line"/>
      <point x="680.4" y="136.8" type="line"/>
      <point x="680.4" y="1018.4" type="line"/>
      <point x="972.0" y="726.4" type="line"/>
      <point x="1099.2" y="854.4" type="line"/>
      <point x="590.4" y="1363.2" type="line"/>
      <point x="80.0" y="854.4" type="line"/>
      <point x="208.0" y="726.4" type="line"/>
      <point x="500.4" y="1018.4" type="line"/>
    </contour>
  </outline>
</glyph>
<glyph name="rightArrow" format="2">
  <advance width="1385.0"/>
  <unicode hex="2192"/>
  <outline>
    <contour>
      <point x="795.2" y="241.2" type="line"/>
      <point x="1304.8" y="750.0" type="line"/>
      <point x="795.2" y="1258.8" type="line"/>
      <point x="668.0" y="1132.4" type="line"/>
      <point x="959.2" y="840.0" type="line"/>
      <point x="80.0" y="840.0" type="line"/>
      <point x="80.0" y="660.0" type="line"/>
      <point x="959.2" y="660.0" type="line"/>
      <point x="668.0" y="368.4" type="line"/>
    </contour>
  </outline>
</glyph>
<glyph name="downArrow" format="2">
  <advance width="1178.0"/>
  <unicode hex="2193"/>
  <outline>
    <contour>
      <point x="588.4" y="138.4" type="line"/>
      <point x="1098.0" y="647.2" type="line"/>
      <point x="970.8" y="774.4" type="line"/>
      <point x="678.4" y="483.2" type="line"/>
      <point x="678.4" y="1362.4" type="line"/>
      <point x="498.4" y="1362.4" type="line"/>
      <point x="498.4" y="483.2" type="line"/>
      <point x="207.2" y="774.4" type="line"/>
      <point x="80.0" y="647.2" type="line"/>
    </contour>
  </outline>
</glyph>
<glyph name="leftRightArrow" format="2">
  <advance width="1745.0"/>
  <unicode hex="2194"/>
  <outline>
    <contour>
      <point x="588.8" y="241.2" type="line"/>
      <point x="716.0" y="368.4" type="line"/>
      <point x="424.4" y="660.0" type="line"/>
      <point x="1319.2" y="660.0" type="line"/>
      <point x="1028.0" y="368.4" type="line"/>
      <point x="1155.2" y="241.2" type="line"/>
      <point x="1664.8" y="750.0" type="line"/>
      <point x="1155.2" y="1258.8" type="line"/>
      <point x="1028.0" y="1132.4" type="line"/>
      <point x="1319.2" y="840.0" type="line"/>
      <point x="424.4" y="840.0" type="line"/>
      <point x="716.0" y="1132.4" type="line"/>
      <point x="588.8" y="1258.8" type="line"/>
      <point x="80.0" y="750.0" type="line"/>
    </contour>
  </outline>
</glyph>
<glyph name="upDownArrow" format="2">
  <advance width="1179.0"/>
  <unicode hex="2195"/>
  <outline>
    <contour>
      <point x="588.8" y="-42.8" type="line"/>
      <point x="1099.2" y="466.8" type="line"/>
      <point x="971.2" y="594.8" type="line"/>
      <point x="678.8" y="302.0" type="line"/>
      <point x="678.8" y="1198.0" type="line"/>
      <point x="971.2" y="906.0" type="line"/>
      <point x="1099.2" y="1034.0" type="line"/>
      <point x="588.8" y="1542.8" type="line"/>
      <point x="80.0" y="1034.0" type="line"/>
      <point x="207.2" y="906.0" type="line"/>
      <point x="498.8" y="1198.0" type="line"/>
      <point x="498.8" y="302.0" type="line"/>
      <point x="207.2" y="594.8" type="line"/>
      <point x="80.0" y="466.8" type="line"/>
    </contour>
  </outline>
</glyph>
<glyph name="northWestArrow" format="2">
  <advance width="1090.0"/>
  <unicode hex="2196"/>
  <outline>
    <contour>
      <point x="882.8" y="285.8" type="line"/>
      <point x="1010.0" y="412.2" type="line"/>
      <point x="388.0" y="1034.2" type="line"/>
      <point x="800.0" y="1034.2" type="line"/>
      <point x="800.0" y="1214.2" type="line"/>
      <point x="80.0" y="1214.2" type="line"/>
      <point x="80.0" y="494.2" type="line"/>
      <point x="260.0" y="494.2" type="line"/>
      <point x="260.0" y="907.8" type="line"/>
    </contour>
  </outline>
</glyph>
<glyph name="northEastArrow" format="2">
  <advance width="1089.0"/>
  <unicode hex="2197"/>
  <outline>
    <contour>
      <point x="207.2" y="286.0" type="line"/>
      <point x="829.2" y="906.8" type="line"/>
      <point x="829.2" y="494.0" type="line"/>
      <point x="1009.2" y="494.0" type="line"/>
      <point x="1009.2" y="1214.0" type="line"/>
      <point x="288.0" y="1214.0" type="line"/>
      <point x="288.0" y="1034.0" type="line"/>
      <point x="702.0" y="1034.0" type="line"/>
      <point x="80.0" y="413.2" type="line"/>
    </contour>
  </outline>
</glyph>
<glyph name="southEastArrow" format="2">
  <advance width="1089.0"/>
  <unicode hex="2198"/>
  <outline>
    <contour>
      <point x="289.2" y="286.0" type="line"/>
      <point x="1009.2" y="286.0" type="line"/>
      <point x="1009.2" y="1006.0" type="line"/>
      <point x="829.2" y="1006.0" type="line"/>
      <point x="829.2" y="593.2" type="line"/>
      <point x="207.2" y="1214.0" type="line"/>
      <point x="80.0" y="1086.8" type="line"/>
      <point x="702.0" y="466.0" type="line"/>
      <point x="289.2" y="466.0" type="line"/>
    </contour>
  </outline>
</glyph>
<glyph name="southWestArrow" format="2">
  <advance width="1089.0"/>
  <unicode hex="2199"/>
  <outline>
    <contour>
      <point x="80.0" y="286.0" type="line"/>
      <point x="800.0" y="286.0" type="line"/>
      <point x="800.0" y="466.0" type="line"/>
      <point x="387.2" y="466.0" type="line"/>
      <point x="1009.2" y="1086.8" type="line"/>
      <point x="882.0" y="1214.0" type="line"/>
      <point x="260.0" y="593.2" type="line"/>
      <point x="260.0" y="1006.0" type="line"/>
      <point x="80.0" y="1006.0" type="line"/>
    </contour>
  </outline>
</glyph>
<glyph name="partialdiff" format="2">
  <advance width="1165.0"/>
  <unicode hex="2202"/>
  <outline>
    <contour>
      <point x="583.2" y="-26.0" type="curve"/>
      <point x="878.0" y="-26.0"/>
      <point x="1085.2" y="198.0"/>
      <point x="1085.2" y="516.8" type="curve"/>
      <point x="1082.8" y="1049.2"/>
      <point x="780.0" y="1508.8"/>
      <point x="349.2" y="1508.8" type="curve"/>
      <point x="350.4" y="1328.8" type="line"/>
      <point x="625.2" y="1328.8"/>
      <point x="774.8" y="1087.2"/>
      <point x="834.4" y="860.8" type="curve"/>
      <point x="776.4" y="933.2"/>
      <point x="685.2" y="979.2"/>
      <point x="583.2" y="979.2" type="curve"/>
      <point x="306.0" y="979.2"/>
      <point x="80.0" y="754.0"/>
      <point x="80.0" y="476.0" type="curve"/>
      <point x="80.0" y="199.2"/>
      <point x="306.0" y="-26.0"/>
    </contour>
    <contour>
      <point x="583.2" y="154.0" type="curve"/>
      <point x="404.0" y="154.0"/>
      <point x="260.0" y="301.2"/>
      <point x="260.0" y="476.0" type="curve"/>
      <point x="260.0" y="651.2"/>
      <point x="402.4" y="799.2"/>
      <point x="583.2" y="799.2" type="curve"/>
      <point x="762.0" y="799.2"/>
      <point x="906.0" y="652.8"/>
      <point x="906.0" y="476.0" type="curve"/>
      <point x="906.0" y="302.8"/>
      <point x="764.4" y="154.0"/>
    </contour>
  </outline>
</glyph>
<glyph name="emptyset" format="2">
  <advance width="1160.0"/>
  <unicode hex="2205"/>
  <outline>
    <contour>
      <point x="340.8" y="-62.8" type="line"/>
      <point x="387.2" y="17.2" type="line"/>
      <point x="446.4" y="-10.0"/>
      <point x="510.8" y="-26.0"/>
      <point x="580.0" y="-26.0" type="curve" smooth="yes"/>
      <point x="856.0" y="-26.0"/>
      <point x="1080.0" y="210.0"/>
      <point x="1080.0" y="500.0" type="curve" smooth="yes"/>
      <point x="1080.0" y="664.4"/>
      <point x="1010.4" y="809.2"/>
      <point x="900.4" y="905.2" type="curve"/>
      <point x="950.4" y="991.2" type="line"/>
      <point x="820.0" y="1066.4" type="line"/>
      <point x="772.4" y="986.4" type="line"/>
      <point x="715.2" y="1012.8"/>
      <point x="648.8" y="1028.0"/>
      <point x="580.0" y="1028.0" type="curve" smooth="yes"/>
      <point x="304.0" y="1028.0"/>
      <point x="80.0" y="792.0"/>
      <point x="80.0" y="500.0" type="curve" smooth="yes"/>
      <point x="80.0" y="339.2"/>
      <point x="151.2" y="194.4"/>
      <point x="261.2" y="98.4" type="curve"/>
      <point x="211.2" y="12.4" type="line"/>
    </contour>
    <contour>
      <point x="350.0" y="251.2" type="line"/>
      <point x="288.4" y="308.8"/>
      <point x="248.0" y="394.4"/>
      <point x="248.0" y="490.8" type="curve" smooth="yes"/>
      <point x="248.0" y="739.2"/>
      <point x="477.2" y="921.2"/>
      <point x="690.4" y="841.2" type="curve"/>
    </contour>
    <contour>
      <point x="470.4" y="162.4" type="curve"/>
      <point x="810.8" y="752.4" type="line"/>
      <point x="872.0" y="693.2"/>
      <point x="912.0" y="606.4"/>
      <point x="912.0" y="509.2" type="curve" smooth="yes"/>
      <point x="912.0" y="264.8"/>
      <point x="690.8" y="80.0"/>
    </contour>
  </outline>
</glyph>
<glyph name="product" format="2">
  <advance width="1280.0"/>
  <unicode hex="220F"/>
  <outline>
    <contour>
      <point x="80.0" y="1400.0" type="line"/>
      <point x="80.0" y="1220.0" type="line"/>
      <point x="1200.0" y="1220.0" type="line"/>
      <point x="1200.0" y="1400.0" type="line"/>
    </contour>
    <contour>
      <point x="250.0" y="1278.8" type="line"/>
      <point x="250.0" y="0.0" type="line"/>
      <point x="430.0" y="0.0" type="line"/>
      <point x="430.0" y="1278.8" type="line"/>
    </contour>
    <contour>
      <point x="850.0" y="1278.8" type="line"/>
      <point x="850.0" y="0.0" type="line"/>
      <point x="1030.0" y="0.0" type="line"/>
      <point x="1030.0" y="1278.8" type="line"/>
    </contour>
  </outline>
</glyph>
<glyph name="summation" format="2">
  <advance width="943.0"/>
  <unicode hex="2211"/>
  <outline>
    <contour>
      <point x="80.0" y="0.0" type="line"/>
      <point x="882.8" y="0.0" type="line"/>
      <point x="882.8" y="180.0" type="line"/>
      <point x="282.8" y="180.0" type="line"/>
      <point x="547.2" y="698.0" type="line"/>
      <point x="282.8" y="1216.0" type="line"/>
      <point x="882.8" y="1216.0" type="line"/>
      <point x="882.8" y="1396.0" type="line"/>
      <point x="80.0" y="1396.0" type="line"/>
      <point x="80.0" y="1216.0" type="line"/>
      <point x="344.8" y="698.0" type="line"/>
      <point x="80.0" y="180.0" type="line"/>
    </contour>
  </outline>
</glyph>
<glyph name="radical" format="2">
  <advance width="1309.0"/>
  <unicode hex="221A"/>
  <outline>
    <contour>
      <point x="881.2" y="1400.0" type="line"/>
      <point x="450.4" y="220.0" type="line"/>
      <point x="270.8" y="708.0" type="line"/>
      <point x="80.0" y="708.0" type="line"/>
      <point x="338.0" y="0.0" type="line"/>
      <point x="561.2" y="0.0" type="line"/>
      <point x="1007.2" y="1220.0" type="line"/>
      <point x="1229.2" y="1220.0" type="line"/>
      <point x="1229.2" y="1400.0" type="line"/>
    </contour>
  </outline>
</glyph>
<glyph name="infinity" format="2">
  <advance width="1491.0"/>
  <unicode hex="221E"/>
  <outline>
    <contour>
      <point x="406.0" y="284.0" type="curve" smooth="yes"/>
      <point x="549.2" y="278.8"/>
      <point x="630.0" y="345.2"/>
      <point x="746.0" y="484.4" type="curve"/>
      <point x="864.0" y="343.2"/>
      <point x="942.8" y="284.0"/>
      <point x="1087.2" y="284.0" type="curve" smooth="yes"/>
      <point x="1277.2" y="292.8"/>
      <point x="1411.2" y="438.0"/>
      <point x="1411.2" y="622.8" type="curve" smooth="yes"/>
      <point x="1411.2" y="804.0"/>
      <point x="1288.0" y="955.2"/>
      <point x="1072.8" y="962.4" type="curve" smooth="yes"/>
      <point x="944.8" y="962.4"/>
      <point x="856.0" y="894.4"/>
      <point x="746.0" y="760.8" type="curve"/>
      <point x="634.0" y="896.0"/>
      <point x="552.4" y="962.4"/>
      <point x="406.0" y="962.4" type="curve" smooth="yes"/>
      <point x="215.2" y="955.2"/>
      <point x="80.0" y="807.2"/>
      <point x="80.0" y="622.8" type="curve" smooth="yes"/>
      <point x="80.0" y="448.0"/>
      <point x="206.4" y="304.0"/>
    </contour>
    <contour>
      <point x="406.0" y="450.4" type="curve" smooth="yes"/>
      <point x="314.8" y="456.8"/>
      <point x="245.2" y="528.4"/>
      <point x="245.2" y="622.8" type="curve" smooth="yes"/>
      <point x="245.2" y="709.2"/>
      <point x="308.8" y="787.2"/>
      <point x="406.0" y="794.8" type="curve" smooth="yes"/>
      <point x="505.2" y="797.2"/>
      <point x="554.8" y="733.2"/>
      <point x="644.4" y="622.8" type="curve"/>
      <point x="560.4" y="518.0"/>
      <point x="507.2" y="450.4"/>
    </contour>
    <contour>
      <point x="1086.4" y="450.4" type="curve" smooth="yes"/>
      <point x="992.8" y="449.2"/>
      <point x="946.4" y="502.8"/>
      <point x="848.0" y="622.8" type="curve"/>
      <point x="936.4" y="730.8"/>
      <point x="987.2" y="796.0"/>
      <point x="1080.8" y="796.0" type="curve" smooth="yes"/>
      <point x="1182.8" y="788.8"/>
      <point x="1247.2" y="714.4"/>
      <point x="1247.2" y="622.8" type="curve" smooth="yes"/>
      <point x="1247.2" y="534.8"/>
      <point x="1182.0" y="458.0"/>
    </contour>
  </outline>
</glyph>
<glyph name="integral" format="2">
  <advance width="953.0"/>
  <unicode hex="222B"/>
  <outline>
    <contour>
      <point x="300.4" y="-26.0" type="curve" smooth="yes"/>
      <point x="404.4" y="-25.2"/>
      <point x="490.4" y="26.8"/>
      <point x="514.4" y="148.4" type="curve"/>
      <point x="612.8" y="1208.8" type="line"/>
      <point x="616.4" y="1247.2"/>
      <point x="645.6" y="1277.2"/>
      <point x="682.8" y="1276.4" type="curve"/>
      <point x="722.4" y="1278.8"/>
      <point x="756.4" y="1252.8"/>
      <point x="760.8" y="1199.2" type="curve"/>
      <point x="872.4" y="1188.0" type="line"/>
      <point x="883.6" y="1311.2"/>
      <point x="785.6" y="1422.8"/>
      <point x="659.2" y="1426.0" type="curve" smooth="yes"/>
      <point x="556.4" y="1428.4"/>
      <point x="451.2" y="1355.2"/>
      <point x="437.2" y="1252.0" type="curve"/>
      <point x="338.4" y="187.2" type="line"/>
      <point x="332.4" y="146.0"/>
      <point x="300.4" y="120.4"/>
      <point x="259.6" y="122.0" type="curve" smooth="yes"/>
      <point x="216.4" y="126.0"/>
      <point x="203.2" y="158.8"/>
      <point x="202.4" y="200.8" type="curve"/>
      <point x="80.8" y="210.8" type="line"/>
      <point x="70.8" y="76.8"/>
      <point x="171.2" y="-25.2"/>
    </contour>
  </outline>
</glyph>
<glyph name="notequal" format="2">
  <advance width="1160.0"/>
  <unicode hex="2260"/>
  <outline>
    <contour>
      <point x="842.8" y="1182.0" type="line"/>
      <point x="656.4" y="1182.0" type="line"/>
      <point x="572.8" y="896.8" type="line"/>
      <point x="80.0" y="896.8" type="line"/>
      <point x="80.0" y="716.8" type="line"/>
      <point x="520.0" y="716.8" type="line"/>
      <point x="450.8" y="483.2" type="line"/>
      <point x="80.0" y="483.2" type="line"/>
      <point x="80.0" y="303.2" type="line"/>
      <point x="398.8" y="303.2" type="line"/>
      <point x="315.2" y="18.0" type="line"/>
      <point x="502.4" y="18.0" type="line"/>
      <point x="586.0" y="303.2" type="line"/>
      <point x="1080.0" y="303.2" type="line"/>
      <point x="1080.0" y="483.2" type="line"/>
      <point x="638.8" y="483.2" type="line"/>
      <point x="707.2" y="716.8" type="line"/>
      <point x="1080.0" y="716.8" type="line"/>
      <point x="1080.0" y="896.8" type="line"/>
      <point x="760.0" y="896.8" type="line"/>
    </contour>
  </outline>
</glyph>
<glyph name="lessequal" format="2">
  <advance width="1160.0"/>
  <unicode hex="2264"/>
  <outline>
    <contour>
      <point x="1080.0" y="338.4" type="line"/>
      <point x="1080.0" y="524.8" type="line"/>
      <point x="214.0" y="772.0" type="line"/>
      <point x="1080.0" y="1018.4" type="line"/>
      <point x="1080.0" y="1206.4" type="line"/>
      <point x="80.0" y="920.4" type="line"/>
      <point x="80.0" y="622.4" type="line"/>
    </contour>
    <contour>
      <point x="80.0" y="0.0" type="line"/>
      <point x="1080.0" y="0.0" type="line"/>
      <point x="1080.0" y="180.0" type="line"/>
      <point x="80.0" y="180.0" type="line"/>
    </contour>
  </outline>
</glyph>
<glyph name="greaterequal" format="2">
  <advance width="1160.0"/>
  <unicode hex="2265"/>
  <outline>
    <contour>
      <point x="80.0" y="350.4" type="line"/>
      <point x="1080.0" y="628.0" type="line"/>
      <point x="1080.0" y="926.0" type="line"/>
      <point x="80.0" y="1206.4" type="line"/>
      <point x="80.0" y="1018.4" type="line"/>
      <point x="946.0" y="778.4" type="line"/>
      <point x="80.0" y="536.8" type="line"/>
    </contour>
    <contour>
      <point x="80.0" y="0.0" type="line"/>
      <point x="1080.0" y="0.0" type="line"/>
      <point x="1080.0" y="180.0" type="line"/>
      <point x="80.0" y="180.0" type="line"/>
    </contour>
  </outline>
</glyph>
<glyph name="lozenge" format="2">
  <advance width="948.0"/>
  <unicode hex="25CA"/>
  <outline>
    <contour>
      <point x="328.0" y="0.0" type="line"/>
      <point x="620.0" y="0.0" type="line"/>
      <point x="888.0" y="702.0" type="line"/>
      <point x="622.0" y="1400.0" type="line"/>
      <point x="326.0" y="1400.0" type="line"/>
      <point x="60.0" y="702.0" type="line"/>
    </contour>
    <contour>
      <point x="474.4" y="134.0" type="line"/>
      <point x="250.4" y="702.0" type="line"/>
      <point x="474.4" y="1270.0" type="line"/>
      <point x="700.4" y="702.0" type="line"/>
    </contour>
  </outline>
</glyph>
<glyph name="replacementCharacter" format="2">
  <advance width="1630.0"/>
  <unicode hex="FFFD"/>
  <outline>
    <contour>
      <point x="816.0" y="-26.0" type="curve" smooth="yes"/>
      <point x="888.0" y="-26.0"/>
      <point x="960.0" y="2.0"/>
      <point x="1014.0" y="56.0" type="curve" smooth="yes"/>
      <point x="1428.0" y="470.0" type="line" smooth="yes"/>
      <point x="1484.0" y="526.0"/>
      <point x="1510.0" y="598.0"/>
      <point x="1510.0" y="670.0" type="curve" smooth="yes"/>
      <point x="1510.0" y="742.0"/>
      <point x="1484.0" y="812.0"/>
      <point x="1428.0" y="868.0" type="curve" smooth="yes"/>
      <point x="1014.0" y="1282.0" type="line" smooth="yes"/>
      <point x="958.0" y="1338.0"/>
      <point x="888.0" y="1364.0"/>
      <point x="816.0" y="1364.0" type="curve" smooth="yes"/>
      <point x="744.0" y="1364.0"/>
      <point x="672.0" y="1338.0"/>
      <point x="616.0" y="1282.0" type="curve" smooth="yes"/>
      <point x="202.0" y="868.0" type="line" smooth="yes"/>
      <point x="148.0" y="814.0"/>
      <point x="120.0" y="742.0"/>
      <point x="120.0" y="670.0" type="curve" smooth="yes"/>
      <point x="120.0" y="598.0"/>
      <point x="146.0" y="526.0"/>
      <point x="202.0" y="470.0" type="curve" smooth="yes"/>
      <point x="616.0" y="56.0" type="line" smooth="yes"/>
      <point x="672.0" y="0.0"/>
      <point x="744.0" y="-26.0"/>
    </contour>
    <contour>
      <point x="822.4" y="290.0" type="curve" smooth="yes"/>
      <point x="786.4" y="290.0"/>
      <point x="756.8" y="318.8"/>
      <point x="756.8" y="356.0" type="curve" smooth="yes"/>
      <point x="756.8" y="390.8"/>
      <point x="786.4" y="420.4"/>
      <point x="822.4" y="420.4" type="curve" smooth="yes"/>
      <point x="859.2" y="420.4"/>
      <point x="887.2" y="390.8"/>
      <point x="887.2" y="356.0" type="curve" smooth="yes"/>
      <point x="887.2" y="318.8"/>
      <point x="859.2" y="290.0"/>
    </contour>
    <contour>
      <point x="753.2" y="516.0" type="line"/>
      <point x="753.2" y="518.0" type="line" smooth="yes"/>
      <point x="753.2" y="594.4"/>
      <point x="794.4" y="664.8"/>
      <point x="862.8" y="700.0" type="curve" smooth="yes"/>
      <point x="894.0" y="716.4"/>
      <point x="914.0" y="752.4"/>
      <point x="914.0" y="792.0" type="curve" smooth="yes"/>
      <point x="914.0" y="849.2"/>
      <point x="868.0" y="894.4"/>
      <point x="810.8" y="894.4" type="curve" smooth="yes"/>
      <point x="754.4" y="894.4"/>
      <point x="708.4" y="849.2"/>
      <point x="708.4" y="792.0" type="curve"/>
      <point x="578.0" y="792.0" type="line"/>
      <point x="578.0" y="920.0"/>
      <point x="682.0" y="1024.0"/>
      <point x="810.8" y="1024.0" type="curve" smooth="yes"/>
      <point x="938.8" y="1024.0"/>
      <point x="1044.4" y="920.0"/>
      <point x="1044.4" y="792.0" type="curve" smooth="yes"/>
      <point x="1044.4" y="704.0"/>
      <point x="996.8" y="627.2"/>
      <point x="924.0" y="586.4" type="curve" smooth="yes"/>
      <point x="898.8" y="572.0"/>
      <point x="882.8" y="546.0"/>
      <point x="882.8" y="518.0" type="curve" smooth="yes"/>
      <point x="882.8" y="516.0" type="line"/>
    </contour>
  </outline>
</glyph>
